<svg width="70" height="73" viewBox="0 0 70 73" fill="none" xmlns="http://www.w3.org/2000/svg">
<g opacity="0.5">
<path d="M35.9997 2.42115C36.0038 1.31659 35.1116 0.417908 34.007 0.413893C32.9025 0.409877 32.0038 1.30205 31.9998 2.40661L35.9997 2.42115ZM31.9998 2.40661L31.9634 12.4065L35.9634 12.4211L35.9997 2.42115L31.9998 2.40661Z" fill="#B4B4B4"/>
</g>
<g opacity="0.5">
<path d="M67.8686 38.5372C68.9732 38.5413 69.8719 37.6491 69.8759 36.5445C69.8799 35.44 68.9877 34.5413 67.8832 34.5373L67.8686 38.5372ZM67.8832 34.5373L57.8833 34.5009L57.8687 38.5009L67.8686 38.5372L67.8832 34.5373Z" fill="#B4B4B4"/>
</g>
<g opacity="0.5">
<path d="M31.7526 70.4062C31.7486 71.5107 32.6407 72.4094 33.7453 72.4134C34.8499 72.4175 35.7485 71.5253 35.7526 70.4207L31.7526 70.4062ZM35.7526 70.4207L35.7889 60.4208L31.7889 60.4062L31.7526 70.4062L35.7526 70.4207Z" fill="#B4B4B4"/>
</g>
<g opacity="0.5">
<path d="M56.5542 11.0817C57.3381 10.3035 58.6044 10.3081 59.3826 11.092C60.1608 11.8759 60.1562 13.1422 59.3723 13.9204L56.5542 11.0817ZM59.3723 13.9204L52.2756 20.9657L49.4575 18.127L56.5542 11.0817L59.3723 13.9204Z" fill="#B4B4B4"/>
</g>
<g opacity="0.5">
<path d="M56.3694 61.9098C57.1476 62.6937 58.4139 62.6983 59.1978 61.9201C59.9816 61.1419 59.9862 59.8756 59.208 59.0917L56.3694 61.9098ZM59.208 59.0917L52.1627 51.995L49.324 54.8131L56.3694 61.9098L59.208 59.0917Z" fill="#B4B4B4"/>
</g>
<rect x="15.6399" y="17.7957" width="37" height="37" rx="18.5" transform="rotate(0.208296 15.6399 17.7957)" stroke="#B4B4B4" stroke-width="3" stroke-dasharray="7 7"/>
<circle cx="34.0726" cy="36.3629" r="8.5" transform="rotate(0.208296 34.0726 36.3629)" stroke="#B4B4B4" stroke-width="3"/>
</svg>
