<?xml version="1.0" encoding="UTF-8"?>
<svg id="Calque_2" data-name="Calque 2" xmlns="http://www.w3.org/2000/svg" viewBox="0 0 100 102">
  <defs>
    <style>
      .cls-1 {
        fill: #706a61;
      }

      .cls-2 {
        fill: #4c453f;
      }

      .cls-3 {
        fill: #4e473f;
      }

      .cls-4 {
        fill: #beb1a6;
      }

      .cls-5 {
        fill: #685e54;
      }

      .cls-6 {
        fill: #ccc0b5;
      }

      .cls-7 {
        fill: #8a7562;
      }

      .cls-8 {
        fill: #382e25;
      }

      .cls-9 {
        fill: #928c7f;
      }

      .cls-10 {
        fill: #bfb8ab;
      }

      .cls-11 {
        fill: #29abe2;
      }

      .cls-12 {
        fill: #867c6f;
      }

      .cls-13 {
        fill: #6c5f52;
      }

      .cls-14 {
        fill: #656159;
      }

      .cls-15 {
        fill: #70675e;
      }

      .cls-16 {
        fill: #ab9c8f;
      }

      .cls-17 {
        fill: #595042;
      }

      .cls-18 {
        fill: #b0a498;
      }

      .cls-19 {
        fill: #cfc0b1;
      }

      .cls-20 {
        fill: #564e46;
      }

      .cls-21 {
        fill: #d4cbc1;
      }

      .cls-22 {
        fill: #1e1a16;
      }

      .cls-23 {
        fill: #7f776e;
      }

      .cls-24 {
        fill: #b6a695;
      }

      .cls-25 {
        fill: #5e564e;
      }

      .cls-26 {
        fill: #cdbdaf;
      }

      .cls-27 {
        fill: #574e45;
      }

      .cls-28 {
        fill: #333;
        opacity: .51;
      }

      .cls-29 {
        fill: #857462;
      }

      .cls-30 {
        fill: #b39273;
      }

      .cls-31 {
        fill: #cec0b5;
      }

      .cls-32 {
        fill: #9b8a77;
      }

      .cls-33 {
        fill: #5b544b;
      }

      .cls-34 {
        fill: #c4b2a0;
      }

      .cls-35 {
        fill: #546b99;
      }

      .cls-36 {
        fill: #ceb8a2;
      }

      .cls-37 {
        fill: #4b3824;
      }

      .cls-38 {
        fill: #9c9389;
      }

      .cls-39 {
        fill: #bfb6ae;
      }

      .cls-40 {
        fill: #e0d5cb;
      }

      .cls-41 {
        fill: #b19f8f;
      }

      .cls-42 {
        fill: #b1a395;
      }

      .cls-43 {
        fill: #3f3730;
      }

      .cls-44 {
        fill: #807364;
      }

      .cls-45 {
        fill: #4e453b;
      }

      .cls-46 {
        fill: #817871;
      }

      .cls-47 {
        fill: #150e0b;
      }

      .cls-48 {
        fill: #4c4439;
      }

      .cls-49 {
        fill: #bfae9f;
      }

      .cls-50 {
        fill: #443c33;
      }

      .cls-51 {
        fill: #beb6ae;
      }

      .cls-52 {
        fill: #887f76;
      }

      .cls-53 {
        fill: #5e544a;
      }

      .cls-54 {
        fill: #524940;
      }

      .cls-55 {
        fill: #5f5144;
      }

      .cls-56 {
        fill: #4c433b;
      }

      .cls-57 {
        fill: #b2a9a0;
      }

      .cls-58 {
        fill: #544a40;
      }

      .cls-59 {
        fill: #d5c5b7;
      }

      .cls-60 {
        fill: #796654;
      }

      .cls-61 {
        fill: #3c362c;
      }

      .cls-62 {
        fill: #756c5f;
      }

      .cls-63 {
        fill: #d3c3b6;
      }

      .cls-64 {
        fill: #3f362f;
      }

      .cls-65 {
        fill: #62594f;
      }

      .cls-66 {
        fill: #413930;
      }

      .cls-67 {
        fill: #7d7164;
      }

      .cls-68 {
        fill: #948d85;
      }

      .cls-69 {
        fill: #93887a;
      }

      .cls-70 {
        fill: #7c756d;
      }

      .cls-71 {
        fill: #a18c78;
      }

      .cls-72 {
        fill: #1b120b;
      }

      .cls-73 {
        fill: #1c150f;
      }

      .cls-74 {
        fill: #8b7c6d;
      }

      .cls-75 {
        fill: #cfb8a1;
      }

      .cls-76 {
        fill: #9a9086;
      }

      .cls-77 {
        fill: #2c261d;
      }

      .cls-78 {
        fill: #bbb2a7;
      }

      .cls-79 {
        fill: #6a5e50;
      }

      .cls-80 {
        fill: #6a6158;
      }

      .cls-81 {
        fill: #a19891;
      }

      .cls-82 {
        fill: #c4bbb2;
      }

      .cls-83 {
        fill: #e5d7c8;
      }

      .cls-84 {
        fill: #a79788;
      }

      .cls-85 {
        fill: #615950;
      }

      .cls-86 {
        fill: #5d5043;
      }

      .cls-87 {
        fill: #292621;
      }

      .cls-88 {
        fill: #1b130b;
      }

      .cls-89 {
        fill: #2d261e;
      }

      .cls-90 {
        fill: #5d544a;
      }

      .cls-91 {
        fill: #897b6c;
      }

      .cls-92 {
        fill: #d7c6b1;
      }

      .cls-93 {
        fill: #564839;
      }

      .cls-94 {
        fill: #93877c;
      }

      .cls-95 {
        fill: #6a5a4a;
      }

      .cls-96 {
        fill: #b7aa9c;
      }

      .cls-97 {
        fill: #927d67;
      }

      .cls-98 {
        fill: #afa499;
      }

      .cls-99 {
        fill: #ddcaba;
      }

      .cls-100 {
        fill: #b3a99f;
      }

      .cls-101 {
        fill: #ddd7d0;
      }

      .cls-102 {
        fill: #948374;
      }

      .cls-103 {
        fill: #e0d1c3;
      }

      .cls-104 {
        fill: #897762;
      }

      .cls-105 {
        fill: #9a8269;
      }

      .cls-106 {
        fill: #6d6860;
      }

      .cls-107 {
        fill: #c2b1a1;
      }

      .cls-108 {
        fill: #45372a;
      }

      .cls-109 {
        fill: #4b453e;
      }

      .cls-110 {
        fill: #9e9489;
      }

      .cls-111 {
        fill: #6e6256;
      }

      .cls-112 {
        fill: #473e35;
      }

      .cls-113 {
        fill: #4f4b45;
      }

      .cls-114 {
        fill: #716254;
      }

      .cls-115 {
        fill: #766e64;
      }

      .cls-116 {
        fill: #b8a89b;
      }

      .cls-117 {
        fill: #937f69;
      }

      .cls-118 {
        fill: #baa692;
      }

      .cls-119 {
        fill: #4a4239;
      }

      .cls-120 {
        fill: #a39384;
      }

      .cls-121 {
        fill: #484038;
      }

      .cls-122 {
        fill: #3f3831;
      }

      .cls-123 {
        fill: #c4b9aa;
      }

      .cls-124 {
        fill: #605b52;
      }

      .cls-125 {
        fill: #e6dbcf;
      }

      .cls-126 {
        fill: #d9c6b4;
      }

      .cls-127 {
        fill: #d3c6b6;
      }

      .cls-128 {
        fill: #65523c;
      }

      .cls-129 {
        fill: #4f433c;
      }

      .cls-130 {
        fill: #68584f;
      }

      .cls-131 {
        fill: #66594c;
      }

      .cls-132 {
        fill: #75675a;
      }

      .cls-133 {
        fill: #7f6d5d;
      }

      .cls-134 {
        fill: #827970;
      }

      .cls-135 {
        fill: #50483f;
      }

      .cls-136 {
        fill: #e7d2bd;
      }

      .cls-137 {
        fill: #605648;
      }

      .cls-138 {
        fill: #f6ede3;
      }

      .cls-139 {
        fill: #98816d;
      }

      .cls-140 {
        fill: #e1d1c4;
      }

      .cls-141 {
        fill: #6a635b;
      }

      .cls-142 {
        fill: #5d544c;
      }

      .cls-143 {
        fill: #c2a58b;
      }

      .cls-144 {
        fill: #8a8177;
      }

      .cls-145 {
        fill: #6e655b;
      }

      .cls-146 {
        fill: #bfac9c;
      }

      .cls-147 {
        fill: #a38e7c;
      }

      .cls-148 {
        fill: #a79d8f;
      }

      .cls-149 {
        fill: #554d43;
      }

      .cls-150 {
        fill: #5c5141;
      }

      .cls-151 {
        fill: #5c534b;
      }

      .cls-152 {
        fill: #504740;
      }

      .cls-153 {
        fill: #7e6e5f;
      }

      .cls-154 {
        fill: #9f9285;
      }

      .cls-155 {
        fill: #232d40;
      }

      .cls-156 {
        fill: #a89a8d;
      }

      .cls-157 {
        fill: #877d70;
      }

      .cls-158 {
        fill: #e1d4c7;
      }

      .cls-159 {
        fill: #d0c1b3;
      }

      .cls-160 {
        fill: #b9aea2;
      }

      .cls-161 {
        fill: #7b746a;
      }

      .cls-162 {
        fill: #a19183;
      }

      .cls-163 {
        fill: #d5d0c9;
      }

      .cls-164 {
        fill: #3c3329;
      }

      .cls-165 {
        fill: #4e473e;
      }

      .cls-166 {
        fill: #d2c3b3;
      }

      .cls-167 {
        fill: #6a6259;
      }

      .cls-168 {
        fill: #c8b6a5;
      }

      .cls-169 {
        fill: #46372a;
      }

      .cls-170 {
        fill: #786c5d;
      }

      .cls-171 {
        fill: #b1a498;
      }

      .cls-172 {
        fill: #9a8573;
      }

      .cls-173 {
        fill: #ddd8d1;
      }

      .cls-174 {
        fill: #928a82;
      }

      .cls-175 {
        fill: #3d3630;
      }

      .cls-176 {
        fill: #4f4436;
      }

      .cls-177 {
        fill: #7a9bde;
      }

      .cls-178 {
        fill: #7b6d61;
      }

      .cls-179 {
        fill: #6c645b;
      }

      .cls-180 {
        fill: #c2b2a4;
      }

      .cls-181 {
        fill: #816953;
      }

      .cls-182 {
        fill: #231e19;
      }

      .cls-183 {
        fill: #3d3023;
      }

      .cls-184 {
        fill: #8f8880;
      }

      .cls-185 {
        fill: #ded6cd;
      }

      .cls-186 {
        fill: #8d8277;
      }

      .cls-187 {
        fill: #453c34;
      }

      .cls-188 {
        fill: #dacdbf;
      }

      .cls-189 {
        fill: #d8cfc6;
      }

      .cls-190 {
        fill: #aba29a;
      }

      .cls-191 {
        fill: #453929;
      }

      .cls-192 {
        fill: #473b2c;
      }

      .cls-193 {
        fill: #88796a;
      }
    </style>
  </defs>
  <g id="Chevre_final">
    <circle class="cls-11" cx="50" cy="51" r="50"/>
    <path class="cls-28" d="M86.24,30.85c-1.79.31-3.88.38-5.48,1.37-.61,0-1.22,0-1.83,0,.48-.22,1.45-.36,1.37-.91-2.72.53-7.57.9-10.04,1.82v-.46c-.19-2.89.84-4.59-.46-7.3-.26-.54-.95-1.31-1.37-1.83.86-1.24-.73-2.93-1.83-1.83-.17-.39-.32-.39-.46,0h0c.22-1.14-.33-1.47-.91-.46-.2-1.78-2.99-1-4.44.03-.53.38-1.24.36-1.76-.02-.93-.68-1.9-1.37-2.89-2.04-.29-.2-.65-.29-1-.26l-3.86.33c-.74.06-1.34.65-1.4,1.38-.02.26,0,.5.05.74-.46.35-.87.88-1.2,1.39-.41-1.21-1.18-2.3-2.21-2.92-.08-.19-.29-.34-.46-.46-.44-2.39-.62-5.31-2.74-6.85.1-.15-.1-.71,0-.91l-1.82-.92c-.78,4.89-2.75,10.45-1.37,15.52-.57,2.08,1.36,4.34,2.07,5.83.07.19.14.37.21.56.04.18.04.73,0,.91-.17.73-.71,1.4-.91,2.74-.2,1.36-.32,3.72,0,5.02.04.17.37.47.46.91l-1.82,2.06c-.02.47.68.12.91.23-1.03.35-1.71,1.32-2.28,2.28-.44.1-1.02.18-1.37.46-.44.35-4.42,4.08-4.61,4.33-.19.24-.42,1.62-.86,2.52.29-2.33-3.32,1.23-3.53,1.35-.24-.01-.51,0-.81.01-.09,0-.17-.01-.22.01-3.42,1.76-7.98,3.78-9.58,7.3-.05.12.05.31,0,.46-1.36-1.41-3.65.97-2.28,2.28-.18-.21-.37-.4-.59-.54-1.29-.8-5.75,4.19-5.8,5.56.12.32.43,1.15.46,1.37-.34.1-.49.4-.46.91.22.61.56,1.12.46,1.83,5.42,6.23,7.38,9.22,14.15,14.61.4.32.95,1.37,1.37,1.83,2.58.74,5.84,2.55,8.67,3.65,1.52.59,3.13,1.06,4.56,1.83,1.5.28,3.11,1.45,5.02.91-.08.07.07.36,0,.46,2.16.45,3.47.21,5.48,0,.41-.04.81-.45.91-.46.29-.03.62,0,.91,0,1.79.05,3.71.58,5.93.46,1.65-.09,3.41-.52,5.02-.91,3.65-.89,5.89-2.12,9.13-3.65v-2.28l.46-4.11.91.46c.55-.8-.84-7.34-1.37-8.67.05-.67.92-1.89,0-2.28.09-.38-.07-.94,0-1.37l.3.15c.15.11.35.21.6.3,0,.51.13,2.22.91,2.28-.53-1.45.88-2.64.92-3.65,0-.18-.54-.73-.48-1.11.05-.32.79-.23.86-.32.49-.69-.74-1.17-1.03-1.8-.27-.58-1.05-2.61-1.17-3.16l.71-1.08c-.41-4.32-.5-8.66-.25-13.01l-.92-.97.92.68v-6.16s.91.46.91.46c-.1-.68.16-1.69,0-2.29.44-.12.43-.53.46-.91.03-.41.05-.98,0-1.37.58.34.14,1.7,1.13,1.36.33-.11,4.15-3.16,4.59-3.62.56-.58,2.5-2.8,1.58-3.21v-.46c.08-.03.54-.56,1.37-.91.64-.27.99-.72,1.37-.91,3.16-1.58,2.78-1.04,5.48-3.65.15-.15.3-.3.46-.46.3-1.92-2.18-.63-3.19-.46ZM67.93,88.07c0-.22.02-.43.05-.62-.01.21-.03.42-.05.62ZM65.36,23.68c.09.11.21.22.34.33-.15-.07-.31-.16-.46-.25.04-.02.08-.05.12-.07ZM55.66,41.12c-.02-.08-.03-.17,0-.23v.23ZM51.55,71.47c-.04.14.04.32,0,.46v-.46ZM66.2,57.4s-.02,0-.03.01c.01-.02.03-.05.04-.07,0,.02,0,.04-.01.06ZM36.03,71.02v.46c-.02-.15.01-.31,0-.46ZM28.73,79c-.09.05-.16.1-.24.15,0,0,0,0,0-.01l.25-.14ZM30.78,61.43h0s0,0,0,0c0,0,0,0,0,0Z"/>
    <g>
      <path class="cls-50" d="M63.96,19.94c-.2-1.78-3-1-4.45.03-.53.37-1.23.36-1.75-.02-.94-.68-1.91-1.37-2.89-2.04-.29-.2-.65-.29-1-.26l-2.34.29c-1.39.12-2.34,1.65-1.62,2.85.11.19.26.37.45.52-.39,1.49-.53,1.51,1.58.05l.34.07c-.31,3.58.46,4.54,2.31,2.91-.86.95-1.08,1.76-.67,2.45.62.75,1.48.58,2.56-.51.94-1.73,2.13-2.58,3.56-2.56.32,0,.62-.06.89-.23.73-.44,1.51-.71,2.32-.8.69-.08,1.27-.54,1.41-1.23l.21-1.06c.22-1.14-.33-1.47-.91-.46Z"/>
      <path class="cls-50" d="M53.52,29.6c-.48-3.11-1.44,2.15-3.92,1.64-2.01-.42-1.31-3.75-1.47-5.36-.93.09-.51,1.25-1.31,2.01-.43.41-2.7,2.05-3.05,1.76-.46-2.66,1.81-4.56,2.74-6.73l-.08-.62c.07-.55.27-.56.6-.08.68-1.15,1.94-3.11,3.34-2.36.43-.52.38-1.29.44-1.32.99-.61,2.58.97,2.72,2.16-.44,1.1-.91,2.29-1.37,3.37.77,1.23-2.83,5.86-.93,2.91l.76.3c3.1.54,1.61.79,1.54,2.34Z"/>
      <path class="cls-22" d="M10.11,73.34c1.98.91,3.2,2.74,3.65,5.48,1.63.22,4.19,2.59,4.11,4.56,1.77.43,4.38,1.67,4.56,3.65.15-.26.3-.26.46,0,.4.13.39.28,0,.46.6.64.35.88-.46.46-6.77-5.39-8.73-8.38-14.15-14.61.1-.7-.23-1.22-.46-1.83-.03-.51.12-.81.46-.91.13-.4.28-.39.46,0,1.11.11,2.17,1.79,1.37,2.74Z"/>
      <path class="cls-87" d="M22.89,87.49c1.38-.9,3.47.67,4.46,1.84,1.08-.14,1.7.15,1.47,1.35.72-.91.95-.68.91.46,1.23-.92,2.25.05,2.28,1.37.75-.98,1.05-.74.91.46.62.45.47.6-.46.46-2.83-1.1-6.09-2.91-8.67-3.65-.42-.45-.97-1.51-1.37-1.83l.46-.46Z"/>
      <path class="cls-113" d="M42.06,92.97l.55.3c.82-.91,1.03-1.03,2.19-.76-.51-.69.15-1.4.91-.91,1.31-.97,1.78-.47,1.56,1.1-1.57,1.71-1.71,2.81-.43,3.3.86-.29,1.09-.09.69.61-2,.21-3.32.45-5.48,0,.07-.09-.08-.39,0-.46-1.27-.37-2.75-.82-4.46-1.35-1.18-1.99,6.44-7.06,4.46-1.84Z"/>
      <path class="cls-85" d="M52.1,87.95c1.22.58.72,1.68-.46,1.83-.73,1.15-1.49,2.07-2.28,2.74-.77.84-1.07,1.6-.91,2.28,1.32.06,1.23.98,0,1.37-.11.01-.5.41-.91.46-.51-.68-1.96-.3-2.26-1.19-.46-1.39,2.63-3.92.43-3.83-.56-.98.74-2.09,1.83-1.83.09-1.58,2.27-2.74,3.65-2.28.9-1.64,1.8-1.37.91.46Z"/>
      <path class="cls-53" d="M58.94,92.51c.32.82.77,1.58,1.37,2.28,1.25.18,1.12.44,0,.91-1.61.39-3.37.82-5.02.91-2.22.12-4.14-.4-5.93-.46-1.04-.96.2-1.89.91-.46.39-1.19,1.36-1.1,1.83,0,.63-.52,1.24-.97,1.83-1.37,1.14-.03,1.83-.76,2.06-2.2l1.13-.54c-.02-.81.4-1.17.91-.46,1.11-.83,1.68.34.91,1.37Z"/>
      <path class="cls-156" d="M51.64,89.77c.58.65-.15,1.9-.91,2.28.12.74-.03,1.65-.46,2.74,1.24.06,1.18.52,0,.91-.33-.01-.95.02-.91.46-.3,0-.62-.03-.91,0v-1.37c-.44-.84.26-1.73.91-2.28.42-.87,1.42-3.01,2.28-2.74Z"/>
      <path class="cls-122" d="M44.79,81.1c-1.71-1.24-2.25-4.7-2.58-6.89-1.13-5.31-.91-7.26,3.98-4.18-.16,1.55-.33,3.11-.49,4.68-.49.65-.69.43-.51-.34.47,2.09.64,4.18.51,6.27,1,.04.82.45,0,.91,1.53-.19,1.72,5.24,1.22,6.29-.1.22-1.43,1.8-1.76,2.17-.09.1-.23.16-.38.21-.66,1.74-1.57,2.66-2.74,2.74,0-.09-.32-1.44-.23-1.82-.68.6-4.76,2.87-3.11,3.64.3.14,4.98.53,4.25,1.37-.27.06-.82-.08-.91,0-1.91.54-3.52-.64-5.02-.91-1.44-.76-3.05-1.24-4.56-1.83l.46-.46c.75-1.84,1.58-3.23,2.79-4.9.2-.27.5-.27.86-.12-.08-.8.26-1.52,1.03-2.16l-.12-1.04v-.46c-.25-2.07,2.95-10.09,4.28-4.71-.66,1.45-2.18,5.13.29,4.25,1.26.26,1.78,1.09,1.54,2.48l.83-1.02s.12-1.4.37-4.19Z"/>
      <path class="cls-13" d="M67.16,86.12c.47.62.83.41,1.37,0,.14-.39.29-.39.46,0,.16,1.74.31,3.57.46,5.48v.46c-3.24,1.53-5.47,2.77-9.13,3.65v-.91c-.12-.95.37-1.55,1.37-1.37,1.42.37.46.3.53.17.47-.8,1.09-.91,1.75-.17.12-.41.27-.4.46,0,1.38-2.05,2.14-4.48,2.28-7.3.13-.4.28-.39.46,0Z"/>
      <path class="cls-43" d="M38.4,71.51c.6.8.58,1.95-.05,3.44,1.67,2.39.64,7.01-1.77,7.97-.36.31-.72.26-1.12.12-1.84,3.12-4.05,5.66-6.64,7.64l-5.93-3.19v-.46c1.19-2.39,2.97-3.91,4.99-5.62l3.22-3.96c.74-3.17,5.5-5,3.47-.16-.38.55-4.75,8.4-4.44,8.06,2.98-3.22,6.23-7.53,5.76-12.12-2.02.02-1.82-1.65-1.15-3.08.57-2.01,3.65-.16,3.65,1.37Z"/>
      <path class="cls-142" d="M24.71,71.51c.59-1.51,3.34-4.46,3.74-1.8l1.2.7c-.88,1.05-1.62,2.18-2.2,3.38,1.08.98-.62,2.95-1.83,2.28-.78-.28-.84-.71-.57-1.37-.89,2.56-2.3,4.84-3.89,6.96-.45,2.54-.86,3.24-3.3,1.72-1.42-1.34-2.9-3.03-4.11-4.56-1.77-2.21-.29-7,2.28-7.3,3.44-.63,4.3.84,1.5,3.3-.43.64-.53,1.49-.23,2.21,1-.6,1.51-.06,1.94.95.47,1.09-.67,1.96.06-.86s2.65-5.87,5.4-5.59Z"/>
      <path class="cls-187" d="M17.87,83.38c3.33.25,1.58-.09,2.38-1.91.55-1.25,1.74-2.27,2.14-3.02,1.02-1.91,1.93-4.44,2.78-6.48,1.77-.39.73,3.23.45,4.11.39.11.38.26,0,.46-.26.51.07.93.59,1.26,2.58-1.07.3,4.28-1.5,4.22.2,1.63-.61,4.34-2.28,5.02-.93-.23-3.68-2.82-4.56-3.65Z"/>
      <path class="cls-151" d="M16.5,61.93c.17,1.32.78,1.8,1.83,1.44.81,1.13,1.68.9,2.6-.7l1.04.17c.4.13.39.28,0,.46l.66.92c-.23,1.35-3.63,6.32-5.23,5.92-.55-.23-1.16-.38-1.83-.46l-.47-.42c.92-2.8-2.84,1.71-3.18,2.7.89,1.23-.95,2.75-1.83,1.37-.51-.86-1.36-1.53-1.37-2.74-.13-.21-.25-.42-.28-.65-.07-.4,4.85-5.14,5.76-5.74-1.36-1.31.92-3.69,2.28-2.28Z"/>
      <path class="cls-121" d="M15.58,69.69c1.31-1.02,2.06-1.66,1.83.46.9,1.03-.22,1.71-1.37,1.37-1.37,2.01-2.99,4.8-2.28,7.3-1.39-1.76-2.5-3.56-3.65-5.48.93-.07,1.38-1.06,1.83-1.37l-.15-.59c1.22-.7,2.49-1.27,3.8-1.69Z"/>
      <path class="cls-135" d="M31.1,77.45c-.16,1.24-2.63,4.43-3.64,5.59-.46.52-1.14.73-1.62,1.23-.97,1.01-1.25,2.61-2.95,2.77-.13.01-.33.03-.46,0,.78-1.29,1.08-3.43,1.61-4.55.16-.33.63-.39.67-.47l1.03-.45c1.49-2.27,3.28-3.65,5.36-4.12Z"/>
      <path class="cls-109" d="M14.21,64.21c-1.09,2.4-3.87,4.09-5.48,6.39h-.46c-.03-.22-.34-1.05-.46-1.37.05-1.37,4.5-6.36,5.8-5.56.22.14.41.33.59.54Z"/>
      <path class="cls-149" d="M28.82,90.68l6.84-9.37.92,1.61c.88.7.07,1.73-.91,1.37.26,1.85-2.26,4.73-3.87,6.04-.56.46-1.34.84-2.07.8-.29-.14-.67-.17-.91-.46Z"/>
      <path class="cls-61" d="M35.67,84.29c.65-.18,1.26-.18,1.83,0v.46c.68,1.13-.66,2.24-1.83,2.28.13.22.24.44.26.67.05.56-3.02,4.18-3.91,4.81-1.1-.49-1.56-1.01-2.28-1.37.07-1.22,1.49-1.19,2.52-2.28.81-.86,2.76-3.51,3.42-4.57Z"/>
      <path class="cls-124" d="M35.67,87.03c1.52-1.35,1.99-.75.91.91-.28.46-2.04,3.43-2.1,3.63-.39,1.5,1.54,2.39-1.56,1.39-.3-.1-.61-.32-.91-.46-.71-.84-.04-1.04.44-1.6,1.21-1.4,2.08-2.36,3.21-3.88Z"/>
      <path class="cls-1" d="M45.25,90.23l.4.47c-.79.64-1.07,1.25-.86,1.81-.89.75-2.21,1.98-3.19,1.82-.13-.5.42-1.05.45-1.37.4-1.18,2.2-2.01,2.74-2.74.14-.19.29-.18.46,0Z"/>
      <path class="cls-184" d="M47.53,88.4c.4.11.4.56,0,1.37-.54.39-1.29,1.41-1.83,1.83-.44.34-.65.69-.91.91-1.94.22-.33-1.3.46-2.28.37-1,1.44-3.36,2.28-1.83Z"/>
      <path class="cls-92" d="M56.66,81.56c1.09-.52,1.24.54.46,3.19,1.31.5.85,1.27-.46,1.37,1,1.27-.51,2.5-1.83,2.28.13.43-.02.59-.46.46-.93,1.44-2.01,2.7-3.24,3.79l-.41-.59c.32-.76.51-1.47.91-2.28.25-.5.23-1.41.46-1.83-.18-1.58,1.41-3.25,2.74-4.11-.15-.71,1-2.59,1.83-2.28Z"/>
      <path class="cls-82" d="M47.99,86.58c-.04-1.61,1.21-.86,2.28,0,.73-.99.99-.68.91.46.23.14.23.29,0,.46-1.33,1.02-2.62,1.52-3.65,2.28-1.78.12-.41-.43,0-1.37-.83-.64-.58-1.67.46-1.83Z"/>
      <path class="cls-154" d="M54.84,83.84c-.71,1.16-2.48,3.63-2.74,4.11.12-1.14-.04-1.12-.91-.46v-.46c-.32-1.1,1.95-3.71,3.19-3.65.64-.6.88-.35.46.46Z"/>
      <path class="cls-106" d="M49.36,92.51c-.32.65.21,1.39-.91,2.28-.02.02-.25-.36-.46-.21-.45.31-.41,1.9-1.82.9.71-1.13,1.85-2.55,3.19-2.97Z"/>
      <path class="cls-108" d="M65.33,82.47c-.61,3.52-1.44,7.06-2.51,10.61l-1.14.35c-.4.88-.4,1.25-1.37,1.37-.73.09-1.54-.06-2.28,0-.25-.22.66-1.95.91-2.28-.02-1.48.9-2.85,2.74-4.11-.3-.31-.55-.7-.42-1.09,1.1-3.44,2.34-7.1,3.62-10.33.34-.75.8-1.36,1.37-1.83.23-.12.44-.19.56-.12.91.54.92,7.8-1.47,7.43Z"/>
      <path class="cls-105" d="M54.84,88.4c1.26-1.31,2.86.44,2.28,1.83.82.13.56,1.03,0,1.37-.56,1.67-.71,2.78-2.28,3.88-.81.56-.33-.92-.91-1.14-.42-.28.36-2.49.69-3.19.11-.25-1.27,4.82-2.51,4.56-1.03.19-1.08.03-1.83,0-.05-.28.07-.68,0-.91-.04-1.46,1.28-2.98,2.31-3.95.3-.28,1.12-1.09,1.79-1.99.14-.16.31-.29.46-.46Z"/>
      <path class="cls-67" d="M60.77,86.12c.66.41.75,1.06.27,1.96l.64.32c-1.02,2.47-1.44,2.39-2.74,4.11l-.91-1.37c-.35-1.26,1.1-4.51,2.28-5.02.13-.4.28-.39.46,0Z"/>
      <path class="cls-136" d="M60.77,84.29c.44.44,0,1.37-.46,1.83-.5,1.25-1.59,4.07-2.28,5.02-.12.16-.69.28-.91.46.02-.06-.32-.57,0-1.37-.98-1.17.28-3.79,1.83-4.11-1.01-.83-.14-1.67.91-1.83-.11-1.65,1.21-1.74.91,0Z"/>
      <path class="cls-36" d="M53.92,94.34c-.16.32-.5,1.23-.56,1.27-.38.3-.9.03-1.27.1l2.51-4.56c.43.7-.36,2.54-.69,3.19Z"/>
      <path class="cls-168" d="M54.38,88.86c-.2.82-.6,2.18-1.16,2.77-.37.39-.95-.01-1.05.08-.31.28-1.07,2.57-1.9,3.09-.86-2.64,0-1.63.46-2.74,1.48.11,1.38-1.54,2.08-2.27.51-.53,1.37-.71,1.57-.93Z"/>
      <path class="cls-182" d="M39.77,61.93c.49-.09,1.38.21,1.91.42,1.94.78,3.71,1.19,5.39,1.41.2-.92,2.96-2.13,3.65-1.37.19-.92.72-.95.91,0,2.23-.34.27,2.95-1.37,1.83.22,1.22,0,1.18-.91.46-.95.61-2.1.87-3.45.78-.56.7-.69,1.1-.2,1.96l.35.65c2.38-.1,2.88.29,1.48,1.17-.58,1.89-.98,3.85-1.22,5.88l-.61.06c-.42-.05-.4-.2,0-.46-.11-1.13.31-3.32-.21-4.15-.39-.61-1.3.02-1.65-.2-.48-.29-.06-1.52-1.33-1.13.12,4.05,1.38,7.94,2.28,11.86.79,1.84-1.07,3.41-2.74,2.74-.23.24-2.31,4.1-3.19,3.19-.07-.87.66-1.22.88-2.09.33-1.27.08-2.33.25-3.4.19-1.17,1.85-2.66.24-3.18-.77,1.73-1.46,4.6-2.74,5.93-.7.73-2.13,1.65-1.83,0,.22-.36.87-1.29.91-1.37.51-1.01,1.75-3.87,1.82-4.86.1-1.48-.89-1.97-.96-3.13-.06-1.1.72-2.14.97-3.42l-.76-1.01c.29-2.24.27-4.51-.14-6.73-1.76-1.98-1.54-5.54.9-6.41.25,1.7.73,3.07,1.37,4.56Z"/>
      <path class="cls-89" d="M44.79,81.1c.19.84.99,1.38.96,2.98-.06,3-5.15,5.49-7.34,7.06.69-2.99,5.76-3.58,3.65-7.3.97-1.03,2.64-1.28,2.74-2.74Z"/>
      <path class="cls-65" d="M50.27,70.6c.94.89.49,2.53-.64,2.82l-.27.83c.59.47.31,1.2-.46.91-1.22,1.46-1.67,3.34-1.35,5.64l-.48.29c-.25,1.32-.43,1.5-1.37.46-.05-.29.05-.63,0-.91-.04-1.35.11-2.41.46-3.19.07-1.73.31-3.45.71-5.16l.66-.32c.91-2.35,1.82-2.96,2.74-1.83v.46Z"/>
      <path class="cls-33" d="M47.99,86.12c.26.13.24.28,0,.46-.1.78-.13,1.09-.46,1.83-1.21.01-1.65,1.04-2.28,1.83h-.46c1.53-2.06,2.21-4.49,1.8-7.06-.12-.75-.84-1.32-.89-1.61l1.37-.46c.38,1.53.69,3.2.91,5.02Z"/>
      <path class="cls-52" d="M45.71,74.71c.02.15-.01.31,0,.46.58.23.74,1,.46,2.28.07.93.27,2.63-.46,3.19-.37-2.18-.83-4.4-.92-6.62l.92.68Z"/>
      <path class="cls-3" d="M37.49,84.75c2.69.22-.52,2.56-.91,3.19.11-.97.06-1.02-.91-.91.59-.79,1.28-1.46,1.83-2.28Z"/>
      <path class="cls-20" d="M69.9,50.06c.18.25.18.56,0,.91.41.08.39.24,0,.46l.92.97c-.25,4.35-.17,8.69.25,13.01l-.71,1.08c.13.55.91,2.58,1.17,3.16.29.63,1.52,1.1,1.03,1.8-.07.09-.81,0-.86.32-.06.37.49.93.48,1.11-.03,1.01-1.45,2.2-.92,3.65-.78-.06-.9-1.78-.91-2.28-1.16-.4-1.23-1.03-.2-1.9l-.71-5.4c-.93-.4-.65-1.78-.46-2.74-1.67-.52-.77-1.81,0-2.74-1.41-.65-1.07-3.27,0-4.11-1.43-.29-1.37-4.27-.46-5.02-.66-1.35-.51-2.26.46-2.74.37-.87.67-.72.91.46Z"/>
      <path class="cls-71" d="M70.35,74.25l-.91-.46c-.07.43.09.99,0,1.37-.24,1.28-.24,2.5,0,3.65.34.72.86,2.49,0,2.74l-1.12-.08c-.79-3.24-1.48-5.96-2.07-8.14-.4-.11-.39-.27,0-.46.03-1.51-.17-2.84-.61-4.01l1.07-1.47,1.03.25c.46,3.66,1.03,4.49,1.71,2.48-.56-.72-.79-2.71,0-3.19.54,3.31.85,3.72.91,7.3Z"/>
      <path class="cls-150" d="M69.44,77.45c.53,1.33,1.91,7.87,1.37,8.67l-.91-.46-.46,4.11c-.1-1.26-.26-2.48-.46-3.65-.03.05-.31-.03-.46,0-.78-2.57-.47-4.09.91-4.56.11-.85-.06-1.85,0-2.74-.21-.47-.43-.96,0-1.37Z"/>
      <path class="cls-191" d="M69.44,89.77v1.83c-.98-1.51-.25-3.71-.46-5.48.09-.14-.06-.64,0-.91h.45c0,1.52,0,3.04,0,4.56Z"/>
      <path class="cls-181" d="M69.44,77.45c-.03.45.03.92,0,1.37-1.17-1.08-.25-2.62,0-3.65.92.4.05,1.61,0,2.28Z"/>
      <path class="cls-181" d="M66.25,73.34c1.35-.28.8.68,1.03,1.45.67,2.26.86,4.91,2.16,6.76-.15,1.18-.77,2-.91,4.56-.36.28-.81.28-1.37,0h-.46c-.13.4-.28.39-.46,0-.28-.97-.43-2.19-.46-3.65-.13.4-.28.39-.46,0,.88-2.51,1.51-3.33,1.39-6.2-.03-.6-.46-1.01-.47-1.1-.9-.47-1.21-1.35,0-1.83Z"/>
      <path class="cls-139" d="M65.79,82.47c.05,3.64-.56,7.29-1.83,10.95-.74.21-2.53,2.01-2.28,0,1.29-2.86,2.5-7.66,3.65-10.95h.46Z"/>
      <path class="cls-118" d="M66.25,86.12c.35,2.46-.08,5.78-1.83,7.3-.15.03-.32-.04-.46,0-.82-.38-.2-1.51-.08-2.12.58-2.99,1.82-5.76,1.9-8.83.76.62.53,2.62.46,3.65Z"/>
      <path class="cls-97" d="M68.53,86.12c-.05.97.16,5.61-.69,5.94-1.02.4-.65-1.05-.68-1.59-.07-1.31-.12-3.07,0-4.34.06-.58.77-1.91.68-2.74.63,0-.29,2.7.68,2.74Z"/>
      <path class="cls-37" d="M66.7,86.12c-.22,1.53.33,3.77-.01,5.16-.08.32-.72.24-.89.67s.11,1.29-.02,1.47c-.09.12-1.04-.06-1.36,0,.65-2.41,1.64-4.77,1.83-7.3h.46Z"/>
      <path class="cls-175" d="M38.86,53.26c1.12,1.3.97,2.67-.46,4.11-.21.83-1.33,3.26-1.28,3.81.07.71,1.07,1.39,1.26,2.37.49,2.45.48,5.54.02,7.97-1.44-.25-1.97-1.82-3.65-1.37v-.46c-1.06-.16-.95-.92,0-1.37l.94-2.72c-.94-.3-1.4-1.06-1.4-2.3-1.33-1.69-1.11-3.3,0-5.02-.33-.3-.02-.9.46-.91.49-1.32.76-2.75.8-4.3.13-.15,3.73-.85,3.31.19Z"/>
      <path class="cls-54" d="M34.75,70.15c.17,1.62.14,2.89,1.82,1.82.67,2.16.15,4.4-.57,6.5-.55,1.6-1.7,3.07-2.62,4.21-.41.51-5.19,7.03-5.94,6.17-.67-1.82,1.16-2.02,1.36-2.63.81-2.41.85-2.15,2.02-4.26.56-1.01,3.35-5.59,3.41-6.19.25-2.5-2.38.95-3.15,1.66-1.21-.57-1.22-1.7,0-2.28,1.13-1.58,2.15-3.36,2.7-5.43l.95-.05c.01.15-.02.31,0,.46Z"/>
      <path class="cls-15" d="M26.54,60.56l.36,1.51c-1.01,2.79-2.05,5.48-3.1,8.08.55.35.85.81.91,1.37-1.73,1.47-3.91,2.76-4.46,5.37-.22,1.03.84,2.84-1.7,3.31-1.62.3.18-2.28-.24-2.74l-2.74,1.82c1.5-1.48.18-2.53.87-4.35.44-1.15,1.6-1.68,1.86-2.27.71-1.61-2.85.91-2.28-1.13.51-.75,1.12-1.04,1.37-1.37,1.61-2.17,3.93-4.4,4.56-6.85l1.02-1.28c.34-2.56,4.71-4.45,3.54-1.45Z"/>
      <path class="cls-46" d="M30.19,66.95c.59,0,1.2,0,1.83,0,.07.81.75.46,2.06-1.06,1.75.86-2.18,8.81-2.97,9.28-.46,1.17-1.52.53-2.28,0-.8-.2-.97-.62-.46-1.23l-.91-.14c-.09-1.49.79-2.51,1.82-3.43l-2.74,1.14,1.36-2.73c-1.12.84-2.12,1.83-3.19,2.74-1.49.31-.68-.82-.91-1.37-.13-.43.03-.58.46-.46,1.03-.47,2.01-1.33,2.95-2.58.73-.49,2.37-1.29,2.99-.61.19.14.18.29,0,.46Z"/>
      <path class="cls-190" d="M27.45,73.8c.65-.8,1.65-1.67,2.3-2.51.37-.48.38-1.41.51-1.52.19-.17,1.69-.13,1.76-.07.64.55-2.33,3.8-2.75,4.33-.31.4-.34,1.04-.44,1.14.23.29.49.7.33.98-.78,1.4-5.08,2.87-3.52.39.05-.12-.05-.31,0-.46.9-.49,1.17-1.47,1.83-2.28Z"/>
      <path class="cls-167" d="M34.3,58.28c-.22,1.23-.04,3.63,0,5.02,1.34,1.8,1.49,3.47.46,5.02.05.45-.03.92,0,1.37-.59.63-2.1,5.24-2.32,5.44-.13.12-1.01.07-1.33.04.05.65.08,1.66,0,2.28-1.34,1.26-2.73,2.68-4.15,3.84-.36.29-1.87,1.71-2.24.73.25-.47.76-.8.92-1.13.51-.98.07-2.32,1.81-3.21l-3.64,2.06c-.5-.54,1.68-2.85,1.82-3.19-.45,2.19,2.44-.53,3.19-1.37.91-.87,1.65-.08,2.28,0-.04-.48-.72-2.01-.44-2.27.11-.1.88.18,1.24-.12.58-.48,1.01-2.92,1.26-3.53s1.92-1.51.9-2.75c-1.1,2.15-4.46,4.61-2.06.45-.63-.66.09-1.37.91-1.37.08-1.48-.22-2.85-.91-4.11-.74-.83.77-3.2,1.83-3.19.13-.4.28-.39.46,0Z"/>
      <path class="cls-152" d="M16.5,61.47c.51-.9,1.35-.93,2.51-.12,1.74-1.74,3.49-2.59,5.23-2.56,1.13,1.08-1.22,3.23-2.27,4.05-.33.43-2.29,2.65-2.52,2.73-1.04.3-.68-1.15-1.38-1.36-.98-.29-1.83,1.1-2.03.91-.67-1.46,0-1.9.45-3.19.05-.14-.05-.34,0-.46Z"/>
      <path class="cls-80" d="M11.93,71.97c-1.37-.71-.8-.56-.22-1.36.89-1.23,3.55-4.08,4.79-4.8.54-.31,1.56-.66,1.37.45-1.51.91-1.64,2.26-2.28,3.43-1.65,3.02-1.52.81-3.65,2.28Z"/>
      <path class="cls-25" d="M26.08,54.17c3.49-.3,3.08,1.39,1.37,3.83l.46.73c1.85-.54,2.23,3.39-.46,4.56-.48-.65-.78-1.56-.91-2.74-.13-.05-.44-.93-.68-.91-.4.05-.57,1.23-.74,1.34-.28.19-1.22-.54-1.31-.44-.12.12-.34,2.55-1.83,2.75v-.46c.76-1.01,1.86-2.31,1.82-3.65-.22-.23-3.93,2.86-4.55,3.03-1,.28-1.66-.99-2.75-.75,1.61-3.53,6.16-5.54,9.58-7.3Z"/>
      <path class="cls-83" d="M87.7,30.44c-2.7,2.61-2.32,2.07-5.48,3.65-2.43,1.02-4.71,1.48-6.85,1.37l-.3-.97c.59-.67.54-1.41-.16-2.23-.4-.13-.39-.28,0-.46-.04-.98,1.94-1.19,2.74-.91.61,0,1.22,0,1.83,0,1.39-.54,2.4-.39,3.01.44,1.27-.97,2.39-1.27,3.38-.9.28-1.41,2.73-1.6,1.83,0Z"/>
      <path class="cls-19" d="M82.22,34.09c-.38.19-.72.64-1.37.91-.83.35-1.29.88-1.37.91-.66.75-2.22,2-2.74.46-.91.31-2.2.18-1.37-.91,2.42-.36,4.3-2.36,6.85-1.37Z"/>
      <path class="cls-10" d="M84.96,29.52c1.01-.17,3.49-1.46,3.19.46-.15.15-.3.31-.46.46.38-1.44-.75-.56-1.83,0-.56-.07-.87-.38-.91-.91Z"/>
      <path class="cls-86" d="M65.33,22.68c1.46-.98,3.8,2.68,3.58,4.36-.25,1.47-.23,2.9.08,4.31v.46c.54,1.18-.36,1.72-1.37.91l-.88-.44.2,6.99c-.11,1.5-1.31,2.85-2.06,1.21-1.09,2-5.3,2.48-2.74,0-.19-.58-.65-.58-1.37,0,.61.62.34.88-.46.46-3.69-.38-.51-3.85,1.18-5.22-.33-.3-.35-.74-.27-1.17l.09-1.01c2.32.22,3.5-.51,3.56-2.19-.69-.54-.4-1.13.46-.91l.13-1.49c-.74-.75-1.05-5.25-.77-6.04.05-.13.31-.19.64-.22Z"/>
      <path class="cls-176" d="M68.98,31.81c2.47-.92,7.31-1.29,10.04-1.82.08.55-.88.69-1.37.91-.96.43-1.83.58-2.74.91-2.15.79-2.78,1.74-3.19,3.65,1.3.84,3.25,2.7.91,3.19-1.23-.02-3.66-1.89-2.74-3.19-.65.29-1.41-.02-2.28-.91-1.24-.33-1.22-1.5,0-1.83.46-.22.93-.75,1.37-.91Z"/>
      <path class="cls-111" d="M67.16,22.22c.42.52,1.11,1.29,1.37,1.83,1.29,2.72.27,4.41.46,7.3-1.13-1.46-.03-4.03-.45-5.61-.06-.21-2.88-2.95-3.2-3.07-.24,1.19-.44,1.13-.91,0-1.04-.82-.98-2.15.46-2.28.13-.39.29-.39.46,0,1.1-1.1,2.68.59,1.83,1.83Z"/>
      <path class="cls-188" d="M84.96,29.52c.97-.11,1.02-.06.91.91-.73.38-2.81,1.84-3.44,1.85-1.07,0-.26-1.38-2.95-1.39,1.6-.99,3.69-1.06,5.48-1.37Z"/>
      <path class="cls-98" d="M60.31,72.43l.27.53c-1.09,2.67-2.55,5.35-3.93,7.69,1.19.18,1.12.5,0,.91-.56.5-1.45,1.68-1.83,2.28l-.46-.46c-.15-.18-.29-.36-.35-.57-.04-.12.1-.26.09-.25-1.11,1.33-2.2,2.7-3.28,4.08l-.57-.06c-.24.01-.75.53-1.1.48-.48-.07.07-1.54-1.18-.48.02-.15-.01-.31,0-.46-.24-.37-.24-.68,0-.91,0-1.72.3-3.09.91-4.11.67.45,1.02,1.16,1.04,2.15.55-1.32,1.26-1.88,2.16-1.69l1.11-.96c1.42-3.42,3.42-6.27,6-8.54l1.11.37Z"/>
      <path class="cls-125" d="M62.14,75.17c1.4,1.03.06,3.42-1.37,4.11.9,1.26.07,2.32-1.37,2.28-.11,1.46-.41,3.53-2.28,3.19-1.75-2.19-.01-2.33-.01-2.49,0-.18-.45-.52-.44-.7,0-.3-.05-.65,0-.91l.55-.53c.32-1.85.9-2.59,1.73-2.21.5-.13.98-.48,1.43-1.05.22-1.49.78-3.74,1.77-1.69Z"/>
      <path class="cls-30" d="M58.94,86.12c-.61,1.68-1.26,2.68-1.83,4.11-.08-1.04-1.29-.43-1.33-.5-.28-.45.49-1.67-.95-1.32.57-.66,1.33-1.58,1.83-2.28.58-1.19,1.88-1.38,2.28,0Z"/>
      <path class="cls-143" d="M59.4,81.56c2.26-1.78,1.16,1.7.46,2.74-.06,1.17-.75,1.38-.91,1.83h-2.28c.3-.42.3-1.14.46-1.37.71-1.04,1.64-2.07,2.28-3.19Z"/>
      <path class="cls-40" d="M54.38,83.38c-.68,1-2.58,2.37-3.19,3.65-.33.06-.86-.46-.91-.46l6.16-8.21c.36,1.23-1.32,3.94-2.06,5.02Z"/>
      <path class="cls-100" d="M63.05,80.19c.01-.86,1.28-6.58,1.58-6.76,1.27-.74,1.67,3.56.24,3.56-.45,3.41-1.88,8.21-3.19,11.41l-1.82,1.37c.41-1.13.53-2.55.91-3.65.27-2,1.03-4.46,2.28-5.93Z"/>
      <path class="cls-16" d="M62.6,78.82l-.46-.58c.96-2.69,1.79-5.42,2.49-8.18-1.45-.8.92-2.39,1.49-1.25-.09,1.39-.05,2.75.12,4.08.02.15-.02.31,0,.46.08.57-.06,1.24,0,1.83v1.83s-1.37,0-1.37,0c.12-.92.98-3.25-.45-2.74.24,2.14-.77,4.06-1.37,5.94-.28-.27-.44-.72-.46-1.37Z"/>
      <path class="cls-193" d="M63.05,80.19c-.68,2.1-1.64,4.09-2.28,5.93h-.46c.23-.57.25-1.25.46-1.83-.61-1.98.07-4.32,1.83-5.48.7.07.44.75.46,1.37Z"/>
      <path class="cls-75" d="M62.6,78.82c-.58,1.87-1.17,3.64-1.83,5.48l-.23-.44-.69.44c.02-.37-.47-.98-.34-1.52.19-.82,1.74-1.31-.11-1.21.45-.78.95-1.46,1.37-2.28,1-1.25,1.61-1.4,1.83-.46Z"/>
      <path class="cls-173" d="M54.38,51.89c1.57-1.09,3.08-.17,1.37.91.13,1.35-.17,2.41-.91,3.19,1.06.27,1.32,1.22.23,1.48l-.12,1.41c-1.4,1.19-2.8,2.36-4.22,3.51-1.12.44-2.46,1.09-3.65,1.37h-1.37c.13-.71.92-.98,1.37-1.37,2.64-.85,3.06-2.49,1.97-4.88-.14-1.19,1.91-3.16,3.05-2.42.33-1.25.95-2.44,2.28-2.74-.33-.13-.32-.29,0-.46Z"/>
      <path class="cls-6" d="M59.4,52.34c.87-.03.74.6,0,.91,1.08.93.64,3.64-.91,3.65.6.68.34.92-.46.46-.63,1.2-1.24,1.62-1.86,1.25-.19,1.02-.94,1.67-2.25,1.94.58,1.59-1.02,2.75-2.28,1.83-.28.05-.7-.08-.91,0,.01-2.13,1.68-1.81,2.17-2.4.59-.71-.22-2.17,1.94-1.25.08-.89-.11-1.87,0-2.74.67-.88.98-1.94.91-3.19-.25-.68.39-1.16-1.37-.91-.12-.37-.19-.67-.07-.77,2.63-2.22,4.42-2.41,5.1,1.22Z"/>
      <path class="cls-132" d="M53.92,60.56c4.7-2.89,1.24,3.67-.46,5.48.23,1.41-1.53,4.91-3.19,4.56.04-.14-.04-.31,0-.46-.81-.25-.9-.96-.25-2.13l-.66-.6-.39-.39c1.43-.87,1.53-1.75,1.3-2.81.57-.3,1.29-1.14,1.82-1.6-.07-.3-.45-.2-.45-.23.01-.16,1.25-.43,2.28-1.83Z"/>
      <path class="cls-58" d="M50.27,70.15c-1.47.37-1.56.76-1.37,2.28l-1.36-.46c-1.12-.29-.66-1.99,0-2.74-.11-1.82-.95-.38-1.74-1.01-.23-.18-.04-.79-.08-.82,1.26-.06,2.48-.06,3.65,0,.75-.25,1.18-.48,1.82-.91.32.42-.72,2.93-.91,3.65Z"/>
      <path class="cls-66" d="M47.53,71.97c-.23,1.86-.94,3.66-1.37,5.48-.05-.68-.38-1.46-.46-2.28,1.3-1.7-.75-4.88,1.83-5.93.05.8.09,1.97,0,2.74Z"/>
      <path class="cls-38" d="M50.27,64.21c2.13.99-.32,1.94-.91,3.19-.81.27-3.22.97-3.65,0-2.45-1.76.63-2.44,2.28-1.83-.47,1.25,1.33.35,1.37-.46-.4-.13-.39-.28,0-.46.13-.04.7-.34.91-.46Z"/>
      <path class="cls-14" d="M49.36,64.67v.46c.07.81-.86,1.13-1.37.46h-2.28c.1.5-.15,1.49,0,1.83-.61-.39-1.98-.77-2.73-1.18-.6-.32-1.17.15-.92-1.1,2,.49,5.34.18,7.3-.46Z"/>
      <path class="cls-160" d="M53.47,74.25c.87.88.73,1.13-.46.91-.59.91-1.2,1.82-1.83,2.74,2.27.99-.78,4.84-1.61,2.84.43-1.69.51-3.1.24-4.21-.58-.41-.6-1.13-.06-2.17l-.4-.11c-.15-1.34.56-2.43.91-3.65,1.28-1.11,1.71-3.54,3.19-4.56.81-2.15,1.72-2.91,2.74-2.28-.38,2.99-.89,5.98-1.55,8.97l-1.19,1.53Z"/>
      <path class="cls-23" d="M47.08,81.1c-.04-1.45-.24-5.9.46-6.84.58-.78-.02,2.36,1.36.91l.44.59c-.67,3.11-1.12,6.26-1.35,9.45-.01.3.02.61,0,.91-1.24-1.35-.87-3.34-.91-5.02Z"/>
      <path class="cls-185" d="M49.82,76.54c.17.37.19,3.92.04,4.08l-.95.48-.91,4.11c.15-3.44-.29-6.72.91-10.04.07-.19.33-.66.46-.91.17-.32.74-1.27.91-.91-.01,1.07-.23,2.16-.45,3.19Z"/>
      <path class="cls-146" d="M68.98,61.47c.06.9-.08,1.85,0,2.74-.14,1.88-.23,4.73.46,5.93.06.53.92,1.72.45,2.74l-.9-.91-1.37,2.28c0-2.25.2-4.8-.92-6.84-1.59-.33-.73-6.03.91-5.48.21-1.4.8-1.89,1.37-.46Z"/>
      <path class="cls-29" d="M68.53,52.34c.31,1.39.37,3.54.46,5.02-.42,1.3-1.03,2.22-1.83,2.74,0,1.03-.12,2.12-1.37,1.83-.5-.4-.5-1.16,0-2.28-.36-2.06.4-4.8,1.37-6.85-1.7-.98,1.74-4.4,1.37-.46Z"/>
      <path class="cls-123" d="M68.98,49.61c-.02.95-.15,1.84-.46,2.74-.07-.3-.63-.79-.46-1.37-.32-.49-.92,1.31-.91,1.82-.25,1.42-.86,2.18-1.83,2.28-1.35,4.02-3.17-.44-.46-1.83l1.35-3.36,1.39-.29c.15-2.11,2.93-2.41,1.37,0Z"/>
      <path class="cls-120" d="M69.9,45.5c.41.11.4.26,0,.46.34,1.32.52,2.87,0,4.11l-.91-.46c0-.42.17-1.38-.23-1.37-.03,1.72-1.07,1.29-1.14,1.37-.95.55-1.1.24-.46-.91-.56-.51-.33-.91.46-.91.09-1.21.82-3.55,1.83-3.65.73-.22.59.73.46,1.37Z"/>
      <path class="cls-84" d="M71.72,44.13c.16.59-.11,1.6,0,2.29l-.91-.46v6.16s-.92-.68-.92-.68c0-.15,0-.3,0-.46.37-1.64.46-3.39,0-5.02-.01-.15.02-.31,0-.46.16-1.28-.22-2.53-.84-3.65l.38-.46c-.21-2.64,2.59,1.35,2.28,2.74Z"/>
      <path class="cls-147" d="M68.98,57.37c.08,1.36-.09,2.75,0,4.11-1.09-.34-.83.83-.92.91-.31.27-.42-.45-.45-.45-1.09.26-1.24-.35-.46-1.83.39-.8-.07-2.77,1.83-2.74Z"/>
      <path class="cls-99" d="M69.44,66.95c.07,1.04-.11,2.17,0,3.19-.6,1.21-.9-1.94-.91-2.06-.06-1.14-.35-2.97.45-3.88.09.92.31,1.83.46,2.74Z"/>
      <path class="cls-159" d="M69.9,50.98c0-.3,0-.61,0-.91-.04-1.34.13-2.81,0-4.11.76,1.07.78,3.86,0,5.02Z"/>
      <path class="cls-63" d="M67.62,61.93c-.63.03-.83,4.68-.91,5.48-.18,1.82-.39,3.65-.46,5.48-.02-.1-.37-.35-.42-.72-.17-1.11.6-3.31-.94-2.93.15,3.32-1.32,6.45-2.28,9.58-.53-.05-1.26.39-1.83.46.66-1.29,1.56-2.57,1.37-4.11-.72-.4-.57-.55.46-.46-.28-1.1.02-2.45.9-4.07l-.44-.49c-.74.12-.72-.79-.46-1.37-.86-.2-.79-.57,0-.91.8-.65,1.56-1.41,2.28-2.28-.31-.12-.54-.24-.54-.33.01-.2,1.21-3.06,1.45-3.32.25-.75,1.21-1.5,1.37-1.83l.46,1.83Z"/>
      <path class="cls-112" d="M38.86,24.96c-1.38-5.08.59-10.63,1.37-15.52l1.82.92c-.1.21.1.76,0,.91.37.89-.08,1.65-1.37,2.28,1,.85.87,1.28-.46,1.37,1.15,1.82,1.4,5.83.46,7.76.57.48,1.18.94,1.83,1.37,1.59-.57,2.27-1.43,2.06-2.6-.9-2.42-.83-3.53.22-3.34.17.12.38.27.46.46,2.01,1.21,3.06,4.18,2.28,6.39.45,1.11.22,1.28-.91.91,0,1.26-.29,1.87-.91,1.83.37.58-3.21,5.87-3.57,5.94-1.06.19-1.1-.48-.99-1.37.04-.18.04-.73,0-.91-1.48-3.64-2.03-6.95-1.83-10.95-.01-.25.51,4.86-.45,4.56Z"/>
      <path class="cls-17" d="M49.36,35c.62.1.65.74,0,.91.04,1.2-.77,1.71-2.41,1.55-.29,1.85-.85,2.71-1.69,2.56l-.48-.25c-.09,2.09,0,4.19.25,6.29l-.8.6c1.19,2.62.8,4.52-2.16,5.23-1.52.62-1.83-.29-.91-2.74-.19-1.64-.3-3.4-.35-5.27-.8-1.24-.83-1.63-.1-2.95-.08-.44-.42-.75-.46-.91-.32-1.3-.2-3.66,0-5.02.68-1.46,2.52-.48,1.83.91.23,1.47.08,2.54-.46,3.19.51,1.54,1.12,1.99,1.83,1.37-.99-1.05-1.45-3.22-.91-4.56-.07-1.65.39-2.56,1.37-2.74l2.35-1.69c-.03-1.34,3.98.4,4.31.98.55.95.18,2.99-1.18,2.54Z"/>
      <path class="cls-62" d="M45.71,27.7c.7-.08,1.02.58.95,1.97.76,1.01-.17,2.18-2.78,3.51-.62,1.53-.05,3.05-1.37,2.74-.12.39-.28.38-.46,0-.59-.46-.92-.95-1.83-.91.2-1.34.74-2.01.91-2.74l.7.93c.7-2.95,2.39-3.68,3.87-5.49Z"/>
      <path class="cls-77" d="M38.86,24.96l.45-4.56,1.37,8.67h1.83s-1.37,2.28-1.37,2.28c-.35-1.43-2.93-4.03-2.28-6.39Z"/>
      <path class="cls-68" d="M37.49,45.5c1.01.83-.11,3.06-1.37,3.19-.23.62-.53.92-.91.91-.48,1.31-.74,2.65-.78,4.03l-1.04.53c-.27,3.27-4.72,9.68-4.56,3.19-.98-.98.14-4.78,1.83-4.56.45-.9.67-2.28.86-2.52s4.18-3.98,4.61-4.33c.35-.28.93-.36,1.37-.46Z"/>
      <path class="cls-165" d="M26.08,54.17c.16-.08.69.14,1.03-.02.21-.1,3.82-3.68,3.54-1.35-.98,1.98-1.16,2.62-1.83,4.56.79.98.23,1.53-.91,1.37-.05-.06-1.2.68-1.37-.24-.1-.57,1.66-2.38,1.37-3.41l-1.83-.92Z"/>
      <path class="cls-119" d="M40.23,50.06c.45,1.26.66,2.47-.91,3.19-.02-.03-.3.01-.46,0-1.54-.14-1.8,1.53-3.19,0-.09,1.07.21,2.33-.09,3.35-.16.56-.8.7-.82.75-.73-1.04-.28-3.56.46-4.11,0-1.63.3-3.15.91-4.56.24-.94.88-2.37,1.37-3.19.57-.96,1.25-1.93,2.28-2.28.16-.19.33-.35.53-.39.79-.16,1.02,6.64-.07,7.24Z"/>
      <path class="cls-115" d="M41.14,49.15l-.23,1.15c.79,1.89-1.35,1.67-.69-.23.18-1.35.19-4.87.01-6.19-.06-.48-.06-.46-.47-.65-.23-.11-.93.24-.91-.23l1.82-2.06c.6,3.22,1.44,4.31.46,8.22Z"/>
      <path class="cls-161" d="M42.06,11.27c2.12,1.53,2.29,4.46,2.74,6.85,0,.03-.39.28-.34.6.13.77,1.49,4.66,1.25,4.87-.98.1-2.27.18-3.2.46.96-3.26,1.12-8.08-1.83-10.5.66-2.77.98-1.71,1.37-2.28Z"/>
      <path class="cls-70" d="M35.21,53.26c-.08,1.42-.53,2.69-.46,4.11-.11.3-.41.65-.46.91h-.46c-.38-.68-.38-1.59,0-2.74-1-.21.36-1.81.33-1.29-.02.26-.66.45-.78-.07.71-1.47.61-2.76,1.83-4.56.34.88.34,2.1,0,3.65Z"/>
      <path class="cls-2" d="M34.3,63.3c.26,2.27,2.2.27,2.31,2.05.07,1.16-.8,2.47-1.85,2.97-.17-1.65-.41-3.37-.46-5.02Z"/>
      <path class="cls-56" d="M26.54,60.56c1.33.56,2.04-.7.91,2.74l.45.52c-.77,1.12-1.38,2.31-1.82,3.59.35.94-.86,2.22-1.83,2.28-.13.17-.33.29-.46.46-.05-.11-.82-.31-.81-.67.01-.28.83-1,1.04-1.61.84-2.41,1.5-4.95,2.51-7.3Z"/>
      <path class="cls-174" d="M33.84,58.28c-.23.63-1.38,2.54-1.83,3.19,1.31,1.85.7,3.53-1.83,5.02-1.29,1.2-2.32,1.1-3.44,1.81-.29.19-2.77,3.54-2.49,1.39.6-.77,1.26-1.48,1.83-2.28,1.79-4.38,4.8-8.39,7.76-11.87-.01.56.63,1,0,2.74Z"/>
      <path class="cls-134" d="M32.02,61.47c1.45.25,2.14,2.11,1.69,3.37-.21.57-.73.65-.77.74-.52.19-.85-.01-.59-.26.95-.89-1.17,2.45-2.15,1.63v-.46c.43-.4,2.22-2.79,1.82-3.19-.74-.75-1.21,1.92-2.28.68.57-.79,1.79-1.8,2.28-2.51Z"/>
      <path class="cls-81" d="M32.93,65.58c-.3.59-.66.94-.91,1.37l-3.42,2.74,1.59-2.74,2.51-2.28.23.91Z"/>
      <path class="cls-7" d="M72.64,38.65c-.06,1.62-.48,1.59-1.37,0l-.52.33c.63,1.36,1.22,2.74,1.44,4.23-.03.39-.01.79-.46.91-.04-.16-1.47-2.58-1.63-2.78-.38-.48-.63.07-.65.04-1.1.11-2.04-.14-1.37-1.37l.2-4.16c.24-.89.84-.84,1.63-.41.88,1.07,1.33,2.56,2.74,3.19Z"/>
      <path class="cls-45" d="M79.48,36.37c.92.41-1.02,2.63-1.58,3.21-.44.46-4.26,3.51-4.59,3.62-.99.34-.55-1.02-1.13-1.36-.64-.1-.7-.73,0-.91-.58-3.28,1.44-2.1,2.74-.46,1.12-2.15,2.64-3.52,4.56-4.11Z"/>
      <path class="cls-178" d="M79.48,35.91v.46c-1.64,1.45-2.35,3.37-4.56,4.11-1.77-.01-.95-1.62,0-2.6v-1.05c-.05-.66.55-.81,1.82-.46.71-.14,2.37-.32,2.74-.46Z"/>
      <path class="cls-24" d="M71.27,38.65c.92.18,1.22.94.91,2.28.06.27-.04.62,0,.91.05.39.03.96,0,1.37l-2.73-5.26.22-.68c.25.55,1.41,1.08,1.6,1.37Z"/>
      <path class="cls-117" d="M74.92,31.81v.46c-.09.4-.25.39-.46,0-.84,1.14-1.16,1.94-.18,3.15l-.28.96c-.48.83-1.24.53-2.28-.91-.33-.75-.95-1.39-.91-2.28,1.35-.43,2.78-.89,4.11-1.37Z"/>
      <path class="cls-126" d="M74.92,32.26c.23-.01,1.77.61,2.74,0l-2.28,3.19c-1.66.68-2.48-2.29-.91-3.19.13-.03.3,0,.46,0Z"/>
      <path class="cls-34" d="M75.37,35.46c.4.41.47,1,1.37.91-.5.1-.67.57-1.83.46-.83,1.01-1.24.8-.91-.46-1.18-1.41-1.95-3.57.46-4.11-.5,1.28.06,2.33.91,3.19Z"/>
      <path class="cls-107" d="M62.14,26.79c1.13.02,1.74.33,1.83.91,1.66-1.13,1.78,1.44,1.37,2.74-.04.1-.37.76-.46.91-.24,2.24-1.62,2.89-3.5,1.51-.87,1.18-1.83,2.2-2.89,3.05-.13.4-.28.39-.46,0-.7.44-1.46.74-2.28.91-.2.59-.57.4-1.1-.55-2.01-.67-3.69-2.57-3.01-4.93.96-1.06,1.71-2.27,2.26-3.66l.93.92c.55.91.22,2.25-.99,4.03.75.38,1.5.77,2.23,1.18.26-2.1.91-3.38,1.95-3.84l.98-.07c.47,1.03,1.3,0,2.49-3.07l.64-.05Z"/>
      <path class="cls-169" d="M61.23,34.54c.54.44,1.49.07,1.31,1.07-.29,1.61-4.77,3.2-2.22,5.32-.88,1.01-.73,1.53.43,1.56l.03,1.18c-.8.48-1.49,1.21-2.07,2.2l-1.13.09c.75,2.09-4.35,5.38-2.74,1.83-.73-1.2.33-4.74,1.83-5.02-.34-1.65.09-3.4,1.27-5.25l.55-.68c.45-1.28,1.4-3.28,2.74-2.28Z"/>
      <path class="cls-44" d="M53.92,26.79c1.86-.15,3.28-3.32,4.58-3.88.59-.25,1.23.21,1.82.02.84-.27,1.61-1.09,2.54-1.18.27-.03.91.65,1.56.93.21.09.68-.09.91,0l-.45,4.11.91-.46c.13,1.64.1,2.59-.45,4.11.4-1.67-.46-1.74-1.37-2.74l-.6-.68c.97-3.15-.12-3.46-3.28-.94l-.69-.35c-1.3.83-2.49,1.82-3.56,2.97l-1-.54c-1.23.3-1.53,0-.91-.91-.4-.13-.39-.28,0-.46Z"/>
      <path class="cls-164" d="M64.88,40.48s.62.15.89-.33c.96-1.66-.58-7.26.48-9.71,1.29-.35,1.29,1.41,1.37,2.28.05.6-.03,1.22,0,1.83,1.02.2,1.2.89.55,2.08l-.1,3.4c.68.97.6,1.84-.58,1.35l-.33.93c.13.43-.03.58-.46.46.08,1.39-.68,1.39-2.28,0-.83-.78-.87-2.06.46-2.28Z"/>
      <path class="cls-47" d="M62.14,40.48c.11.12-.08,1.01,0,1.37,1.07-.93.94-1.79,2.73-1.37-.17.32.11,1.73-.46,2.28.4.13.39.28,0,.46-.48.31-1.09.61-1.83.91-.18.73-1.14.66-1.37,0-.3,0-.46-.15-.46-.46-1.2-1.24-2.15-.29-2.28-.46-.06-.08-.05-1.71.04-1.79.07-.07,1.19-.28,1.79-.49.13-.04.28-.41.46-.46.32-1.33.98-1.3,1.37,0Z"/>
      <path class="cls-172" d="M61.23,34.54c-.91.42-2.1,1.46-2.74,2.28-.51.03-.36-.6,0-.91.39-1.21,2.13-4.54,3.42-4.12.22.07.16.92.51.92.73.01.89-1.09,1.32.46.47-.53.8-1.21,1.14-1.82.23,3.6-1.95,2.41-3.65,3.19Z"/>
      <path class="cls-49" d="M60.77,40.48c-.02-2.36,1.22-3.57,3.19-4.56v2.05s.91-.23.91-.23l-.46,1.83-.9-.91-1.37,1.82c-.05-.05-1.13-.06-1.37,0Z"/>
      <path class="cls-130" d="M74.01,36.37c.2.07.4.41.91.46,2.64,1.23-1.22,2.54,0,3.65-.08.03-.19.49-.59.4-.93-.21-2.28-3.06-2.15.06-.02-.12-.85-2.18-.91-2.28.8.53.83.51,1.37,0,.66-.62-.47-2.18-.91-3.19.81.21,1.49.65,2.28.91Z"/>
      <path class="cls-95" d="M69.9,35.46c-1.93,1.25-.82,1.49-1.05,2.43-.11.43-.56,1.54-.77,2.14-.86-1.73-.35-3.56-.46-5.48,1.33-.97,1.57.05,2.28.91Z"/>
      <path class="cls-90" d="M54.84,76.08c.74,1.52-1.21,4.46-2.74,5.48-.86,1.39-1.84,3.16-3.19,4.11.05-1.51-.09-3.06,0-4.56.11-2,.55-2.86.91-4.56,1.11-.74,1-.57.86.63-.13,1.12-.67,2.24-.4,3.48.89-.21.71-2.02.91-2.74.65-1.05,1.26-1.96,1.83-2.74.13-.37.4-.71.46-.91.66-1.35,1.27-1.66,1.83-.91.51.55.36,1.46-.46,2.74Z"/>
      <path class="cls-32" d="M60.31,72.43c-.98.4-1.14,1.4-1.96,2.01-.69.52-1.55.34-1.61.39-1.2,1.14-1.6,6.48-4.65,6.73.97-1.55,2.24-3.73,2.74-5.48l1.44-3.95c.33-.82.83-1.19,1.75-1.07,1.11-1.55,2.18-2,3.19-1.37.36.96,0,2.25-.91,2.74Z"/>
      <path class="cls-166" d="M58.94,77.9c-.04.07-.54.32-.81.77-.51.84-.11,2.29-1.47,1.97.55-3.13,2.57-5.41,3.65-8.22.34-.88.64-1.83.91-2.74-.37-.83.32-1.13.91-.46.21,1.33-.08,2.87-.86,4.61-.14,1.91-.92,3.27-2.34,4.06Z"/>
      <path class="cls-138" d="M63.05,70.15l.43.52c-.81,1.44-1.1,2.79-.89,4.04-.16.21-.25.3-.46.46-.1.08-.73-.16-.86.03-.21.3.09,1.35-.12,1.96s-.99.59-1.17.87c-.35.55.03,1.67-.82,2.15l-.22-2.28c1.39-2.61,2.52-5.79,3.19-8.67-.64-.6-.35-.85.46-.46,0,.07.54.59.46,1.37Z"/>
      <path class="cls-39" d="M46.62,51.43c.91-1.01,1.55.15,1.77,1.21.65-.67,1.28-.77,1.88-.3l.5.17c.5-1.4,1.35-1.31,2.24-.17.03.74-.27,1.65-.91,2.74-.4.47-2.27,2-2.3,2.15-.41,1.72,1.73,4.66-2.72,5.15,1.69-1.48,3.04-1.96,1.57-4.54-.9-1.58-2.61-.65-3.85-.93-.89-.6-.73-1.36.46-2.28-1.31-.38-.12-2.8.91-3.19.13-.4.28-.39.46,0Z"/>
      <path class="cls-116" d="M58.49,48.24c1.78.13,2.85.58,3.19,1.37.39.11.38.27,0,.46.12.2.21.4.23.61.01.17-2.25,1.54-2.51,1.68-1.51.04-1.42-1.19-1.37-2.28-1.13.3-2.84.94-3.65,1.83-.08.08.08.37,0,.46h-.46c-1.18-.25-1.89-.79-.91-1.83.47-1.05,1.44-1.53,2.91-1.46.73-1.13,1.43-1.71,2.11-1.73,1.2-.15,1.25,0,.46.91Z"/>
      <path class="cls-101" d="M53.92,52.34h.46c-.78.87-1.51,1.84-2.28,2.74-.16-1.08.22-1.94.91-2.74,0-.95.44-.74.91,0Z"/>
      <path class="cls-101" d="M55.75,52.8c.55,1.48.91,2.94-.91,3.19.15-1.19.09-2.13.91-3.19Z"/>
      <path class="cls-55" d="M62.14,51.43c2.09.43,2.52,3.11.42,4.24-1.37,2.79-2.27,5.79-2.7,9,.58.58.32.81-.46.46.38,1.58-.08,2.19-1.37,1.83.67-3.37.83-6.72.46-10.04.44-.85.56-2.61.91-3.65,1.03-2.21,1.94-2.82,2.74-1.83Z"/>
      <path class="cls-91" d="M53.92,60.56c.77-1.05,1.64-1.71,1.37-3.2,1.23-.15,1.15-.02,1.59.92.25-.42.89-.63,1.14-.91.82.61.61,1.62-.65,3.01l.19,1.55c.63.55.09,2.53-.91,2.28-.29.3-.44.15-.46-.46-1.48.51-1.05,1.73-1.43,2.23-.04.06-.78-.31-1.31.05-.29-2.36,1.88-3.46,2.28-5.71l-1.82.23Z"/>
      <path class="cls-114" d="M58.49,56.91c.44.58.85-.61.92.69.18,3.1-.84,6.35-1.38,9.35,1.65,1.02-.64,4.31-1.83,2.28.48-2.41,1.07-4.82,1.78-7.22l-.41-.08c-1.86-.82.14-3.2.46-4.56.14-.15.39-.33.46-.46Z"/>
      <path class="cls-162" d="M61.68,50.06c.68-.59,1.75.02,1.37.91.07,1.08-.23,1.23-.91.46-.73.24-1.31-.04-1.34.02-.3.52.38,1.59-1.4,1.8.08-.24-.09-.69,0-.91.44-1.12,1.9-1.9,2.28-2.28Z"/>
      <path class="cls-5" d="M42.06,51.89c1.34-.52,1.68,1.42.91,2.28-.69.34-.44,1.11-.46,1.83l-.92-2.74-2.27,1.37c-.09-.39.11-1.12,0-1.37-.26-1.07.83-2.53.91-3.19,0,2.02.62.25.91-.91-.62,1.6.69,2.25.91,2.74Z"/>
      <path class="cls-21" d="M49.36,65.12l.91.23c-1.53,2.35-6.48,2.24-2.28.23.44-.21.86-.43,1.37-.46Z"/>
      <path class="cls-12" d="M56.66,64.21c.54,1.59.24,3.42-.91,5.48,1.27.76.89,3.16-.46,3.65l-1.83.91c1.04-3.39,1.74-7.07,2.74-10.5.27-.09.52.15.46.46Z"/>
      <path class="cls-110" d="M53.01,75.17c-.46,1.3-.06,2.43-1.83,2.74.29-1.07.66-2.12.92-3.2l.91.46Z"/>
      <path class="cls-192" d="M65.79,59.65c-1.07-.07-1.68-.52-1.83-1.37-.62-1.55-.12-1.8.96-2.21l.41-.98c.38-.94.85-1.82,1.83-2.28.13,4.06,0,3.04-1.37,6.85Z"/>
      <path class="cls-93" d="M65.79,61.93c-.25.75-.59,2.54-.91,3.65-.54.92-1.25,1.96-2.28,2.28-.31.94-2.14,1.81-2.74.91-1.34-.7-.91-1.7,1.29-3.01.52-1.79,1.46-2.31,2.8-1.56-.34-2.89.27-4.41,1.85-4.56.08.75-.05,1.53,0,2.28Z"/>
      <path class="cls-114" d="M64.88,53.26c-.2,1.06-.64,2.07-.45,3.19.76.18.28-.87.91-1.37-.51,1.27-.83,2.03-1.37,3.19.86.89.77,1.1-.46.91l-1.09-.2c-.43,1.97-1.07,3.87-1.93,5.7l-.64-.02c-.59-2.03.56-3.34.89-4.82.18-.79-.08-1.73.13-2.61.63-2.63,3.61-2.54,1.27-5.81.2-.07.52-.51.91-.46.37-.36.84-.52,1.37-.46-.63-1.05-.19-1.66.91-1.83,1.23.84,1.08,2.37-.46,4.56Z"/>
      <path class="cls-42" d="M69.44,44.13c-.82,1.1-1.17,2.46-1.83,3.65-.52.16-.74.05-.64-.41.63-3.07.63-4.6.03-.4-.08.55-.2,1.55.16,1.72l.46.91c-1,1.14-1.69,2.55-2.74,3.65.39-2.08.81-2.63.46-4.56-.68-.35-1.13-1.11-1.37-2.28-.98-.37-.74-1.14.71-2.3.52.7,1.47.55,2.03.02-.54.06-.54-.39,0-1.37.14-.16.31-.3.46-.46.6-2.98,3.14.29,2.28,1.83Z"/>
      <path class="cls-103" d="M67.62,47.78c-.16.3-.28.62-.46.91-.22.36-.43,1.01-.91.91l.91-6.39c3.24.4-.81,2.98.45,4.56Z"/>
      <path class="cls-60" d="M69.44,41.39c.31,1.47,1.54,2.63.46,4.11,0-.07-.36-1.07-.46-1.37-.37-1.16-.21-1.88-1.6-2.74-.19-.07-.43.63-.68.91-.21-1.26.5-1.12.91-2.28.29.59.93.95,1.37,1.37Z"/>
      <path class="cls-125" d="M62.6,74.71c-1.91.49-.07-3.39.46-4.56l1.36-.46c.18.2-1.59,4.71-1.82,5.02Z"/>
      <path class="cls-133" d="M62.6,67.86c-.04.29.01.61,0,.91-.17.12-.29.35-.46.46-.25.17-.62.34-.91.46-1.08.44-2.29.54-3.19,1.37-.96-1.25.36-2.94,1.83-2.28.12-.08,2.59-.9,2.74-.91Z"/>
      <path class="cls-74" d="M64.88,65.58c-.29,1,.25,1.96-.92,3.19-.85.05.04-1.05-1.36-.91.2-1.43.88-2.34,2.28-2.28Z"/>
      <path class="cls-79" d="M46.62,25.87c1.15.02,1.13.93,1.03,1.88l.79-.05c.74.42,1.5.73,2.28.91l.83.64c-.39.69-.52,1.39-.37,2.1l.96,2.96c-1.33,2.45-2.26,2.68-2.79.7.1-.53,1.18-.89.72-1.83-.55-1.09-1.53-.52-2.1-.73-.46-.18-.95-1.08-1.13-1.08s-1.36,2.28-2.97,1.82c.77-1.93,2.22-1.8,2.31-2.1.17-.57.17-2.87-.48-3.37.28-.35.44-1.2.91-1.83Z"/>
      <path class="cls-76" d="M40.23,14.92c2.81-2.63,3.33,6.36,2.82,7.33-.75,1.42-2.03,2.4-2.36.43-.54-2.4-.71-5.21-.46-7.76Z"/>
      <path class="cls-186" d="M40.69,13.55c2.72-.99,1.39-.26,1.85,1.11.61,1.8.33,1.67.55,3.11.33,2.2,2.07,4.77-.58,6.28-.74.22-1.23,1.63-1.74.13-.18-.53,0-1.1-.08-1.5,1,.95,1.58-.52,1.73-1.24.17-.84.31-4.68.13-5.34-.03-.13-1.91-1.01-2.31-1.18.02-.25.35-.92.46-1.37Z"/>
      <path class="cls-170" d="M47.53,24.96c.07-.04.7.36,1.36-.46v1.38s.46-.46.46-.46c.13-.4.28-.39.46,0,.73,1.26.09,2.34-1.37,2.28-.51.85-.45,1.95-1.36,2.28l-.46-4.11c.36-.48.33-.55.91-.91Z"/>
      <path class="cls-144" d="M42.06,51.89l.23-2.28c.78-.55.76,1.96,1.59.91.87-1.1-1.39-4.94-.91-5.47l1.82.91c-.67-2.23-.44-4.54-.45-6.84,1.4-.22.7.33.91.91-.07.91-.11,1.82.9,2.18l.02,3.81c-.46.43,0,.73,1.38.91l-.93,4.05c.41.12.4.27,0,.46h-.46l-.89.21c-.24,2.3-1,3.14-2.3,2.53-.23-.27-.68-1.78-.91-2.28Z"/>
      <path class="cls-148" d="M51.64,31.35c-.03.89.25,1.48.77,2.17l3.34,3.3c.85.99.33,1.67-.91,1.37-.56-.32-1.17-.17-1.83.46-.08.39-.24.38-.46,0-1.71.78-2.62.78-2.74,0-.42-.05-.58-.5-.46-1.37-1.06.14-1.06-.32,0-1.37.02-.3-.05-.65,0-.91.75-.18.99.2.92.91,1.58-.7.69-3.08.9-4.56-.73-.88-.15-2.18.91-1.37.89.3.21.93-.46,1.37Z"/>
      <path class="cls-157" d="M45.25,40.02c.03-.09.5-.24.48-.67-.03-.67-1.34-1.61-.94-2.07.88-1,.77,1.17,1.36.91l-.45-2.28.92.91.92-1.37c1.16.52.7,2.48,1.82.46-.02.41-.06.99,0,1.37.3,1.17-.78,3.99-1.89,2.9-.38,3.22-2.42,3.07-2.22-.16Z"/>
      <path class="cls-88" d="M42.06,35.91c.09.07.39-.08.46,0,1.02,1.12.98,3.12.91,4.56-.46,1.36-1.07.9-1.83-1.37-.19-1.16-1.4-3.51.46-3.19Z"/>
      <path class="cls-8" d="M41.6,39.11c.87.37.74,1.65,1.83,1.37l-1.36,5.93c.17-2.58-.04-4.8-.46-7.3Z"/>
      <path class="cls-179" d="M33.84,55.54c-2.06,4.26-5.02,8.01-7.76,11.87-.26-1.59,1.04-3.09,1.37-4.11l1.38-3.87c-1.5.31-.65-.36-.92-.69.02-.55.83-1.12.91-1.37l1.36.22-.68,2.52c1.64-1.86,2.81-3.71,3.88-5.93l.91-.46c.29.68-.44,1.48-.45,1.83Z"/>
      <path class="cls-141" d="M35.21,53.26c0-.05-.4-.31-.39-.67.02-.92.63-1.95.39-2.99.26-.38.42-.76.91-.91-.35,1.34-.06,3.36-.91,4.56Z"/>
      <path class="cls-137" d="M49.36,21.31c.04,2.28,1.3-1.4,3.1-.79,1.46.5.6,2.81.56,3.99.71.03.51-.85,1.19-1.31.37-.25,2.22-1.21,2.46-.96.07,1.95-1.82,3.09-2.74,4.56v.46c-.11.39-.26.37-.46,0-.62.76-1.76,2.04-2.74,1.37-.38.33-.42.88-.47.9-.8.34-1.83-.94-1.82-1.82.44-.74.91-1.55,1.37-2.28-.45-.96,2.71-3.93.99-1.99l-.54-.29c-2.26-.69-1.12-.72-.91-1.83Z"/>
      <path class="cls-9" d="M50.27,23.13c.24-.27.9-.49,1.14-.91.76,1.12-1.15,2.47-1.6,3.19h-.46c-.08-.9.35-1.64.91-2.28Z"/>
      <path class="cls-140" d="M54.84,28.61c1.43-.54,2.77-1.41,4.04-2.62,2.77-1.7,1.42,2.71-.39,3.53.57.63.3.86-.46.46-.25.57-.99,6.71-2.74,5.02v-1.37c-.6,1.01-2.25-.42-2.29-.76-.2-1.77,2.08-3.53,1.83-4.25Z"/>
      <path class="cls-26" d="M54.84,28.15c2.71-1.15,6.11-4.2,8.92-5.01.86-.25.6.14.67.66.1.74.12,3.54-.46,3.89-.17.1-.81-.11-.91,0-.11.12,1.62,2.29.69,3.2-1.31,1.04.03-1.55-2.06.45.49-2.09,1.17-2.38.45-4.56h-.6c-.91,3.09-1.93,4.01-3.05,2.74,3.55-6.6-1.18-2.85-2.51.91.11-2.19-1.04-1.71-1.14-1.82-.23-.14-.23-.29,0-.46Z"/>
      <path class="cls-171" d="M58.49,36.83c-.57,2.09-1.16,4.03-1.83,5.93l-.91-.46c-.55-.37-.85-.37-.91,0,0,1.28-1.24,1.65-1.83.46-.76-.83.64-2.1,1.37-2.74.2-1.04.78-1.59,1.82-1.66.31-1.33.92-2.15,1.83-2.45h.46c-.08.24.07.65,0,.91Z"/>
      <path class="cls-127" d="M58.03,35.91c.05.59-1.26,3.48-1.41,3.6-.09.07-1.62-.62-2.24.51v-.46c-.39-.13-.39-.28,0-.46-.65-.66-.46-1.04.46-.91.12-.22.73-1.13.91-1.37.62-.81,1.32-1.57,2.06-2.28l.23,1.37Z"/>
      <path class="cls-41" d="M62.14,26.79c-1.61,1.63-.83,4.2-2.97,5.47l-1.14-2.28c.1-.23.26-.33.46-.46.5-.31,1.46-.3,1.71-.56.39-.4.47-2.62,1.71-3.09.45-.02.14.64.23.91Z"/>
      <path class="cls-59" d="M54.84,28.15c.08.07-.07.37,0,.46-.02-.05-.86-.49-.9-.46-.32,1.24-.8,3.16-2.29,3.2,0-.28.5-.92.46-1.37-.88-1.07.35-2.25,1.37-2.74.16,0,.35-.04.46,0s.68.7.91.91Z"/>
      <path class="cls-78" d="M56.66,42.76c-.46,1.31-1.13,4.04-1.83,5.02.42,1.38-.61,2.08-1.83,1.37-2.51,1.15-2.68-1.37-.84-2.84-2.95.11-.77-3.66.84-3.55.61-.13,1.21-.38,1.83-.46.38-1,.45-.96.91,0,.81-.25.98-1.09.91.46Z"/>
      <path class="cls-104" d="M64.42,43.22c.55-.32,1.31-.02,2.28.91-.2.88-.41,1.27-1.14,1.82l-1.13-1.37c-.18.46-.25,1.52-.46,1.82.22,1.22-.08,1.37-.91.46-.16.39-.31.39-.46,0-.9-.19-1.66.27-2.28,1.37-.47.45-1.08.45-1.83,0-.09-.09-.46-.84-.46-.91-.1-.58-.26-1.04-.46-1.37.89-1.35,1.05-2.4,3.19-2.28.15.15.32.29.46.46-.2.72,2.45.76,1.37,0,.42-.64,1.1-.87,1.83-.91Z"/>
      <path class="cls-102" d="M57.57,45.96c1.84-.22.46.92.46,1.37-1.58,1.79-2.37,3.03-5.02,3.19.62,1.99-2.36,1.44-.91-.91-.15-.44.15-.59.91-.46.39-.42,1.56-1,1.83-1.37.54,2.82,1.94-.62,2.74-1.83Z"/>
      <path class="cls-131" d="M64.42,42.76l1.37-.46.23,1.38c.25.03.43-.63.68-.92-.06.43.09.98,0,1.37-1.36,1.1-.72-1.01-2.28-.91v-.46Z"/>
      <path class="cls-96" d="M62.6,44.13c.72-.01,2.07-.9,1.82.22-.66,1.52-5.3.41-4.56-.22.45-.03.92.03,1.37,0s.92,0,1.37,0Z"/>
      <path class="cls-183" d="M63.96,58.28c1.35.35,1.68.02,1.83,1.37-.18.48-.64.85-.81,1.69-.2,1,.13,2.66-.31,3.35-.65,1.01-2.24-.23-2.52-.02-.09.06-.1.91-.35,1.25-.78,1.05-1.98,1.24-1.95,2.86-1.02.65-1.33,1.57-1.83,2.28-1.11,1.61-1.98,3.47-3.19,5.02.04-.14.34-2.06.46-2.74.23-1.31.22-2.47.46-3.65l.46-.46c1.65.08,1.38-1.53,1.83-2.28.39-.65,1.19-1.5,1.37-1.83.55.38,1.02.05,1.41-.99l1.64-4.81,1.06-.13c.14-.3.31-.6.46-.91Z"/>
      <path class="cls-163" d="M54.38,39.57c-.06.12.06.34,0,.46-.49.92-.79,1.77-1.37,2.74-.17.29-2.06,2.55-1.83,2.73l2.28-.45c.44,2.4-3.7,3.09-.45,4.1-.29.32-.83.37-.91.46.15,1.82-.46,2.73-1.83,2.74-.43.44-2.78,2.23-3.19,1.82,1.15-1.88-.37-2.44-.46-2.74-.04-.14.05-.32,0-.46l.82-3.15c-.73-.83-.08-1.35,1-1.41l-.39-.52c.42-1.09,5.25-6.61,5.7-6.57.22.02.42.12.63.24Z"/>
      <path class="cls-145" d="M42.97,54.17c.15-.07.71.16.86-.04.16-.22.69-5.93,2.01-3.49.09.17.32.68.32.79.11,1.69-.9,2.22-.91,3.19-.91,0-1.64.29-2.28-.46Z"/>
      <path class="cls-18" d="M52.1,49.61v1.37c.06.07.86-.49.91-.46.09.05.93,1.54.91,1.83h-.91c-.61,0-1.22,0-1.83,0l.46.91c-1.08.04-1.58.31-1.37-.91.78-.81,1.16-2.03,1.83-2.74Z"/>
      <path class="cls-162" d="M63.05,46.87c1.56.2,1.06,1.86-.46,1.37-.08,1.27-.39,1.72-.91,1.37-.97-.3-2.5-.64-3.19-1.37.61,0,1.22,0,1.83,0,.4-.88,1.21-2.02,2.28-1.37.1-.07.35.07.46,0Z"/>
      <path class="cls-31" d="M62.6,48.24c1.79.65,2.4,1.41,1.83,2.28-.51.78-.12,1.68-1.37,1.37-.07-.26.08-.82,0-.91-.38-.42-.93-.58-1.37-.91.08-.08-.07-.35,0-.46.26-.36.59-.9.91-1.37Z"/>
      <path class="cls-180" d="M63.51,59.19c-.92,1.96-1.64,5.04-3.16,6.55-.77.77-1.13.22-.95-.62.08-.15.34-.28.46-.46,1.45-2.36.86-3.6,1.47-5.61.27-.88,1.87-1.74,1.73-3.06l.45,3.19Z"/>
      <path class="cls-4" d="M56.21,69.23c-.11.18-.3.31-.46.46.34-1.71.45-3.79.91-5.48.13-.49.66-1.5.91-2.28.23-.7.28-2.2.91-2.28.15,3.02-.72,6.96-2.28,9.58Z"/>
      <path class="cls-158" d="M65.33,48.69c.07.91-.54,1.26-.91,1.83-.64-1.4-2.31-.29-1.83-2.28.32-.46.64-.63.46-1.37.25-.16.82-.33.91-.46,1.75-.01,1.18,1.24,1.37,2.28Z"/>
      <path class="cls-153" d="M53.47,27.24c-.04,1.14-.87,1.85-1.37,2.74-.16.29-.73.13-.91,1.37-1.41-.45-.52-1.64-.46-2.74.97-.85,1.03-1.42,2.74-1.37Z"/>
      <path class="cls-57" d="M49.82,38.65l.34.95c-.96,2.04-1.79,4.71-1.7,6.8-.95,1.64-.52,3.67-1.83,4.56-.55-1.57.24-2.16.45-3.65l-1.82.45c0-1.74,0-3.5,0-5.24,0-1.23-.53-1,0-2.52.19.55.13,1.84.91,1.82.59-1.91.4-4.6,2.28-1.82l.92-2.74c.03.2.69.81.46,1.37Z"/>
      <path class="cls-51" d="M52.55,38.65c.07.26.23.23.46,0,.75-1.04,1.28-.77,1.37.46-.06.13.06.34,0,.46l-2.66,2.56c-.54,1.59-2.57,3.08-3.27,4.28-1.41.22-.9-.58-.79-1.47.19-1.53,1.03-5.51,2.16-6.29.1-.07.61.15.82-.07.33-.35.68-3.6,1.23-3.58.5,1.28-.71,2.61.68,3.66Z"/>
      <path class="cls-189" d="M53.01,38.65c-.24,1.56-.9,2.64-2.51,3.2-.56-.82,1.46-3.05,2.05-3.2.12-.03.32,0,.46,0Z"/>
      <path class="cls-69" d="M54.84,38.2c-.17.32-.3.58-.46.91-.45.04-1.07-.44-1.37-.46.16-1.06-.52-3.39,1.4-2.08.45.31.47,1.1.43,1.62Z"/>
      <path class="cls-94" d="M55.75,42.3c-.82.25-.8-.01-.91,0-.41-.39-.16-2.28.23-2.29l.68,2.29Z"/>
      <path class="cls-128" d="M62.6,46.87c-1.06.8-1.22,1.37-2.28,1.37,0-1.96.9-3.47,2.28-1.37Z"/>
      <g>
        <path class="cls-64" d="M44.79,56.91c4.25-3.58,7.23,4.04,2.28,5.48v1.37c-3.23.76-4.76.59-7.3-1.83-.53-.77-.56-1.13.46-.91,1-.41.08-1.37-.91-1.37-1.45-.68-.43-6.48,1.8-3.7.4-.5.84-.35,1.39.05.25-1.73,2.77-.77,2.28.91Z"/>
        <g>
          <path class="cls-27" d="M39.32,53.26c1.06.05.94.58.12,1.02,1.65-3.42,3.21-1.16,3.08,1.71-.58.29-.88,1.1-2.02.95-.22-.03-.37-1.8-1.17-.95-.39.42-.33,2.87,0,3.65.9-.39,1.51.66.91,1.37l-.46.91c-1.77-1.68-1.49-1.97-1.37-4.56.36-1.42.68-2.53.46-4.11.15-.4.3-.4.46,0Z"/>
          <path class="cls-129" d="M43.88,61.02c-.3-.41-2.27,0-.89-2.72,1.77.15,2.67,1.19,4.55.45.12.07-.49.87-.46.91.6,1.06-2.46,1.96-3.19,1.37Z"/>
          <path class="cls-72" d="M47.08,59.65c.04.06,1.35.24,1.36.68.02.74-3.93,1.7-4.78,1.6-.51-.07.28-.84.22-.92l3.19-1.37Z"/>
          <path class="cls-48" d="M45.25,54.63c0,.36,1.34,1.04-.45,1.67v.62c-1.1-.25-.8-1.66-2.29-.91-.49-1.63-.34-2.23.46-1.83l.61.21c.37-1.02,1.34-.83,1.68.24Z"/>
          <path class="cls-73" d="M39.32,59.65l.9-1.37,1.84,3.42c-.35.67-1.54-.41-1.83-.68-.21-.19-.79-1.09-.91-1.37Z"/>
        </g>
      </g>
    </g>
    <g>
      <path class="cls-155" d="M50,2C22.39,2,0,24.39,0,52s22.39,50,50,50,50-22.39,50-50S77.61,2,50,2ZM50,98c-25.41,0-46-20.59-46-46S24.59,6,50,6s46,20.59,46,46-20.59,46-46,46Z"/>
      <path class="cls-177" d="M50,0C22.39,0,0,22.39,0,50s22.39,50,50,50,50-22.39,50-50S77.61,0,50,0ZM50,96c-25.41,0-46-20.59-46-46S24.59,4,50,4s46,20.59,46,46-20.59,46-46,46Z"/>
      <path class="cls-35" d="M50,1C22.39,1,0,23.39,0,51s22.39,50,50,50,50-22.39,50-50S77.61,1,50,1ZM50,97c-25.41,0-46-20.59-46-46S24.59,5,50,5s46,20.59,46,46-20.59,46-46,46Z"/>
    </g>
  </g>
</svg>