<?xml version="1.0" encoding="UTF-8"?>
<svg id="Calque_2" data-name="Calque 2" xmlns="http://www.w3.org/2000/svg" viewBox="0 0 49.87 67.19">
  <defs>
    <style>
      .cls-1 {
        fill: #4c453f;
      }

      .cls-2 {
        fill: #beb1a6;
      }

      .cls-3 {
        fill: #685e54;
      }

      .cls-4 {
        fill: #ccc0b5;
      }

      .cls-5 {
        fill: #8a7562;
      }

      .cls-6 {
        fill: #382e25;
      }

      .cls-7 {
        fill: #928c7f;
      }

      .cls-8 {
        fill: #bfb8ab;
      }

      .cls-9 {
        fill: #867c6f;
      }

      .cls-10 {
        fill: #656159;
      }

      .cls-11 {
        fill: #595042;
      }

      .cls-12 {
        fill: #b0a498;
      }

      .cls-13 {
        fill: #cfc0b1;
      }

      .cls-14 {
        fill: #564e46;
      }

      .cls-15 {
        fill: #d4cbc1;
      }

      .cls-16 {
        fill: #b6a695;
      }

      .cls-17 {
        fill: #cdbdaf;
      }

      .cls-18 {
        fill: #574e45;
      }

      .cls-19 {
        fill: #857462;
      }

      .cls-20 {
        fill: #cec0b5;
      }

      .cls-21 {
        fill: #c4b2a0;
      }

      .cls-22 {
        fill: #857a6e;
      }

      .cls-23 {
        fill: #9c9389;
      }

      .cls-24 {
        fill: #bfb6ae;
      }

      .cls-25 {
        fill: #a9998b;
      }

      .cls-26 {
        fill: #b19f8f;
      }

      .cls-27 {
        fill: #b1a395;
      }

      .cls-28 {
        fill: #807364;
      }

      .cls-29 {
        fill: #4e453b;
      }

      .cls-30 {
        fill: #150e0b;
      }

      .cls-31 {
        fill: #4c4439;
      }

      .cls-32 {
        fill: #998e7e;
      }

      .cls-33 {
        fill: #bfae9f;
      }

      .cls-34 {
        fill: #443c33;
      }

      .cls-35 {
        fill: #beb6ae;
      }

      .cls-36 {
        fill: #655b4f;
      }

      .cls-37 {
        fill: #8c7f73;
      }

      .cls-38 {
        fill: #5f5144;
      }

      .cls-39 {
        fill: #b2a9a0;
      }

      .cls-40 {
        fill: #544a40;
      }

      .cls-41 {
        fill: #d5c5b7;
      }

      .cls-42 {
        fill: #796654;
      }

      .cls-43 {
        fill: #756c5f;
      }

      .cls-44 {
        fill: #3f362f;
      }

      .cls-45 {
        fill: #93887a;
      }

      .cls-46 {
        fill: #1b120b;
      }

      .cls-47 {
        fill: #1c150f;
      }

      .cls-48 {
        fill: #9a9086;
      }

      .cls-49 {
        fill: #2c261d;
      }

      .cls-50 {
        fill: #bbb2a7;
      }

      .cls-51 {
        fill: #918478;
      }

      .cls-52 {
        fill: #6a5e50;
      }

      .cls-53 {
        fill: #e5d7c8;
      }

      .cls-54 {
        fill: #a79788;
      }

      .cls-55 {
        fill: #5d5043;
      }

      .cls-56 {
        fill: #1b130b;
      }

      .cls-57 {
        fill: #897b6c;
      }

      .cls-58 {
        fill: #93877c;
      }

      .cls-59 {
        fill: #6a5a4a;
      }

      .cls-60 {
        fill: #b7aa9c;
      }

      .cls-61 {
        fill: #ddd7d0;
      }

      .cls-62 {
        fill: #948374;
      }

      .cls-63 {
        fill: #e0d1c3;
      }

      .cls-64 {
        fill: #897762;
      }

      .cls-65 {
        fill: #7a7a76;
      }

      .cls-66 {
        fill: #c2b1a1;
      }

      .cls-67 {
        fill: #544f42;
      }

      .cls-68 {
        fill: #6e6256;
      }

      .cls-69 {
        fill: #473e35;
      }

      .cls-70 {
        fill: #bfaea0;
      }

      .cls-71 {
        fill: #716254;
      }

      .cls-72 {
        fill: #766e64;
      }

      .cls-73 {
        fill: #b8a89b;
      }

      .cls-74 {
        fill: #937f69;
      }

      .cls-75 {
        fill: #786e61;
      }

      .cls-76 {
        fill: #a39384;
      }

      .cls-77 {
        fill: #c4b9aa;
      }

      .cls-78 {
        fill: #d9c6b4;
      }

      .cls-79 {
        fill: #d3c6b6;
      }

      .cls-80 {
        fill: #65523c;
      }

      .cls-81 {
        fill: #4f433c;
      }

      .cls-82 {
        fill: #68584f;
      }

      .cls-83 {
        fill: #66594c;
      }

      .cls-84 {
        fill: #75675a;
      }

      .cls-85 {
        fill: #605648;
      }

      .cls-86 {
        fill: #a39888;
      }

      .cls-87 {
        fill: #e1d1c4;
      }

      .cls-88 {
        fill: #5a5249;
      }

      .cls-89 {
        fill: #63584f;
      }

      .cls-90 {
        fill: #8a8177;
      }

      .cls-91 {
        fill: #6e655b;
      }

      .cls-92 {
        fill: #a79d8f;
      }

      .cls-93 {
        fill: #7e6e5f;
      }

      .cls-94 {
        fill: #877d70;
      }

      .cls-95 {
        fill: #e1d4c7;
      }

      .cls-96 {
        fill: #d0c1b3;
      }

      .cls-97 {
        fill: #b9aea2;
      }

      .cls-98 {
        fill: #7b746a;
      }

      .cls-99 {
        fill: #a19183;
      }

      .cls-100 {
        fill: #d5d0c9;
      }

      .cls-101 {
        fill: #3c3329;
      }

      .cls-102 {
        fill: #46372a;
      }

      .cls-103 {
        fill: #786c5d;
      }

      .cls-104 {
        fill: #b1a498;
      }

      .cls-105 {
        fill: #9a8573;
      }

      .cls-106 {
        fill: #ddd8d1;
      }

      .cls-107 {
        fill: #4f4436;
      }

      .cls-108 {
        fill: #7b6d61;
      }

      .cls-109 {
        fill: #c2b2a4;
      }

      .cls-110 {
        fill: #231e19;
      }

      .cls-111 {
        fill: #3d3023;
      }

      .cls-112 {
        fill: #8d8277;
      }

      .cls-113 {
        fill: #dacdbf;
      }

      .cls-114 {
        fill: #8f8378;
      }

      .cls-115 {
        fill: #d8cfc6;
      }

      .cls-116 {
        fill: #473b2c;
      }
    </style>
  </defs>
  <g id="Chevre_final">
    <g>
      <path class="cls-1" d="M6.98,62.17c.05,1.65.29,3.37.46,5.02,1.06-.5,1.92-1.81,1.85-2.97-.11-1.78-2.05.22-2.31-2.05Z"/>
      <path class="cls-2" d="M14.44,66.56c.15-.14.35-.28.46-.46.85-1.42,1.48-3.23,1.87-5.07-.54.39-1.09.76-1.64,1.11-.28,1.45-.41,3.05-.68,4.42Z"/>
      <path class="cls-72" d="M2,40.74c.17,1.33.15,4.85-.01,6.19-.63,1.91,1.4,2.12.65.23l.22-1.15c.94-3.91.13-4.99-.43-8.22"/>
      <path class="cls-34" d="M15.21,26.47c-.48-3.11-1.44,2.15-3.92,1.64-2.01-.42-1.31-3.75-1.47-5.36-.93.09-.51,1.25-1.31,2.01-.43.41-2.7,2.05-3.05,1.76-.46-2.66,1.81-4.56,2.74-6.73l-.08-.62c.07-.55.27-.56.6-.08.68-1.15,1.94-3.11,3.34-2.36.43-.52.38-1.29.44-1.32.99-.61,2.58.97,2.72,2.16-.44,1.1-.91,2.29-1.37,3.37.77,1.23-2.83,5.86-.93,2.91l.76.3c3.1.54,1.61.79,1.54,2.34Z"/>
      <path class="cls-88" d="M18.81.47c-.31,1.01-1.97,1.05-2.68.54l-1.43.37c2.11.37,1.68,2.36-.46,1.83-.82.43-1.62,0-2.4-1.26-1.11,1.16-3.66,3.6-4.9,2.18C7.91,2.24,9.5,1.32,11.05.01c2.9-.05,5,.06,7.76.46Z"/>
      <path class="cls-75" d="M14.7.2h1.83c-.64.69.02,1.62,0,1.83-.19,1.5-.49,1.7-1.83,2.28.56,1.34-.83,1.88-1.37.46.03-.65-.12-1.32.09-1.97.19-.6.67-.59.83-.77.39-.46.65-.95,1.37-.92v-.45s-1.37,0-1.37,0c-.08-.51.42-.42.46-.45Z"/>
      <path class="cls-70" d="M40.26,10.88c1,.77,1.86,1.88,2.74,2.74,1.62,2.04-2.4,1.4-3.6.55-1.43.96-2.94,1.91-4.48,2.74-.45-.25-.95.03-1.5.82-.11.41-.26.4-.46,0-1.65.68-5.12-.31-3.65-2.74-.41-.11-.4-.26,0-.46.94-.81,1.83-1.78,2.67-2.9.06-1.07.92-1.26,1.84-.96.65-.98,1.88-1.52,3.7-1.62.89.61,1.88,1.17,2.74,1.83Z"/>
      <path class="cls-70" d="M45.78,14.2c.36.98.48,2.03.73,2.98.25,1.97-2.25-.81-2.71-1.95-1.39-.42-2.83-.9-4.25-1.45-.2-.39-.66-.57-1.38-.53-.25.13-.35.03-.31-.28-1.43-.69-3.39-3.29-1.35-3.54-.24-.31-.17-.37.19-.22.99.19,2.01.27,3.07.26.49-.47,1.17-.04,1.68.68.86-.07,1.94.43,3.23,1.5.36.84.8,1.71,1.11,2.55Z"/>
      <path class="cls-51" d="M44.82,15.44c.98,1.1,2.4,2.21,2.74,3.65-.03-.01-.4.47-.62.35-1.45-.75-3.89-2.91-5.55-2.89-.29,0-4.56.85-4.79.95-1.52.67-2.65,5.22-6.39,3.42-.85.42-1.96-.99-1.37-1.83.99-1.45,2.09-1.81,3.31-1.07-.72-.37-.02-.51.79-.3.12-.05.31.05.46,0-.02-.23-.02-.44.04-.64.07-.21,3.17-1.37,3.54-1.3,1.94-1.88,2.59-1.8,4.86-.87,1.29-.38,1.75-.31,2.97.53Z"/>
      <path class="cls-25" d="M33.41,17.72l-.45-3.19,2.28,1.82v-2.73s1.38,1.82,1.38,1.82c1.77-.35.27-2.97.45-3.19,1.02-1.21.85,1.3.91,1.37.22.21,1.48-.58,1.99-.5.43.06.37,1.11,1.03,1.35.58.2,2.37.54,2-.85.69.67,1.14,1.06,1.83,1.83l-5.24-.45c-.98.87-2.38,1.06-3.41,1.62-.35.19-.39.94-.56,1.04-.12.08-1.15-.27-2.2.07Z"/>
      <path class="cls-110" d="M14.33,59.26c-.19-.95-.72-.92-.91,0-.69-.76-3.45.45-3.65,1.37-1.68-.22-3.45-.63-5.39-1.41-.53-.21-1.42-.51-1.91-.42-.64-1.49-1.12-2.86-1.37-4.56-.25.09-.48.22-.69.36.73,3.36,1.12,6.86,2.92,9.06.12.07.23.15.36.22,2.47,1.23,4.89,1.61,7.26,1.37-.14-.26-.86-.36-2.21-.31l-.35-.65c-.48-.86-.35-1.27.2-1.96,1.34.09,2.49-.17,3.45-.78.92.72,1.14.76.91-.46,1.64,1.12,3.6-2.17,1.37-1.83Z"/>
      <path class="cls-14" d="M31.59,47.3c.39-.22.41-.37,0-.46.18-.36.18-.66,0-.91-.24-1.18-.55-1.33-.91-.46-.97.48-1.12,1.39-.46,2.74-.49.4-.73,1.72-.63,2.91.96-.99,1.91-1.98,2.84-2.94l-.84-.88Z"/>
      <path class="cls-25" d="M36.61,8.59c.21.14.55.21.91.46-.75,1.95-2.54.7-2.74.91v1.83s-2.28-.45-2.28-.45l.45,2.28c-2.31-1.49-1.46,1.15-3.65.91-1.4.24-1.6-1.26,0-.91-.8-1.92-.21-2.59,1.78-2.01.38-1.42,1.03-2.11,2.15-2.9.81-.57,2.46-.34,3.38-.11Z"/>
      <path class="cls-89" d="M34.78,7.68c.63.37,1.26.55,1.83.91-1.27.22-3.94.79-4.78,1.85-.69.86.43,1.82-2.52,1.35l.92,1.59c.02.47-.65.15-.92.23-1,.79-1.26.89-1.83-.46-.26-.7.36-1.34.91-1.83.18-.12.41-.85.91-.91,1.03-.07,1.71-.94,2.28-1.83,1.06-.48,1.99-.94,3.19-.91Z"/>
      <path class="cls-89" d="M43.8,10.55c.08.72.31,1.34.36,2.01-.94-.88-2.99-2.68-4.34-2.73-1.1-.04-1.2,1.43-2.59-1.22l-.72,1.69c-.36.3-.51-.43-.74-.6-1.23-.33-1.47-.48-.73-1.74.4-.62,1.29-.51,2.01-.36.21.07.92-.18,1.28.19.67.78,1.78.81,2.83.74,1.02.56,1.94,1.04,2.64,2.02Z"/>
      <path class="cls-89" d="M47.59,17.64c-.41.6-.64,1.22-1.04,1.76-.13-1.28-.51-3.98-1.5-4.9-.81-.75-1.85.3-1.17-2.62l-1.65.8c-.47-.01-.1-.66-.17-.93-.72-1.06-.8-1.32.59-1.79.71-.21,1.31.46,1.76,1.04.11.19.82.47.84.98,0,1.03.82,1.77,1.66,2.41.41,1.09.79,2.05.68,3.25Z"/>
      <path class="cls-89" d="M20.78,15.77c-1.09.09-1.94.44-2.96.48.89-1.49,2.63-4.78,1.99-7.01-.52-1.82-2.87-2.07.54-4.21l-3.02-1.29c-.66-.62.41-.81.55-1.18-.13-2.02-.03-2.4,2.34-1.1,1.19.7,1.48,2.16,1.62,3.34,0,.33.77,1.54.38,2.1-.87,1.07-.33,2.89.33,4.63-.34,1.65-.6,3.15-1.77,4.25Z"/>
      <path class="cls-53" d="M49.39,27.31c-2.7,2.61-2.32,2.07-5.48,3.65-2.43,1.02-4.71,1.48-6.85,1.37l-.3-.97c.59-.67.54-1.41-.16-2.23-.4-.13-.39-.28,0-.46-.04-.98,1.94-1.19,2.74-.91.61,0,1.22,0,1.83,0,1.39-.54,2.4-.39,3.01.44,1.27-.97,2.39-1.27,3.38-.9.28-1.41,2.73-1.6,1.83,0Z"/>
      <path class="cls-13" d="M43.91,30.96c-.38.19-.72.64-1.37.91-.83.35-1.29.88-1.37.91-.66.75-2.22,2-2.74.46-.91.31-2.2.18-1.37-.91,2.42-.36,4.3-2.36,6.85-1.37Z"/>
      <path class="cls-8" d="M46.65,26.39c1.01-.17,3.49-1.46,3.19.46-.15.15-.3.31-.46.46.38-1.44-.75-.56-1.83,0-.56-.07-.87-.38-.91-.91Z"/>
      <path class="cls-55" d="M27.02,19.55c1.46-.98,3.8,2.68,3.58,4.36-.25,1.47-.23,2.9.08,4.31v.46c.54,1.18-.36,1.72-1.37.91l-.88-.44.2,6.99c-.11,1.5-1.31,2.85-2.06,1.21-1.09,2-5.3,2.48-2.74,0-.19-.58-.65-.58-1.37,0,.61.62.34.88-.46.46-3.69-.38-.51-3.85,1.18-5.22-.33-.3-.35-.74-.27-1.17l.09-1.01c2.32.22,3.5-.51,3.56-2.19-.69-.54-.4-1.13.46-.91l.13-1.49c-.74-.75-1.05-5.25-.77-6.04.05-.13.31-.19.64-.22Z"/>
      <path class="cls-107" d="M30.67,28.68c2.47-.92,7.31-1.29,10.04-1.82.08.55-.88.69-1.37.91-.96.43-1.83.58-2.74.91-2.15.79-2.78,1.74-3.19,3.65,1.3.84,3.25,2.7.91,3.19-1.23-.02-3.66-1.89-2.74-3.19-.65.29-1.41-.02-2.28-.91-1.24-.33-1.22-1.5,0-1.83.46-.22.93-.75,1.37-.91Z"/>
      <path class="cls-68" d="M28.85,19.09c.42.52,1.11,1.29,1.37,1.83,1.29,2.72.27,4.41.46,7.3-1.13-1.46-.03-4.03-.45-5.61-.06-.21-2.88-2.95-3.2-3.07-.24,1.19-.44,1.13-.91,0-1.04-.82-.98-2.15.46-2.28.13-.39.29-.39.46,0,1.1-1.1,2.68.59,1.83,1.83Z"/>
      <path class="cls-113" d="M46.65,26.39c.97-.11,1.02-.06.91.91-.73.38-2.81,1.84-3.44,1.85-1.07,0-.26-1.38-2.95-1.39,1.6-.99,3.69-1.06,5.48-1.37Z"/>
      <path class="cls-25" d="M32.95,17.72c-.2.09-.4.9-.74.91-.37,0-1.36-.64-1.54-.45-.38.39,1.04,2.16-1.83.92-.64-.79-.85-1.26-1.83-1.83-.73-1.01-.27-1.46,1.37-1.37-.13-.9.07-1.32.91-.91.87,2.41,1.52,1.87,3.65,2.74Z"/>
      <path class="cls-22" d="M29.3,13.61c-.15.05-.41-.06-.44.23.14.21.4.47.44.69.03.16-.04.34,0,.46-.33.28-.6.62-.91.91-1.67-.82-2.13-1.73-1.37-2.74.13-.4.28-.39.46,0l1.83.46Z"/>
      <path class="cls-106" d="M16.07,48.76c-.32.17-.33.32,0,.46-1.33.3-1.95,1.48-2.28,2.74-1.13-.74-3.19,1.23-3.05,2.42,1.09,2.39.67,4.03-1.97,4.88-.45.39-1.24.66-1.37,1.36h1.37c1.19-.27,2.53-.93,3.65-1.36,1.41-1.15,2.82-2.31,4.22-3.51l.12-1.41c1.09-.26.82-1.21-.23-1.48.74-.78,1.05-1.85.91-3.19,1.72-1.08.2-2-1.37-.91Z"/>
      <path class="cls-4" d="M13.33,59.26c1.26.93,2.86-.24,2.28-1.83,1.31-.27,2.06-.92,2.25-1.94.61.36,1.23-.05,1.86-1.25.79.47,1.06.22.46-.46,1.55-.01,1.99-2.72.91-3.65.74-.31.87-.95,0-.91-.68-3.63-2.47-3.44-5.1-1.22-.11.09-.04.4.07.77,1.76-.25,1.11.23,1.37.91.07,1.25-.24,2.32-.91,3.19-.11.87.08,1.85,0,2.74-2.15-.92-1.35.54-1.94,1.25-.49.59-2.15.27-2.17,2.4.21-.08.63.05.91,0Z"/>
      <path class="cls-84" d="M15.15,62.91c1.69-1.8,5.15-8.36.46-5.48-1.03,1.39-2.27,1.67-2.28,1.83,0,.03.38-.07.45.23-.53.46-1.25,1.3-1.82,1.6.23,1.05.13,1.93-1.3,2.81l.39.39.66.6s-.03.06-.04.09c1.16-.26,2.31-.67,3.44-1.18.07-.33.09-.63.05-.87Z"/>
      <path class="cls-40" d="M12.87,63.36c-.64.44-1.08.66-1.82.91-1.17-.06-2.39-.06-3.65,0,.05.03-.14.64.08.82.61.48,1.24-.26,1.56.21,1.24-.04,2.47-.25,3.68-.61.18-.62.28-1.15.15-1.33Z"/>
      <path class="cls-23" d="M11.96,61.08c-.21.11-.78.41-.91.46-.39.17-.4.33,0,.46-.04.8-1.84,1.71-1.37.46-1.65-.62-4.73.06-2.28,1.83.43.97,2.84.27,3.65,0,.6-1.25,3.05-2.2.91-3.19Z"/>
      <path class="cls-10" d="M3.75,62c-.25,1.25.33.78.92,1.1.75.4,2.11.78,2.73,1.18-.15-.34.1-1.32,0-1.82h2.28c.51.68,1.44.36,1.37-.46v-.46c-1.96.64-5.3.95-7.3.46Z"/>
      <path class="cls-97" d="M15.15,62.91c-.48.33-.84.81-1.16,1.34,1.23-.47,2.44-1.08,3.63-1.8.09-.61.2-1.21.27-1.82-1.02-.63-1.93.13-2.74,2.28Z"/>
      <path class="cls-19" d="M30.51,51.56c-.36-.63-.72-1.22-1.07-1.68-1.38-3.72-2.79.74-.95.95.04,1.49.3,3.21.81,4.71.42-1.33.83-2.67,1.22-3.99Z"/>
      <path class="cls-77" d="M27.02,51.95c.97-.1,1.58-.86,1.83-2.28-.02-.52.58-2.31.91-1.82-.17.57.39,1.06.46,1.37.31-.9.43-1.78.46-2.74,1.56-2.41-1.22-2.11-1.37,0l-1.39.29-1.35,3.36c-2.72,1.38-.9,5.85.46,1.83Z"/>
      <path class="cls-76" d="M29.3,46.48c.07-.08,1.11.35,1.14-1.37.4,0,.24.96.23,1.37l.91.46c.52-1.24.34-2.79,0-4.11.4-.19.41-.35,0-.46.13-.64.28-1.59-.46-1.37-1.01.1-1.74,2.45-1.83,3.65-.79,0-1.02.4-.46.91-.65,1.16-.5,1.46.46.91Z"/>
      <path class="cls-54" d="M31.59,42.37c.02.15-.01.31,0,.46.46,1.63.37,3.38,0,5.02,0,.15,0,.3,0,.46l.92.68v-6.16s.91.46.91.46c-.1-.68.16-1.69,0-2.29.31-1.39-2.49-5.38-2.28-2.74l-.38.46c.61,1.12,1,2.37.84,3.65Z"/>
      <path class="cls-96" d="M31.59,42.83c.13,1.3-.04,2.77,0,4.11,0,.3,0,.61,0,.91.78-1.16.76-3.95,0-5.02Z"/>
      <path class="cls-69" d="M.55,21.83c-1.38-5.08.59-10.63,1.37-15.52l1.82.92c-.1.21.1.76,0,.91.37.89-.08,1.65-1.37,2.28,1,.85.87,1.28-.46,1.37,1.15,1.82,1.4,5.83.46,7.76.57.48,1.18.94,1.83,1.37,1.59-.57,2.27-1.43,2.06-2.6-.9-2.42-.83-3.53.22-3.34.17.12.38.27.46.46,2.01,1.21,3.06,4.18,2.28,6.39.45,1.11.22,1.28-.91.91,0,1.26-.29,1.87-.91,1.83.37.58-3.21,5.87-3.57,5.94-1.06.19-1.1-.48-.99-1.37.04-.18.04-.73,0-.91-1.48-3.64-2.03-6.95-1.83-10.95-.01-.25.51,4.86-.45,4.56Z"/>
      <path class="cls-11" d="M2.37,37.8c-.73,1.32-.7,1.7.1,2.95.05,1.87.17,3.63.35,5.27-.91,2.45-.61,3.36.91,2.74,2.97-.71,3.36-2.62,2.16-5.23l.8-.6c-.26-2.1-.34-4.2-.25-6.29l.48.25c.84.15,1.41-.71,1.69-2.56,1.65.16,2.45-.35,2.41-1.55.65-.17.62-.82,0-.91,1.36.45,1.73-1.59,1.18-2.54-.34-.58-4.34-2.32-4.31-.98l-2.35,1.69c-.98.17-1.44,1.09-1.37,2.74-.54,1.35-.08,3.52.91,4.56-.71.62-1.31.17-1.83-1.37.53-.66.69-1.72.46-3.19.7-1.39-1.14-2.38-1.83-.91-.2,1.36-.32,3.72,0,5.02.04.17.37.47.46.91Z"/>
      <path class="cls-43" d="M7.4,24.57c.7-.08,1.02.58.95,1.97.76,1.01-.17,2.18-2.78,3.51-.62,1.53-.05,3.05-1.37,2.74-.12.39-.28.38-.46,0-.59-.46-.92-.95-1.83-.91.2-1.34.74-2.01.91-2.74l.7.93c.7-2.95,2.39-3.68,3.87-5.49Z"/>
      <path class="cls-49" d="M.55,21.83l.45-4.56,1.37,8.67h1.83s-1.37,2.28-1.37,2.28c-.35-1.43-2.93-4.03-2.28-6.39Z"/>
      <path class="cls-67" d="M31.59,8.59l1.37.91c-2.96-.58-1.4,1.37-1.83,1.83-.26.28-1.75-.09-1.82-.92v-.46c.89-.35,1.53-1.03,2.28-1.37Z"/>
      <path class="cls-34" d="M14.24,4.03c.21.89.14,2.37-.91,2.74.73.74,1.61,2.3,1.37,3.19-1.23,1.86-.81,2.98,1.24,3.36l-.21.89c1.63,1.08,3.24,2.25,4.73,3.35.78-1.26,4.94-2.94,5.19-.75.58-1.01,1.13-.69.91.46l-.46,2.28c-1.41-.13-2.7.23-3.89,1.08-1.64-.24-2.99.6-4.04,2.52-1.09,1.09-1.94,1.26-2.56.51-.52-.85-.06-1.9,1.39-3.16-2.37,2.55-3.38,1.82-3.03-2.2l-.34-.07c-2.11,1.45-2.97,1.44-2.58-.05-1.36-1.09-.69-3.42.46-4.56.02-.17.44-.71.49-1.54.06-1.11.14-5.6-.25-6.23-1-1.61-4.2,3.17-5.72,2.75-.24-1.47.28-2.43.91-3.65.67-.08,3.44-1.82,3.81-2.25.62-.75-.11-1.66.98-1.39l2.52,2.73Z"/>
      <path class="cls-98" d="M3.74,8.14c2.12,1.53,2.29,4.46,2.74,6.85,0,.03-.39.28-.34.6.13.77,1.49,4.66,1.25,4.87-.98.1-2.27.18-3.2.46.96-3.26,1.12-8.08-1.83-10.5.66-2.77.98-1.71,1.37-2.28Z"/>
      <path class="cls-89" d="M14.7,9.96c.62.08,1.07.39,1.37.91.4,2.29,1.32,3.47,2.78,3.56l.41,1c.05,0,.17.45.57.37,1.22-.26,2.02-2.22,2.39.54,1.67-1.12,2.82-2.83,4.34-4.11.92-.13,1.12.26.46.91.49,1.26,1.22,1.69,1.37,2.74-.95.3-1.86.61-2.74.91-4.42-1.04-3.73,1.66-5.24,1.65-1.91-.01-1.89-1.83-2.71-2.59-.96-.89-4.1-.48-2.89-2.17.15-.21.99.22.79-.53l-2.73.45c.5-2.58-.62-2.41,1.82-3.65Z"/>
      <path class="cls-32" d="M16.52,4.03c.83-1.34,2.6-.29,2.08,1.21.48-.27.82.12,1.11.62.84-.94,1.07-.78.91.46,0,.07.57.1.46.45l-1.38.24c1.86,2.11.95,2.27.92,4.33-1.29,1.27-3.51,1.02-4.56-.46-2.3-.26-.98-.5-1.37-.91.35-1.11.82-2.72,0-3.65-.29-.98,1-1.97,1.83-2.28Z"/>
      <path class="cls-37" d="M20.63,11.33c-.03,2.33,1.14,2.28-1.37,4.11-.65-.11-2.38-.42-2.77-.68-.75-.51.72-2.34-1.8-2.06l1.37-1.82c1.52.17,3.04.38,4.56.46Z"/>
      <path class="cls-86" d="M18.81,1.29c.38.15-.11,1.24.46,1.83.42.43.82.38.91.46,1.08.88.31,1.58-.46,2.28-.83.12-2.82,1.4-2.97-.46l1.61-.68-1.83-.68h-.95c.17-1.16-.12-1.76-.87-1.83.9-.89,3.03-1.34,4.11-.91Z"/>
      <path class="cls-65" d="M20.17,3.57c.48.42,1.83,1.01,1.3,1.77-.13.19-.98-.33-.84.96-.26-.08-.75-.48-.91-.46-.71-.79.37-1.38.46-2.28Z"/>
      <path class="cls-67" d="M28.39,11.33l.46,1.36-1.37.46h-.46c-.12-.31-.32-.6-.46-.91.87-.74,1.4-.63,1.83-.91Z"/>
      <path class="cls-75" d="M14.7,2.2h1.83c-.64.69.02,1.62,0,1.83-.19,1.5-.49,1.7-1.83,2.28.56,1.34-.83,1.88-1.37.46.03-.65-.12-1.32.09-1.97.19-.6.67-.59.83-.77.39-.46.65-.95,1.37-.92v-.45s-1.37,0-1.37,0c-.08-.51.42-.42.46-.45Z"/>
      <path class="cls-5" d="M31.13,38.26s.27-.52.65-.04c.16.2,1.59,2.63,1.63,2.78.44-.12.43-.53.46-.91-.22-1.5-.81-2.87-1.44-4.23l.52-.33c.89,1.59,1.31,1.62,1.37,0-1.41-.64-1.85-2.12-2.74-3.19-.79-.44-1.39-.48-1.63.41l-.2,4.16c-.67,1.23.27,1.48,1.37,1.37Z"/>
      <path class="cls-29" d="M41.17,33.24c.92.41-1.02,2.63-1.58,3.21-.44.46-4.26,3.51-4.59,3.62-.99.34-.55-1.02-1.13-1.36-.64-.1-.7-.73,0-.91-.58-3.28,1.44-2.1,2.74-.46,1.12-2.15,2.64-3.52,4.56-4.11Z"/>
      <path class="cls-108" d="M41.17,32.78v.46c-1.64,1.45-2.35,3.37-4.56,4.11-1.77-.01-.95-1.62,0-2.6v-1.05c-.05-.66.55-.81,1.82-.46.71-.14,2.37-.32,2.74-.46Z"/>
      <path class="cls-16" d="M32.95,35.52c.92.18,1.22.94.91,2.28.06.27-.04.62,0,.91.05.39.03.96,0,1.37l-2.73-5.26.22-.68c.25.55,1.41,1.08,1.6,1.37Z"/>
      <path class="cls-74" d="M36.61,28.68v.46c-.09.4-.25.39-.46,0-.84,1.14-1.16,1.94-.18,3.15l-.28.96c-.48.83-1.24.53-2.28-.91-.33-.75-.95-1.39-.91-2.28,1.35-.43,2.78-.89,4.11-1.37Z"/>
      <path class="cls-78" d="M36.61,29.13c.23-.01,1.77.61,2.74,0l-2.28,3.19c-1.66.68-2.48-2.29-.91-3.19.13-.03.3,0,.46,0Z"/>
      <path class="cls-21" d="M37.06,32.33c.4.41.47,1,1.37.91-.5.1-.67.57-1.83.46-.83,1.01-1.24.8-.91-.46-1.18-1.41-1.95-3.57.46-4.11-.5,1.28.06,2.33.91,3.19Z"/>
      <path class="cls-66" d="M23.83,23.66c1.13.02,1.74.33,1.83.91,1.66-1.13,1.78,1.44,1.37,2.74-.04.1-.37.76-.46.91-.24,2.24-1.62,2.89-3.5,1.51-.87,1.18-1.83,2.2-2.89,3.05-.13.4-.28.39-.46,0-.7.44-1.46.74-2.28.91-.2.59-.57.4-1.1-.55-2.01-.67-3.69-2.57-3.01-4.93.96-1.06,1.71-2.27,2.26-3.66l.93.92c.55.91.22,2.25-.99,4.03.75.38,1.5.77,2.23,1.18.26-2.1.91-3.38,1.95-3.84l.98-.07c.47,1.03,1.3,0,2.49-3.07l.64-.05Z"/>
      <path class="cls-102" d="M19.26,42.83l1.13-.09c.58-.98,1.27-1.72,2.07-2.2l-.03-1.18c-1.16-.03-1.31-.55-.43-1.56-2.56-2.11,1.93-3.7,2.22-5.32.18-1.01-.77-.63-1.31-1.07-1.34-1-2.28,1-2.74,2.28l-.55.68c-1.18,1.85-1.61,3.6-1.27,5.25-1.49.28-2.55,3.82-1.83,5.02-1.61,3.56,3.49.26,2.74-1.83Z"/>
      <path class="cls-28" d="M15.61,23.66c1.86-.15,3.28-3.32,4.58-3.88.59-.25,1.23.21,1.82.02.84-.27,1.61-1.09,2.54-1.18.27-.03.91.65,1.56.93.21.09.68-.09.91,0l-.45,4.11.91-.46c.13,1.64.1,2.59-.45,4.11.4-1.67-.46-1.74-1.37-2.74l-.6-.68c.97-3.15-.12-3.46-3.28-.94l-.69-.35c-1.3.83-2.49,1.82-3.56,2.97l-1-.54c-1.23.3-1.53,0-.91-.91-.4-.13-.39-.28,0-.46Z"/>
      <path class="cls-101" d="M26.56,37.35s.62.15.89-.33c.96-1.66-.58-7.26.48-9.71,1.29-.35,1.29,1.41,1.37,2.28.05.6-.03,1.22,0,1.83,1.02.2,1.2.89.55,2.08l-.1,3.4c.68.97.6,1.84-.58,1.35l-.33.93c.13.43-.03.58-.46.46.08,1.39-.68,1.39-2.28,0-.83-.78-.87-2.06.46-2.28Z"/>
      <path class="cls-30" d="M22.46,40.54c0,.3.15.45.46.46.23.66,1.18.73,1.37,0,.74-.3,1.35-.6,1.83-.91.39-.17.4-.33,0-.46.57-.55.29-1.96.46-2.28-1.8-.42-1.66.44-2.73,1.37-.08-.36.1-1.25,0-1.37-.39-1.3-1.05-1.33-1.37,0-.17.04-.33.41-.46.46-.6.21-1.72.43-1.79.49-.08.08-.09,1.71-.04,1.79.13.16,1.08-.79,2.28.46Z"/>
      <path class="cls-105" d="M22.91,31.42c-.91.42-2.1,1.46-2.74,2.28-.51.03-.36-.6,0-.91.39-1.21,2.13-4.54,3.42-4.12.22.07.16.92.51.92.73.01.89-1.09,1.32.46.47-.53.8-1.21,1.14-1.82.23,3.6-1.95,2.41-3.65,3.19Z"/>
      <path class="cls-33" d="M22.46,37.35c-.02-2.36,1.22-3.57,3.19-4.56v2.05s.91-.23.91-.23l-.46,1.83-.9-.91-1.37,1.82c-.05-.05-1.13-.06-1.37,0Z"/>
      <path class="cls-82" d="M35.69,33.24c.2.07.4.41.91.46,2.64,1.23-1.22,2.54,0,3.65-.08.03-.19.49-.59.4-.93-.21-2.28-3.06-2.15.06-.02-.12-.85-2.18-.91-2.28.8.53.83.51,1.37,0,.66-.62-.47-2.18-.91-3.19.81.21,1.49.65,2.28.91Z"/>
      <path class="cls-59" d="M31.59,32.33c-1.93,1.25-.82,1.49-1.05,2.43-.11.43-.56,1.54-.77,2.14-.86-1.73-.35-3.56-.46-5.48,1.33-.97,1.57.05,2.28.91Z"/>
      <path class="cls-114" d="M28.39,15.9c-.47.44-1.06.77-1.37,1.37-.11-.06-.33.06-.46,0-.29-.13-.48-.35-.91-.46-.39-2.31,1.1-1.15,2.74-.91Z"/>
      <path class="cls-24" d="M12.45,49.39l-.5-.17c-.6-.47-1.23-.38-1.88.3-.22-1.06-.86-2.22-1.77-1.21-.17-.39-.33-.4-.46,0-1.03.39-2.22,2.81-.91,3.19-1.19.92-1.34,1.68-.46,2.28,1.24.29,2.96-.65,3.85.93,1.47,2.58.12,3.07-1.57,4.54,4.45-.49,2.31-3.43,2.72-5.15.04-.15,1.9-1.68,2.3-2.15.64-1.09.95-2,.91-2.74-.9-1.14-1.75-1.23-2.24.17Z"/>
      <path class="cls-73" d="M15.61,49.22h.46c.08-.08-.08-.37,0-.46.8-.89,2.52-1.53,3.65-1.83-.05,1.1-.14,2.32,1.37,2.28.26-.13,2.53-1.51,2.51-1.68-.02-.21-.11-.41-.23-.61.38-.19.39-.34,0-.46-.35-.79-1.41-1.24-3.19-1.37.79-.91.75-1.06-.46-.91-.68.02-1.38.6-2.11,1.73-1.47-.07-2.44.41-2.91,1.46-.98,1.03-.27,1.58.91,1.83Z"/>
      <path class="cls-61" d="M16.07,49.22h-.46c-.47-.74-.91-.95-.91,0-.69.8-1.08,1.66-.91,2.74.77-.9,1.51-1.87,2.28-2.74Z"/>
      <path class="cls-61" d="M17.44,49.67c-.82,1.07-.76,2-.91,3.19,1.82-.26,1.46-1.71.91-3.19Z"/>
      <path class="cls-38" d="M24.25,52.54c2.09-1.12,1.67-3.81-.42-4.24-.8-1-1.71-.39-2.74,1.83-.35,1.04-.48,2.8-.91,3.65.26,2.3.24,4.62,0,6.95.59-.43,1.17-.89,1.75-1.36.5-2.4,1.27-4.68,2.33-6.83Z"/>
      <path class="cls-38" d="M20.17,60.73c-.11,1.03-.25,2.06-.46,3.09,1.29.36,1.75-.25,1.37-1.83.77.36,1.04.12.46-.46.1-.74.23-1.46.38-2.17-.58.47-1.16.92-1.75,1.36Z"/>
      <path class="cls-57" d="M15.15,62.91c.53-.37,1.27,0,1.31-.05.38-.49-.05-1.71,1.43-2.23.02.6.17.76.46.46,1,.25,1.54-1.73.91-2.28l-.19-1.55c1.26-1.39,1.48-2.4.65-3.01-.25.28-.9.49-1.14.91-.44-.94-.36-1.07-1.59-.92.27,1.49-.6,2.15-1.37,3.2l1.82-.23c-.4,2.25-2.57,3.35-2.28,5.71Z"/>
      <path class="cls-71" d="M21.1,54.47c-.08-1.3-.48-.1-.92-.69-.07.13-.32.3-.46.46-.32,1.36-2.32,3.74-.46,4.56l.41.08c-.27.91-.5,1.81-.74,2.72.49-.33.98-.68,1.46-1.05.43-2.02.82-4.09.7-6.09Z"/>
      <path class="cls-99" d="M21.09,50.13c1.77-.21,1.1-1.28,1.4-1.8.03-.06.62.21,1.34-.02.68.77.98.62.91-.46.38-.89-.69-1.5-1.37-.91-.38.38-1.85,1.17-2.28,2.28-.09.22.08.67,0,.91Z"/>
      <path class="cls-3" d="M2.74,46.35c.03-.11.06-.23.09-.33-.05.12-.06.22-.09.33Z"/>
      <path class="cls-3" d="M1.01,51.5l2.27-1.37.92,2.74c.01-.72-.24-1.49.46-1.83.77-.86.43-2.8-.91-2.28-.21-.46-1.33-1.05-1-2.4-.31,1.12-.82,2.42-.82.58-.09.66-1.17,2.12-.91,3.19.12.25-.08.98,0,1.37Z"/>
      <path class="cls-15" d="M11.96,62.22l-.91-.23c-.51.03-.92.24-1.37.46-4.21,2.01.75,2.12,2.28-.23Z"/>
      <path class="cls-9" d="M17.89,60.63c-.19.65-.36,1.31-.53,1.97.39-.23.78-.47,1.17-.73-.04-.27-.1-.53-.19-.79.06-.31-.19-.55-.46-.46Z"/>
      <path class="cls-116" d="M28.78,52.95c.13-.67.12-1.47.07-3.28-.98.46-1.45,1.34-1.83,2.28l-.41.98c-1.08.42-1.58.66-.96,2.21.04.25.14.46.27.64.97-.93,1.92-1.88,2.86-2.84Z"/>
      <path class="cls-116" d="M25.92,55.79c.3.43.81.68,1.56.73.76-2.11,1.14-2.74,1.3-3.57-.94.96-1.89,1.91-2.86,2.84Z"/>
      <path class="cls-71" d="M21.54,61.54l.64.02c.55-1.16.99-2.36,1.36-3.58-.69.61-1.39,1.2-2.1,1.77-.09.54-.09,1.12.1,1.79Z"/>
      <path class="cls-71" d="M26.08,55.64c-.16.16-.33.31-.49.47.62.05.77-.08.49-.47Z"/>
      <path class="cls-71" d="M26.5,53.22c-.07.1-.18.14-.39.1-.19-1.12.25-2.13.45-3.19,1.53-2.2,1.68-3.72.46-4.56-1.11.16-1.55.78-.91,1.83-.53-.06-.99.09-1.37.46-.39-.06-.71.39-.91.46,2.35,3.26-.64,3.17-1.27,5.81-.21.88.05,1.82-.13,2.61-.22.99-.8,1.92-.99,3.03.71-.56,1.41-1.15,2.1-1.77.21-.7.41-1.41.56-2.12l1.09.2c.15.02.28.04.39.05.16-.16.33-.31.49-.47-.1-.13-.23-.29-.43-.49.34-.72.59-1.3.85-1.92Z"/>
      <path class="cls-71" d="M26.58,53.03c.14-.33.28-.67.44-1.07-.37.29-.36.76-.44,1.07Z"/>
      <path class="cls-71" d="M26.5,53.22c.04-.05.06-.12.08-.2-.03.07-.06.13-.08.2Z"/>
      <path class="cls-27" d="M25.65,43.28c.23,1.18.69,1.94,1.37,2.28.36,1.93-.06,2.48-.46,4.56,1.05-1.1,1.74-2.51,2.74-3.65l-.46-.91c-.36-.17-.24-1.17-.16-1.72.6-4.2.6-2.67-.03.4-.09.46.12.56.64.41.66-1.19,1-2.55,1.83-3.65.86-1.53-1.68-4.81-2.28-1.83-.14.16-.31.29-.46.46-.54.97-.54,1.43,0,1.37-.56.53-1.51.68-2.03-.02-1.45,1.16-1.69,1.93-.71,2.3Z"/>
      <path class="cls-63" d="M28.85,45.56c.17-.29.29-.62.46-.91-1.27-1.58,2.79-4.16-.45-4.56l-.91,6.39c.48.1.69-.55.91-.91Z"/>
      <path class="cls-42" d="M29.53,38.26c1.39.86,1.23,1.58,1.6,2.74.09.3.45,1.3.46,1.37,1.08-1.48-.15-2.64-.46-4.11-.44-.42-1.08-.78-1.37-1.37-.42,1.16-1.12,1.02-.91,2.28.25-.28.5-.99.68-.91Z"/>
      <path class="cls-52" d="M8.31,22.74c1.15.02,1.13.93,1.03,1.88l.79-.05c.74.42,1.5.73,2.28.91l.83.64c-.39.69-.52,1.39-.37,2.1l.96,2.96c-1.33,2.45-2.26,2.68-2.79.7.1-.53,1.18-.89.72-1.83-.55-1.09-1.53-.52-2.1-.73-.46-.18-.95-1.08-1.13-1.08s-1.36,2.28-2.97,1.82c.77-1.93,2.22-1.8,2.31-2.1.17-.57.17-2.87-.48-3.37.28-.35.44-1.2.91-1.83Z"/>
      <path class="cls-48" d="M1.92,11.79c2.81-2.63,3.33,6.36,2.82,7.33-.75,1.42-2.03,2.4-2.36.43-.54-2.4-.71-5.21-.46-7.76Z"/>
      <path class="cls-112" d="M2.37,10.42c2.72-.99,1.39-.26,1.85,1.11.61,1.8.33,1.67.55,3.11.33,2.2,2.07,4.77-.58,6.28-.74.22-1.23,1.63-1.74.13-.18-.53,0-1.1-.08-1.5,1,.95,1.58-.52,1.73-1.24.17-.84.31-4.68.13-5.34-.03-.13-1.91-1.01-2.31-1.18.02-.25.35-.92.46-1.37Z"/>
      <path class="cls-103" d="M9.22,21.83c.07-.04.7.36,1.36-.46v1.38s.46-.46.46-.46c.13-.4.28-.39.46,0,.73,1.26.09,2.34-1.37,2.28-.51.85-.45,1.95-1.36,2.28l-.46-4.11c.36-.48.33-.55.91-.91Z"/>
      <path class="cls-90" d="M6.96,48.51l.89-.21h.46c.4-.18.41-.34,0-.46l.93-4.05c-1.39-.18-1.85-.48-1.38-.91l-.02-3.81c-1.01-.36-.97-1.27-.9-2.18-.21-.58.49-1.13-.91-.91.01,2.31-.22,4.61.45,6.84l-1.82-.91c-.48.53,1.78,4.37.91,5.47-.83,1.05-.81-1.46-1.59-.91l-.23,2.28c.23.5.68,2.02.91,2.28,1.3.61,2.07-.24,2.3-2.53Z"/>
      <path class="cls-92" d="M13.33,28.22c-.03.89.25,1.48.77,2.17l3.34,3.3c.85.99.33,1.67-.91,1.37-.56-.32-1.17-.17-1.83.46-.08.39-.24.38-.46,0-1.71.78-2.62.78-2.74,0-.42-.05-.58-.5-.46-1.37-1.06.14-1.06-.32,0-1.37.02-.3-.05-.65,0-.91.75-.18.99.2.92.91,1.58-.7.69-3.08.9-4.56-.73-.88-.15-2.18.91-1.37.89.3.21.93-.46,1.37Z"/>
      <path class="cls-94" d="M6.94,36.89c.03-.09.5-.24.48-.67-.03-.67-1.34-1.61-.94-2.07.88-1,.77,1.17,1.36.91l-.45-2.28.92.91.92-1.37c1.16.52.7,2.48,1.82.46-.02.41-.06.99,0,1.37.3,1.17-.78,3.99-1.89,2.9-.38,3.22-2.42,3.07-2.22-.16Z"/>
      <path class="cls-56" d="M3.74,32.78c.09.07.39-.08.46,0,1.02,1.12.98,3.12.91,4.56-.46,1.36-1.07.9-1.83-1.37-.19-1.16-1.4-3.51.46-3.19Z"/>
      <path class="cls-6" d="M3.75,43.28l1.36-5.93c-1.08.28-.96-1-1.83-1.37.42,2.5.63,4.72.46,7.3Z"/>
      <path class="cls-85" d="M11.05,18.18c.04,2.28,1.3-1.4,3.1-.79,1.46.5.6,2.81.56,3.99.71.03.51-.85,1.19-1.31.37-.25,2.22-1.21,2.46-.96.07,1.95-1.82,3.09-2.74,4.56v.46c-.11.39-.26.37-.46,0-.62.76-1.76,2.04-2.74,1.37-.38.33-.42.88-.47.9-.8.34-1.83-.94-1.82-1.82.44-.74.91-1.55,1.37-2.28-.45-.96,2.71-3.93.99-1.99l-.54-.29c-2.26-.69-1.12-.72-.91-1.83Z"/>
      <path class="cls-36" d="M14.7,6.31c.71-.1,1.55.06,2.28,0-1.59.95-.73,2.6-1.11,3.21-.3.48-.91.31-1.18.44-1.22-1.3-1.51.33-1.37-3.19.55.23,1.18-.43,1.37-.46Z"/>
      <path class="cls-7" d="M11.96,20c.24-.27.9-.49,1.14-.91.76,1.12-1.15,2.47-1.6,3.19h-.46c-.08-.9.35-1.64.91-2.28Z"/>
      <path class="cls-87" d="M16.52,25.48c1.43-.54,2.77-1.41,4.04-2.62,2.77-1.7,1.42,2.71-.39,3.53.57.63.3.86-.46.46-.25.57-.99,6.71-2.74,5.02v-1.37c-.6,1.01-2.25-.42-2.29-.76-.2-1.77,2.08-3.53,1.83-4.25Z"/>
      <path class="cls-17" d="M16.52,25.03c2.71-1.15,6.11-4.2,8.92-5.01.86-.25.6.14.67.66.1.74.12,3.54-.46,3.89-.17.1-.81-.11-.91,0-.11.12,1.62,2.29.69,3.2-1.31,1.04.03-1.55-2.06.45.49-2.09,1.17-2.38.45-4.56h-.6c-.91,3.09-1.93,4.01-3.05,2.74,3.55-6.6-1.18-2.85-2.51.91.11-2.19-1.04-1.71-1.14-1.82-.23-.14-.23-.29,0-.46Z"/>
      <path class="cls-104" d="M20.17,33.7c-.57,2.09-1.16,4.03-1.83,5.93l-.91-.46c-.55-.37-.85-.37-.91,0,0,1.28-1.24,1.65-1.83.46-.76-.83.64-2.1,1.37-2.74.2-1.04.78-1.59,1.82-1.66.31-1.33.92-2.15,1.83-2.45h.46c-.08.24.07.65,0,.91Z"/>
      <path class="cls-79" d="M19.72,32.78c.05.59-1.26,3.48-1.41,3.6-.09.07-1.62-.62-2.24.51v-.46c-.39-.13-.39-.28,0-.46-.65-.66-.46-1.04.46-.91.12-.22.73-1.13.91-1.37.62-.81,1.32-1.57,2.06-2.28l.23,1.37Z"/>
      <path class="cls-26" d="M23.83,23.66c-1.61,1.63-.83,4.2-2.97,5.47l-1.14-2.28c.1-.23.26-.33.46-.46.5-.31,1.46-.3,1.71-.56.39-.4.47-2.62,1.71-3.09.45-.02.14.64.23.91Z"/>
      <path class="cls-41" d="M16.52,25.03c.08.07-.07.37,0,.46-.02-.05-.86-.49-.9-.46-.32,1.24-.8,3.16-2.29,3.2,0-.28.5-.92.46-1.37-.88-1.07.35-2.25,1.37-2.74.16,0,.35-.04.46,0s.68.7.91.91Z"/>
      <path class="cls-50" d="M13.86,43.18c-1.84,1.47-1.67,3.99.84,2.84,1.22.71,2.25.01,1.83-1.37.7-.98,1.37-3.71,1.83-5.02.07-1.54-.1-.71-.91-.46-.46-.96-.54-.99-.91,0-.62.08-1.22.33-1.83.46-1.61-.1-3.79,3.66-.84,3.55Z"/>
      <path class="cls-64" d="M20.17,45.11c.75.45,1.36.45,1.83,0,.62-1.1,1.39-1.56,2.28-1.37.15.39.3.39.46,0,.83.92,1.13.77.91-.46.21-.31.29-1.36.46-1.82l1.13,1.37c.73-.55.95-.95,1.14-1.82-.97-.93-1.73-1.23-2.28-.91-.72.04-1.4.28-1.83.91,1.08.76-1.57.72-1.37,0-.14-.17-.31-.3-.46-.46-2.15-.12-2.3.93-3.19,2.28.2.33.35.79.46,1.37,0,.07.37.82.46.91Z"/>
      <path class="cls-62" d="M14.7,47.39c2.65-.16,3.44-1.4,5.02-3.19,0-.45,1.38-1.59-.46-1.37-.8,1.21-2.2,4.65-2.74,1.83-.27.37-1.43.95-1.83,1.37-.76-.14-1.07.02-.91.46-1.45,2.35,1.53,2.9.91.91Z"/>
      <path class="cls-83" d="M28.39,41c.09-.39-.06-.94,0-1.37-.25.29-.44.94-.68.92l-.23-1.38-1.37.46v.46c1.56-.1.92,2.02,2.28.91Z"/>
      <path class="cls-60" d="M26.1,41.22c.25-1.12-1.1-.24-1.82-.22-.45,0-.92-.03-1.37,0-.45.03-.92-.03-1.37,0-.75.63,3.9,1.74,4.56.22Z"/>
      <path class="cls-111" d="M25.2,56.06l-1.06.13-.62,1.81c.98-.87,1.95-1.77,2.9-2.7-.21-.04-.46-.08-.77-.16-.15.32-.32.61-.46.91Z"/>
      <path class="cls-100" d="M8.77,51.04c.41.4,2.76-1.38,3.19-1.82,1.37,0,1.97-.92,1.83-2.74.08-.09.62-.14.91-.46-3.24-1.02.9-1.7.45-4.1l-2.28.45c-.23-.18,1.65-2.45,1.83-2.73.58-.97.88-1.82,1.37-2.74.06-.12-.06-.34,0-.46-.21-.12-.41-.22-.63-.24-.44-.04-5.28,5.48-5.7,6.57l.39.52c-1.08.06-1.73.58-1,1.41l-.82,3.15c.05.13-.04.31,0,.46.09.29,1.6.86.46,2.74Z"/>
      <path class="cls-91" d="M6.94,51.5c.01-.97,1.02-1.51.91-3.19,0-.11-.23-.62-.32-.79-1.33-2.44-1.86,3.28-2.01,3.49-.14.2-.71-.04-.86.04.64.75,1.38.45,2.28.46Z"/>
      <path class="cls-12" d="M13.33,50.12l-.46-.91c.61,0,1.22,0,1.83,0h.91c.01-.29-.82-1.78-.91-1.83-.05-.03-.85.53-.91.46v-1.37c-.67.71-1.05,1.93-1.83,2.74-.2,1.22.29.95,1.37.91Z"/>
      <path class="cls-99" d="M24.28,45.11c1.52.49,2.01-1.17.46-1.37-.11.07-.36-.07-.46,0-1.07-.65-1.89.49-2.28,1.37-.61,0-1.22,0-1.83,0,.7.73,2.23,1.06,3.19,1.37.53.36.83-.1.91-1.37Z"/>
      <path class="cls-20" d="M23.37,46.93c.44.33.99.5,1.37.91.08.09-.07.65,0,.91,1.24.32.85-.59,1.37-1.37.58-.87-.03-1.63-1.83-2.28-.32.47-.65,1.01-.91,1.37-.07.1.08.38,0,.46Z"/>
      <path class="cls-109" d="M21.54,61.54c-.11.18-.38.31-.46.46-.18.84.18,1.39.95.62,1.34-1.34,2.07-3.92,2.85-5.85-.77.72-1.55,1.41-2.34,2.08-.12.79-.35,1.63-1.01,2.7Z"/>
      <path class="cls-109" d="M24.74,52.87c.14,1.32-1.47,2.18-1.73,3.06-.33,1.09-.31,1.96-.46,2.91.79-.67,1.57-1.36,2.34-2.08.1-.24.2-.48.3-.7l-.45-3.19Z"/>
      <path class="cls-2" d="M17.44,66.56c.15-.14.35-.28.46-.46.85-1.42,1.48-3.23,1.87-5.07-.54.39-1.09.76-1.64,1.11-.28,1.45-.41,3.05-.68,4.42Z"/>
      <path class="cls-2" d="M20.17,56.52c-.63.08-.68,1.58-.91,2.28-.26.78-.78,1.79-.91,2.28-.09.34-.16.69-.23,1.05.55-.35,1.1-.72,1.64-1.11.33-1.55.48-3.13.41-4.51Z"/>
      <path class="cls-95" d="M26.11,47.39c.37-.57.99-.91.91-1.83-.19-1.04.38-2.29-1.37-2.28-.09.13-.67.29-.91.46.19.74-.13.91-.46,1.37-.49,1.99,1.19.88,1.83,2.28Z"/>
      <path class="cls-93" d="M15.15,24.11c-.04,1.14-.87,1.85-1.37,2.74-.16.29-.73.13-.91,1.37-1.41-.45-.52-1.64-.46-2.74.97-.85,1.03-1.42,2.74-1.37Z"/>
      <path class="cls-39" d="M6.94,44.65l1.82-.45c-.21,1.49-1,2.08-.45,3.65,1.3-.89.87-2.92,1.83-4.56-.09-2.09.74-4.77,1.7-6.8l-.34-.95c.23-.55-.42-1.17-.46-1.37l-.92,2.74c-1.88-2.78-1.69-.09-2.28,1.82-.78.02-.71-1.28-.91-1.82-.53,1.52,0,1.28,0,2.52,0,1.75,0,3.5,0,5.24Z"/>
      <path class="cls-35" d="M10.13,43.28c.7-1.2,2.73-2.69,3.27-4.28l2.66-2.56c.06-.12-.06-.33,0-.46-.09-1.23-.62-1.5-1.37-.46-.23.23-.39.26-.46,0-1.4-1.05-.19-2.38-.68-3.66-.55-.02-.9,3.23-1.23,3.58-.22.23-.72,0-.82.07-1.13.78-1.97,4.76-2.16,6.29-.11.88-.62,1.69.79,1.47Z"/>
      <path class="cls-115" d="M14.7,35.52c-.24,1.56-.9,2.64-2.51,3.2-.56-.82,1.46-3.05,2.05-3.2.12-.03.32,0,.46,0Z"/>
      <path class="cls-45" d="M16.52,35.07c-.17.32-.3.58-.46.91-.45.04-1.07-.44-1.37-.46.16-1.06-.52-3.39,1.4-2.08.45.31.47,1.1.43,1.62Z"/>
      <path class="cls-58" d="M17.44,39.17c-.82.25-.8-.01-.91,0-.41-.39-.16-2.28.23-2.29l.68,2.29Z"/>
      <path class="cls-80" d="M22,45.11c1.07,0,1.22-.57,2.28-1.37-1.38-2.1-2.28-.59-2.28,1.37Z"/>
      <g>
        <path class="cls-44" d="M6.48,53.78c.49-1.69-2.03-2.65-2.28-.91-.55-.39-.99-.55-1.39-.05-2.23-2.79-3.25,3.02-1.8,3.7.99,0,1.91.96.91,1.37-1.02-.22-.99.14-.46.91,2.54,2.42,4.07,2.58,7.3,1.83v-1.37c4.95-1.43,1.96-9.06-2.28-5.48Z"/>
        <g>
          <path class="cls-18" d="M1.63,50.28c-.17.24-.34.52-.51.87.58-.31.8-.67.51-.87Z"/>
          <path class="cls-18" d="M1.92,57.89c.6-.71-.01-1.76-.91-1.37-.33-.78-.39-3.23,0-3.65.8-.86.95.92,1.17.95,1.14.16,1.44-.66,2.02-.95.12-2.58-1.12-4.65-2.57-2.58.29.2.08.56-.51.87.17-.35.34-.63.51-.87-.12-.08-.32-.14-.63-.15-.16-.4-.31-.4-.46,0,.22,1.57-.1,2.69-.46,4.11-.12,2.6-.4,2.88,1.37,4.56l.46-.91Z"/>
          <path class="cls-81" d="M9.22,55.61c-1.88.75-2.78-.29-4.55-.45-1.38,2.72.59,2.32.89,2.72.73.59,3.8-.31,3.19-1.37-.03-.04.57-.84.46-.91Z"/>
          <path class="cls-46" d="M8.76,56.52l-3.19,1.37c.06.07-.74.85-.22.92.85.1,4.8-.86,4.78-1.6-.01-.45-1.32-.62-1.36-.68Z"/>
          <path class="cls-31" d="M6.48,53.78v-.62c1.8-.63.45-1.31.46-1.67-.33-1.07-1.31-1.26-1.68-.24l-.61-.21c-.79-.41-.95.2-.46,1.83,1.48-.75,1.19.66,2.28.91Z"/>
          <path class="cls-47" d="M3.75,58.57l-1.84-3.42-.9,1.37c.12.28.71,1.18.91,1.37.29.27,1.48,1.35,1.83.68Z"/>
        </g>
      </g>
    </g>
  </g>
</svg>