<svg width="70" height="73" viewBox="0 0 70 73" fill="none" xmlns="http://www.w3.org/2000/svg">
<g opacity="0.5">
<path d="M35.9997 2.56632C36.0038 1.46176 35.1116 0.56308 34.007 0.559065C32.9025 0.555049 32.0038 1.44722 31.9998 2.55178L35.9997 2.56632ZM31.9998 2.55178L31.9634 12.5517L35.9634 12.5663L35.9997 2.56632L31.9998 2.55178Z" fill="#B4B4B4"/>
</g>
<g opacity="0.5">
<path d="M67.8686 38.6824C68.9732 38.6864 69.8719 37.7943 69.8759 36.6897C69.8799 35.5851 68.9877 34.6865 67.8832 34.6824L67.8686 38.6824ZM67.8832 34.6824L57.8833 34.6461L57.8687 38.6461L67.8686 38.6824L67.8832 34.6824Z" fill="#B4B4B4"/>
</g>
<g opacity="0.5">
<path d="M31.7526 70.5514C31.7486 71.6559 32.6407 72.5546 33.7453 72.5586C34.8499 72.5626 35.7485 71.6705 35.7526 70.5659L31.7526 70.5514ZM35.7526 70.5659L35.7889 60.566L31.7889 60.5514L31.7526 70.5514L35.7526 70.5659Z" fill="#B4B4B4"/>
</g>
<rect x="15.6399" y="17.9409" width="37" height="37" rx="18.5" transform="rotate(0.208296 15.6399 17.9409)" stroke="#B4B4B4" stroke-width="3" stroke-dasharray="7 7"/>
<circle cx="34.0726" cy="36.508" r="8.5" transform="rotate(0.208296 34.0726 36.508)" stroke="#B4B4B4" stroke-width="3"/>
</svg>
