<svg width="73" height="73" viewBox="0 0 73 73" fill="none" xmlns="http://www.w3.org/2000/svg">
<g opacity="0.5">
<path d="M38.9997 2.71149C39.0038 1.60693 38.1116 0.708253 37.007 0.704237C35.9025 0.700221 35.0038 1.59239 34.9998 2.69695L38.9997 2.71149ZM34.9998 2.69695L34.9634 12.6969L38.9634 12.7114L38.9997 2.71149L34.9998 2.69695Z" fill="#B4B4B4"/>
</g>
<g opacity="0.5">
<path d="M2.86907 38.5804C1.76451 38.5764 0.87234 37.6777 0.876356 36.5731C0.880372 35.4686 1.77905 34.5764 2.88361 34.5804L2.86907 38.5804ZM2.88361 34.5804L12.8835 34.6168L12.869 38.6167L2.86907 38.5804L2.88361 34.5804Z" fill="#B4B4B4"/>
</g>
<g opacity="0.5">
<path d="M70.8686 38.8276C71.9732 38.8316 72.8719 37.9395 72.8759 36.8349C72.8799 35.7303 71.9877 34.8317 70.8832 34.8276L70.8686 38.8276ZM70.8832 34.8276L60.8833 34.7913L60.8687 38.7913L70.8686 38.8276L70.8832 34.8276Z" fill="#B4B4B4"/>
</g>
<g opacity="0.5">
<path d="M34.7526 70.6965C34.7486 71.801 35.6407 72.6997 36.7453 72.7037C37.8499 72.7077 38.7485 71.8156 38.7526 70.711L34.7526 70.6965ZM38.7526 70.711L38.7889 60.7111L34.7889 60.6965L34.7526 70.6965L38.7526 70.711Z" fill="#B4B4B4"/>
</g>
<rect x="18.6399" y="18.086" width="37" height="37" rx="18.5" transform="rotate(0.208296 18.6399 18.086)" stroke="#B4B4B4" stroke-width="3" stroke-dasharray="7 7"/>
<circle cx="37.0726" cy="36.6532" r="8.5" transform="rotate(0.208296 37.0726 36.6532)" stroke="#B4B4B4" stroke-width="3"/>
</svg>
