<?xml version="1.0" encoding="UTF-8"?>
<svg id="Calque_2" data-name="Calque 2" xmlns="http://www.w3.org/2000/svg" viewBox="0 0 100.25 100.25">
  <defs>
    <style>
      .cls-1 {
        fill: #dedddb;
      }

      .cls-2 {
        fill: #646464;
      }

      .cls-3 {
        fill: #002d28;
      }

      .cls-4 {
        fill: #575652;
      }

      .cls-5 {
        fill: #669100;
      }

      .cls-6 {
        fill: #c8c8c8;
      }

      .cls-7 {
        fill: #ff0;
      }
    </style>
  </defs>
  <g id="Bitcoin_final">
    <g>
      <circle class="cls-3" cx="50.12" cy="50.12" r="50"/>
      <rect class="cls-5" x="67.12" y="59.12" width="20" height="1"/>
      <rect class="cls-5" x="87.12" y="49.12" width="1" height="11"/>
      <rect class="cls-5" x="75.12" y="62.12" width="1" height="6"/>
      <rect class="cls-5" x="79.12" y="65.12" width="1" height="5"/>
      <rect class="cls-5" x="83.12" y="68.12" width="1" height="5"/>
      <rect class="cls-5" x="84.12" y="45.12" width="1" height="11"/>
      <rect class="cls-5" x="81.12" y="42.12" width="1" height="11"/>
      <rect class="cls-5" x="77.12" y="38.12" width="1" height="11"/>
      <rect class="cls-5" x="73.12" y="35.12" width="1" height="11"/>
      <rect class="cls-5" x="70.13" y="17.13" width="1" height="26"/>
      <rect class="cls-5" x="73.13" y="10.13" width="1" height="21"/>
      <rect class="cls-5" x="76.12" y="8.12" width="1" height="21"/>
      <rect class="cls-5" x="83.13" y="22.13" width="1" height="10"/>
      <rect class="cls-5" x="80.13" y="19.13" width="1" height="9"/>
      <rect class="cls-5" x="67.13" y="20.13" width="1" height="20"/>
      <rect class="cls-5" x="62.13" y="6.12" width="1" height="12"/>
      <rect class="cls-5" x="59.13" y="5.13" width="1" height="15"/>
      <rect class="cls-5" x="87.12" y="48.12" width="12" height="1"/>
      <rect class="cls-5" x="75.12" y="62.12" width="20" height="1"/>
      <rect class="cls-5" x="56.12" y="67.12" width="20" height="1"/>
      <rect class="cls-5" x="54.12" y="73.12" width="30" height="1"/>
      <rect class="cls-5" x="55.12" y="70.12" width="25" height="1"/>
      <rect class="cls-5" x="79.12" y="65.12" width="15" height="1"/>
      <rect class="cls-5" x="83.12" y="68.12" width="10" height="1"/>
      <rect class="cls-5" x="90.12" y="51.12" width="8" height="9"/>
      <rect class="cls-3" x="91.12" y="52.12" width="7" height="7"/>
      <rect class="cls-5" x="85.12" y="45.12" width="12" height="1"/>
      <rect class="cls-5" x="81.12" y="42.12" width="15" height="1"/>
      <rect class="cls-5" x="78.12" y="38.12" width="17" height="1"/>
      <rect class="cls-5" x="73.12" y="34.12" width="21" height="1"/>
      <rect class="cls-5" x="73.12" y="31.13" width="10" height="1"/>
      <rect class="cls-5" x="76.12" y="28.13" width="5" height="1"/>
      <rect class="cls-5" x="84.12" y="22.13" width="4" height="1"/>
      <rect class="cls-5" x="81.12" y="19.12" width="4" height="1"/>
      <rect class="cls-5" x="65.12" y="56.12" width="20" height="1"/>
      <rect class="cls-5" x="62.12" y="53.12" width="20" height="1"/>
      <rect class="cls-5" x="59.12" y="49.12" width="19" height="1"/>
      <rect class="cls-5" x="61.12" y="45.12" width="12" height="1"/>
      <rect class="cls-5" x="62.12" y="42.12" width="8" height="1"/>
      <rect class="cls-5" x="60.12" y="39.12" width="8" height="1"/>
      <rect class="cls-5" x="63.12" y="17.12" width="8" height="1"/>
      <rect class="cls-5" x="59.12" y="20.12" width="8" height="1"/>
      <rect class="cls-5" x="24.12" y="37.13" width="14" height="1"/>
      <rect class="cls-5" x="26.12" y="34.12" width="14" height="1"/>
      <rect class="cls-5" x="30.12" y="31.12" width="14" height="1"/>
      <rect class="cls-5" x="14.63" y="21.63" width="24" height="1" transform="translate(4.5 48.75) rotate(-90)"/>
      <rect class="cls-5" x="17.63" y="19.62" width="24" height="1" transform="translate(9.5 49.75) rotate(-90)"/>
      <rect class="cls-5" x="12.12" y="49.12" width="26" height="1"/>
      <rect class="cls-5" x="16.12" y="52.12" width="26" height="1"/>
      <rect class="cls-5" x="20.12" y="55.12" width="21" height="1"/>
      <rect class="cls-5" x="9.63" y="51.62" width="6" height="1" transform="translate(64.75 39.5) rotate(90)"/>
      <rect class="cls-5" x="14.13" y="55.12" width="5" height="1" transform="translate(72.25 39) rotate(90)"/>
      <rect class="cls-5" x="18.63" y="57.62" width="4" height="1" transform="translate(78.75 37.5) rotate(90)"/>
      <rect class="cls-5" x="1.12" y="54.12" width="12" height="1"/>
      <rect class="cls-5" x="1.12" y="57.12" width="15" height="1"/>
      <rect class="cls-5" x="5.12" y="60.12" width="16" height="1"/>
      <rect class="cls-5" x="23.12" y="25.13" width="1" height="13"/>
      <rect class="cls-5" x="7.12" y="25.13" width="16" height="1"/>
      <rect class="cls-5" x="6.12" y="28.12" width="14" height="1"/>
      <rect class="cls-5" x="20.12" y="28.13" width="1" height="13"/>
      <rect class="cls-5" x="20.12" y="40.12" width="18" height="1"/>
      <rect class="cls-5" x="18.12" y="43.13" width="20" height="1"/>
      <rect class="cls-5" x="17.12" y="31.13" width="1" height="13"/>
      <rect class="cls-5" x="5.12" y="31.12" width="13" height="1"/>
      <rect class="cls-5" x="15.12" y="46.12" width="23" height="1"/>
      <rect class="cls-5" x="14.12" y="34.13" width="1" height="13"/>
      <rect class="cls-5" x="4.12" y="34.13" width="11" height="1"/>
      <path class="cls-7" d="M68.12,54.12h-2v-2h-4v-2h-2v-2h4v-4h2v-8h-2s0-4,0-4h-2v-2h-4v-2h-26v4h4v36h-4v4h24v-2h6v-2h4v-2h2v-12ZM60.12,64.12h-2v2h-4v2h-12v-16h12v2h4v2h2v2h2v4h-2v2ZM60.12,44.12h-2v2h-4v2h-12v-16h12v2h4v2h2v8ZM46.12,28.12h-4v-6h4v6ZM54.12,28.12h-4v-6h4v6ZM46.12,78.12h-4v-6h4v6ZM54.12,78.12h-4v-6h4v6Z"/>
      <g>
        <path class="cls-2" d="M50.12,100C22.62,100,.25,77.63.25,50.12S22.62.25,50.12.25s49.88,22.37,49.88,49.88-22.37,49.88-49.88,49.88ZM50.12,5C25.24,5,5,25.24,5,50.12s20.24,45.12,45.12,45.12,45.12-20.24,45.12-45.12S75.01,5,50.12,5Z"/>
        <path class="cls-6" d="M50.12.38c27.43,0,49.75,22.32,49.75,49.75s-22.32,49.75-49.75,49.75S.38,77.56.38,50.12,22.69.38,50.12.38M50.12,95.38c24.95,0,45.25-20.3,45.25-45.25S75.08,4.88,50.12,4.88,4.88,25.17,4.88,50.12s20.3,45.25,45.25,45.25M50.12.12C22.51.12.12,22.51.12,50.12s22.39,50,50,50,50-22.39,50-50S77.74.12,50.12.12h0ZM50.12,95.12c-24.85,0-45-20.15-45-45S25.27,5.12,50.12,5.12s45,20.15,45,45-20.15,45-45,45h0Z"/>
      </g>
      <g>
        <g id="_Répétition_radiale_" data-name="&amp;lt;Répétition radiale&amp;gt;">
          <g>
            <path class="cls-4" d="M49.93,99.59c-.81,0-1.46-.66-1.46-1.46s.66-1.46,1.46-1.46,1.46.66,1.46,1.46-.66,1.46-1.46,1.47h0Z"/>
            <path class="cls-1" d="M49.93,96.79c.74,0,1.34.6,1.34,1.34,0,.74-.6,1.34-1.34,1.34h0c-.74,0-1.34-.6-1.34-1.34,0-.74.6-1.34,1.34-1.34h0M49.93,96.54h0c-.88,0-1.59.71-1.59,1.59,0,.88.71,1.59,1.59,1.59.42,0,.82-.17,1.12-.47.3-.3.47-.7.47-1.12,0-.88-.71-1.59-1.59-1.59h0Z"/>
          </g>
        </g>
        <g id="_Répétition_radiale_-2" data-name="&amp;lt;Répétition radiale&amp;gt;">
          <g>
            <path class="cls-4" d="M37.51,97.9c-.13,0-.26-.02-.38-.05-.38-.1-.69-.34-.89-.68-.2-.34-.25-.73-.15-1.11.17-.64.75-1.09,1.42-1.09.13,0,.25.02.38.05.78.21,1.25,1.01,1.04,1.79-.17.64-.75,1.09-1.41,1.09Z"/>
            <path class="cls-1" d="M37.51,95.1c.11,0,.23.01.35.05.71.19,1.14.93.95,1.64-.16.6-.7.99-1.29.99-.11,0-.23-.01-.35-.05-.71-.19-1.14-.93-.95-1.64.16-.6.7-.99,1.29-.99M37.51,94.85h0c-.72,0-1.35.48-1.53,1.18-.23.85.28,1.72,1.12,1.95.13.04.27.05.41.05.72,0,1.35-.48,1.53-1.18.23-.85-.28-1.72-1.12-1.95-.13-.04-.27-.05-.41-.05h0Z"/>
          </g>
        </g>
        <g id="_Répétition_radiale_-3" data-name="&amp;lt;Répétition radiale&amp;gt;">
          <g>
            <path class="cls-4" d="M25.96,93.06c-.26,0-.51-.07-.73-.2-.7-.4-.94-1.3-.54-2,.26-.45.75-.73,1.27-.73.25,0,.51.07.73.2.7.4.94,1.3.54,2-.26.45-.75.73-1.27.73Z"/>
            <path class="cls-1" d="M25.96,90.26c.23,0,.46.06.67.18.64.37.86,1.19.49,1.83-.25.43-.7.67-1.16.67-.23,0-.46-.06-.67-.18-.64-.37-.86-1.19-.49-1.83.25-.43.7-.67,1.16-.67M25.96,90.01h0c-.57,0-1.1.3-1.38.8-.44.76-.18,1.73.58,2.17.24.14.52.21.79.21.57,0,1.1-.3,1.38-.8.44-.76.18-1.73-.58-2.17-.24-.14-.52-.21-.79-.21h0Z"/>
          </g>
        </g>
        <g id="_Répétition_radiale_-4" data-name="&amp;lt;Répétition radiale&amp;gt;">
          <g>
            <path class="cls-4" d="M16.04,85.39c-.39,0-.76-.15-1.04-.43-.28-.28-.43-.64-.43-1.04s.15-.76.43-1.04c.28-.28.64-.43,1.04-.43s.76.15,1.04.43c.28.28.43.64.43,1.04s-.15.76-.43,1.04c-.28.28-.64.43-1.04.43Z"/>
            <path class="cls-1" d="M16.04,82.59c.34,0,.69.13.95.39.52.52.52,1.37,0,1.89-.26.26-.6.39-.95.39s-.69-.13-.95-.39c-.52-.52-.52-1.37,0-1.89.26-.26.6-.39.95-.39M16.04,82.34h0c-.42,0-.82.17-1.12.47-.3.3-.47.7-.47,1.12,0,.42.17.82.47,1.12.3.3.7.47,1.12.47s.82-.17,1.12-.47c.3-.3.47-.7.47-1.12,0-.42-.17-.82-.47-1.12-.3-.3-.7-.47-1.12-.47h0Z"/>
          </g>
        </g>
        <g id="_Répétition_radiale_-5" data-name="&amp;lt;Répétition radiale&amp;gt;">
          <g>
            <path class="cls-4" d="M8.46,75.42c-.52,0-1.01-.28-1.27-.73-.2-.34-.25-.73-.15-1.11.1-.38.34-.69.68-.89.22-.13.48-.2.73-.2.52,0,1.01.28,1.27.73.4.7.16,1.6-.54,2-.22.13-.48.2-.73.2Z"/>
            <path class="cls-1" d="M8.46,72.61c.46,0,.91.24,1.16.67.37.64.15,1.46-.49,1.83-.21.12-.44.18-.67.18-.46,0-.91-.24-1.16-.67-.37-.64-.15-1.46.49-1.83.21-.12.44-.18.67-.18M8.46,72.36h0c-.28,0-.55.07-.79.21-.37.21-.63.56-.74.97-.11.41-.05.84.16,1.21.28.49.81.79,1.38.79.28,0,.55-.07.79-.21.37-.21.63-.56.74-.97.11-.41.05-.84-.16-1.21-.28-.49-.81-.79-1.38-.79h0Z"/>
          </g>
        </g>
        <g id="_Répétition_radiale_-6" data-name="&amp;lt;Répétition radiale&amp;gt;">
          <g>
            <path class="cls-4" d="M3.71,63.82c-.66,0-1.24-.45-1.42-1.08-.21-.78.26-1.59,1.04-1.79.12-.03.25-.05.38-.05.66,0,1.24.45,1.41,1.09.21.78-.26,1.58-1.04,1.79-.12.03-.25.05-.38.05Z"/>
            <path class="cls-1" d="M3.71,61.02c.59,0,1.13.39,1.29.99.19.71-.23,1.45-.95,1.64-.12.03-.23.05-.35.05-.59,0-1.13-.39-1.29-.99-.19-.71.23-1.45.95-1.64.12-.03.23-.05.35-.05M3.71,60.77h0c-.14,0-.28.02-.41.05-.85.23-1.35,1.1-1.12,1.95.19.69.82,1.18,1.53,1.18.14,0,.28-.02.41-.05.85-.23,1.35-1.1,1.12-1.95-.19-.69-.82-1.18-1.53-1.18h0Z"/>
          </g>
        </g>
        <g id="_Répétition_radiale_-7" data-name="&amp;lt;Répétition radiale&amp;gt;">
          <g>
            <path class="cls-4" d="M2.13,51.39c-.81,0-1.46-.66-1.46-1.46s.66-1.46,1.46-1.46c.39,0,.76.15,1.04.43s.43.64.43,1.04c0,.39-.15.76-.43,1.04-.28.28-.64.43-1.04.43Z"/>
            <path class="cls-1" d="M2.13,48.59c.74,0,1.34.6,1.34,1.34,0,.74-.6,1.34-1.34,1.34h0c-.74,0-1.34-.6-1.34-1.34,0-.74.6-1.34,1.34-1.34h0M2.13,48.34h0c-.42,0-.82.17-1.12.47-.3.3-.47.7-.47,1.12,0,.88.71,1.59,1.59,1.59.42,0,.82-.17,1.12-.47s.47-.7.47-1.12c0-.88-.71-1.59-1.59-1.59h0Z"/>
          </g>
        </g>
        <g id="_Répétition_radiale_-8" data-name="&amp;lt;Répétition radiale&amp;gt;">
          <g>
            <path class="cls-4" d="M3.81,38.98c-.13,0-.25-.02-.38-.05-.38-.1-.69-.34-.89-.68-.2-.34-.25-.73-.15-1.11.17-.64.75-1.09,1.41-1.09.13,0,.26.02.38.05.78.21,1.25,1.01,1.04,1.79-.17.64-.75,1.09-1.42,1.09Z"/>
            <path class="cls-1" d="M3.81,36.17c.11,0,.23.01.35.05.71.19,1.14.93.95,1.64-.16.6-.7.99-1.29.99-.11,0-.23-.01-.35-.05-.71-.19-1.14-.93-.95-1.64.16-.6.7-.99,1.29-.99M3.81,35.92h0c-.72,0-1.35.48-1.53,1.18-.23.85.28,1.72,1.12,1.95.13.04.27.05.41.05.72,0,1.35-.48,1.53-1.18.23-.85-.28-1.72-1.12-1.95-.13-.04-.27-.05-.41-.05h0Z"/>
          </g>
        </g>
        <g id="_Répétition_radiale_-9" data-name="&amp;lt;Répétition radiale&amp;gt;">
          <g>
            <path class="cls-4" d="M8.65,27.42c-.26,0-.51-.07-.73-.2-.34-.2-.58-.51-.68-.89-.1-.38-.05-.77.15-1.11.26-.45.75-.73,1.27-.73.26,0,.51.07.73.2.34.2.58.51.68.89.1.38.05.77-.15,1.11-.26.45-.75.73-1.27.73Z"/>
            <path class="cls-1" d="M8.66,24.62c.23,0,.46.06.67.18.64.37.86,1.19.49,1.83-.25.43-.7.67-1.16.67-.23,0-.46-.06-.67-.18-.64-.37-.86-1.19-.49-1.83.25-.43.7-.67,1.16-.67M8.66,24.37h0c-.57,0-1.1.3-1.38.8-.21.37-.27.8-.16,1.21s.37.75.74.97c.24.14.52.21.79.21.57,0,1.1-.3,1.38-.8.21-.37.27-.8.16-1.21-.11-.41-.37-.75-.74-.97-.24-.14-.52-.21-.79-.21h0Z"/>
          </g>
        </g>
        <g id="_Répétition_radiale_-10" data-name="&amp;lt;Répétition radiale&amp;gt;">
          <g>
            <path class="cls-4" d="M16.32,17.51c-.39,0-.76-.15-1.04-.43-.28-.28-.43-.64-.43-1.04s.15-.76.43-1.04.64-.43,1.04-.43.76.15,1.04.43c.28.28.43.64.43,1.04s-.15.76-.43,1.04c-.28.28-.64.43-1.04.43Z"/>
            <path class="cls-1" d="M16.32,14.71c.34,0,.69.13.95.39.52.52.52,1.37,0,1.89-.26.26-.6.39-.95.39s-.69-.13-.95-.39c-.52-.52-.52-1.37,0-1.89.26-.26.6-.39.95-.39M16.32,14.46h0c-.42,0-.82.17-1.12.47-.3.3-.47.7-.47,1.12,0,.42.17.82.47,1.12.3.3.7.47,1.12.47s.82-.17,1.12-.47c.3-.3.47-.7.47-1.12,0-.42-.17-.82-.47-1.12-.3-.3-.7-.47-1.12-.47h0Z"/>
          </g>
        </g>
        <g id="_Répétition_radiale_-11" data-name="&amp;lt;Répétition radiale&amp;gt;">
          <g>
            <path class="cls-4" d="M26.3,9.92c-.52,0-1.01-.28-1.27-.73-.4-.7-.16-1.6.54-2,.22-.13.48-.2.73-.2.52,0,1.01.28,1.27.73.4.7.16,1.6-.54,2-.22.13-.48.2-.73.2Z"/>
            <path class="cls-1" d="M26.29,7.12c.46,0,.91.24,1.16.67.37.64.15,1.46-.49,1.83-.21.12-.44.18-.67.18-.46,0-.91-.24-1.16-.67-.37-.64-.15-1.46.49-1.83.21-.12.44-.18.67-.18M26.29,6.87h0c-.28,0-.55.07-.79.21-.37.21-.63.56-.74.97-.11.41-.05.84.16,1.21.28.49.81.79,1.38.79.28,0,.55-.07.79-.21.37-.21.63-.56.74-.97.11-.41.05-.84-.16-1.21-.28-.49-.81-.79-1.38-.79h0Z"/>
          </g>
        </g>
        <g id="_Répétition_radiale_-12" data-name="&amp;lt;Répétition radiale&amp;gt;">
          <g>
            <path class="cls-4" d="M37.89,5.18c-.66,0-1.24-.45-1.41-1.09-.21-.78.26-1.58,1.04-1.79.12-.03.25-.05.38-.05.66,0,1.24.45,1.41,1.09.1.38.05.77-.15,1.11s-.51.58-.89.68c-.12.03-.25.05-.38.05Z"/>
            <path class="cls-1" d="M37.89,2.37c.59,0,1.13.39,1.29.99.19.71-.23,1.45-.95,1.64-.12.03-.23.05-.35.05-.59,0-1.13-.39-1.29-.99-.19-.71.23-1.45.95-1.64.12-.03.23-.05.35-.05M37.89,2.12h0c-.14,0-.28.02-.41.05-.85.23-1.35,1.1-1.12,1.95.19.69.82,1.18,1.53,1.18.14,0,.28-.02.41-.05.85-.23,1.35-1.1,1.12-1.95-.19-.69-.82-1.18-1.53-1.18h0Z"/>
          </g>
        </g>
        <g id="_Répétition_radiale_-13" data-name="&amp;lt;Répétition radiale&amp;gt;">
          <g>
            <path class="cls-4" d="M50.32,3.59c-.81,0-1.46-.66-1.46-1.46s.66-1.46,1.46-1.46,1.46.66,1.47,1.46c0,.81-.66,1.46-1.46,1.46Z"/>
            <path class="cls-1" d="M50.32.79c.74,0,1.34.6,1.34,1.34,0,.74-.6,1.34-1.34,1.34h0c-.74,0-1.34-.6-1.34-1.34,0-.74.6-1.34,1.34-1.34h0M50.32.54h0c-.42,0-.82.17-1.12.47s-.47.7-.47,1.12c0,.88.71,1.59,1.59,1.59.42,0,.82-.17,1.12-.47s.47-.7.47-1.12c0-.88-.71-1.59-1.59-1.59h0Z"/>
          </g>
        </g>
        <g id="_Répétition_radiale_-14" data-name="&amp;lt;Répétition radiale&amp;gt;">
          <g>
            <path class="cls-4" d="M62.74,5.28c-.13,0-.26-.02-.38-.05-.38-.1-.69-.34-.89-.68-.2-.34-.25-.73-.15-1.11.17-.64.75-1.09,1.41-1.09.13,0,.26.02.38.05.78.21,1.25,1.01,1.04,1.79-.17.64-.75,1.09-1.41,1.09Z"/>
            <path class="cls-1" d="M62.74,2.47c.11,0,.23.01.35.05.71.19,1.14.93.95,1.64-.16.6-.7.99-1.29.99-.11,0-.23-.01-.35-.05-.71-.19-1.14-.93-.95-1.64.16-.6.7-.99,1.29-.99M62.74,2.22h0c-.72,0-1.35.48-1.53,1.18-.11.41-.05.84.16,1.21.21.37.56.63.97.74.13.04.27.05.41.05.72,0,1.35-.48,1.53-1.18.23-.85-.28-1.72-1.12-1.95-.13-.04-.27-.05-.41-.05h0Z"/>
          </g>
        </g>
        <g id="_Répétition_radiale_-15" data-name="&amp;lt;Répétition radiale&amp;gt;">
          <g>
            <path class="cls-4" d="M74.29,10.12c-.26,0-.51-.07-.73-.2-.34-.2-.58-.51-.68-.89-.1-.38-.05-.77.15-1.11.26-.45.75-.73,1.27-.73.25,0,.51.07.73.2.34.2.58.51.68.89.1.38.05.77-.15,1.11-.26.45-.75.73-1.27.73Z"/>
            <path class="cls-1" d="M74.3,7.31c.23,0,.46.06.67.18.64.37.86,1.19.49,1.83-.25.43-.7.67-1.16.67-.23,0-.46-.06-.67-.18-.64-.37-.86-1.19-.49-1.83.25-.43.7-.67,1.16-.67M74.3,7.06h0c-.57,0-1.1.3-1.38.8-.44.76-.18,1.73.58,2.17.24.14.52.21.79.21.57,0,1.1-.3,1.38-.8.44-.76.18-1.73-.58-2.17-.24-.14-.52-.21-.79-.21h0Z"/>
          </g>
        </g>
        <g id="_Répétition_radiale_-16" data-name="&amp;lt;Répétition radiale&amp;gt;">
          <g>
            <path class="cls-4" d="M84.21,17.79c-.39,0-.76-.15-1.04-.43-.28-.28-.43-.64-.43-1.04s.15-.76.43-1.04c.28-.28.64-.43,1.04-.43s.76.15,1.04.43c.28.28.43.64.43,1.04s-.15.76-.43,1.04-.64.43-1.04.43Z"/>
            <path class="cls-1" d="M84.21,14.98c.34,0,.69.13.95.39.52.52.52,1.37,0,1.89-.26.26-.6.39-.95.39s-.69-.13-.95-.39c-.52-.52-.52-1.37,0-1.89.26-.26.6-.39.95-.39M84.21,14.73h0c-.42,0-.82.17-1.12.47-.3.3-.47.7-.47,1.12,0,.42.17.82.47,1.12.3.3.7.47,1.12.47s.82-.17,1.12-.47c.3-.3.47-.7.47-1.12,0-.42-.17-.82-.47-1.12-.3-.3-.7-.47-1.12-.47h0Z"/>
          </g>
        </g>
        <g id="_Répétition_radiale_-17" data-name="&amp;lt;Répétition radiale&amp;gt;">
          <g>
            <path class="cls-4" d="M91.79,27.76c-.52,0-1.01-.28-1.27-.73-.4-.7-.16-1.6.54-2,.22-.13.48-.2.73-.2.52,0,1.01.28,1.27.73.4.7.16,1.6-.54,2-.22.13-.48.2-.73.2Z"/>
            <path class="cls-1" d="M91.79,24.96c.46,0,.91.24,1.16.67.37.64.15,1.46-.49,1.83-.21.12-.44.18-.67.18-.46,0-.91-.24-1.16-.67-.37-.64-.15-1.46.49-1.83.21-.12.44-.18.67-.18M91.79,24.71h0c-.28,0-.55.07-.79.21-.37.21-.63.56-.74.97-.11.41-.05.84.16,1.21.28.49.81.79,1.38.79.28,0,.55-.07.79-.21.37-.21.63-.56.74-.97.11-.41.05-.84-.16-1.21-.28-.49-.81-.79-1.38-.79h0Z"/>
          </g>
        </g>
        <g id="_Répétition_radiale_-18" data-name="&amp;lt;Répétition radiale&amp;gt;">
          <g>
            <path class="cls-4" d="M96.54,39.36c-.66,0-1.24-.45-1.41-1.09-.21-.78.26-1.58,1.04-1.79.12-.03.25-.05.38-.05.66,0,1.24.45,1.42,1.09.21.78-.26,1.59-1.04,1.79-.12.03-.25.05-.38.05Z"/>
            <path class="cls-1" d="M96.54,36.55c.59,0,1.13.39,1.29.99.19.71-.23,1.45-.95,1.64-.12.03-.23.05-.35.05-.59,0-1.13-.39-1.29-.99-.19-.71.23-1.45.95-1.64.12-.03.23-.05.35-.05M96.54,36.3h0c-.14,0-.28.02-.41.05-.85.23-1.35,1.1-1.12,1.95.19.69.82,1.18,1.53,1.18.14,0,.28-.02.41-.05.85-.23,1.35-1.1,1.12-1.95-.19-.69-.82-1.18-1.53-1.18h0Z"/>
          </g>
        </g>
        <g id="_Répétition_radiale_-19" data-name="&amp;lt;Répétition radiale&amp;gt;">
          <g>
            <path class="cls-4" d="M98.12,51.79c-.81,0-1.46-.66-1.46-1.46s.66-1.46,1.46-1.46,1.46.66,1.47,1.46c0,.81-.66,1.46-1.46,1.47h0Z"/>
            <path class="cls-1" d="M98.12,48.98c.74,0,1.34.6,1.34,1.34,0,.74-.6,1.34-1.34,1.34h0c-.74,0-1.34-.6-1.34-1.34,0-.74.6-1.34,1.34-1.34h0M98.12,48.73h0c-.42,0-.82.17-1.12.47-.3.3-.47.7-.47,1.12,0,.88.71,1.59,1.59,1.59.42,0,.82-.17,1.12-.47.3-.3.47-.7.47-1.12,0-.88-.71-1.59-1.59-1.59h0Z"/>
          </g>
        </g>
        <g id="_Répétition_radiale_-20" data-name="&amp;lt;Répétition radiale&amp;gt;">
          <g>
            <path class="cls-4" d="M96.44,64.2c-.13,0-.26-.02-.38-.05-.78-.21-1.25-1.01-1.04-1.79.17-.64.75-1.09,1.41-1.09.13,0,.26.02.38.05.78.21,1.25,1.01,1.04,1.79-.17.64-.75,1.09-1.41,1.09Z"/>
            <path class="cls-1" d="M96.44,61.4c.11,0,.23.01.35.05.71.19,1.14.93.95,1.64-.16.6-.7.99-1.29.99-.11,0-.23-.01-.35-.05-.71-.19-1.14-.93-.95-1.64.16-.6.7-.99,1.29-.99M96.44,61.15h0c-.72,0-1.35.48-1.54,1.18-.23.85.28,1.72,1.12,1.95.13.04.27.05.41.05.72,0,1.35-.48,1.53-1.18.23-.85-.28-1.72-1.12-1.95-.13-.04-.27-.05-.41-.05h0Z"/>
          </g>
        </g>
        <g id="_Répétition_radiale_-21" data-name="&amp;lt;Répétition radiale&amp;gt;">
          <g>
            <path class="cls-4" d="M91.6,75.76c-.26,0-.51-.07-.73-.2-.34-.2-.58-.51-.68-.89-.1-.38-.05-.77.15-1.11.26-.45.75-.73,1.27-.73.26,0,.51.07.73.2.7.4.94,1.3.54,2-.26.45-.75.73-1.27.73Z"/>
            <path class="cls-1" d="M91.6,72.96c.23,0,.46.06.67.18.64.37.86,1.19.49,1.83-.25.43-.7.67-1.16.67-.23,0-.46-.06-.67-.18-.64-.37-.86-1.19-.49-1.83.25-.43.7-.67,1.16-.67M91.6,72.71h0c-.57,0-1.1.3-1.38.8-.21.37-.27.8-.16,1.21.11.41.37.75.74.97.24.14.52.21.79.21.57,0,1.1-.3,1.38-.8.21-.37.27-.8.16-1.21s-.37-.75-.74-.97c-.24-.14-.52-.21-.79-.21h0Z"/>
          </g>
        </g>
        <g id="_Répétition_radiale_-22" data-name="&amp;lt;Répétition radiale&amp;gt;">
          <g>
            <path class="cls-4" d="M83.93,85.67c-.39,0-.76-.15-1.04-.43-.28-.28-.43-.64-.43-1.04s.15-.76.43-1.04c.28-.28.64-.43,1.04-.43s.76.15,1.04.43c.28.28.43.64.43,1.04s-.15.76-.43,1.04c-.28.28-.64.43-1.04.43Z"/>
            <path class="cls-1" d="M83.93,82.87c.34,0,.69.13.95.39.52.52.52,1.37,0,1.89-.26.26-.6.39-.95.39s-.69-.13-.95-.39c-.52-.52-.52-1.37,0-1.89.26-.26.6-.39.95-.39M83.93,82.62h0c-.42,0-.82.17-1.12.47-.3.3-.47.7-.47,1.12,0,.42.17.82.47,1.12.3.3.7.47,1.12.47s.82-.17,1.12-.47c.3-.3.47-.7.47-1.12,0-.42-.17-.82-.47-1.12-.3-.3-.7-.47-1.12-.47h0Z"/>
          </g>
        </g>
        <g id="_Répétition_radiale_-23" data-name="&amp;lt;Répétition radiale&amp;gt;">
          <g>
            <path class="cls-4" d="M73.96,93.26c-.52,0-1.01-.28-1.27-.73-.4-.7-.16-1.6.54-2,.22-.13.48-.2.73-.2.52,0,1.01.28,1.27.73.4.7.16,1.6-.54,2-.22.13-.48.2-.73.2Z"/>
            <path class="cls-1" d="M73.95,90.45c.46,0,.91.24,1.16.67.37.64.15,1.46-.49,1.83-.21.12-.44.18-.67.18-.46,0-.91-.24-1.16-.67-.37-.64-.15-1.46.49-1.83.21-.12.44-.18.67-.18M73.95,90.2h0c-.28,0-.55.07-.79.21-.37.21-.63.56-.74.97-.11.41-.05.84.16,1.21.28.49.81.79,1.38.79.28,0,.55-.07.79-.21.37-.21.63-.56.74-.97.11-.41.05-.84-.16-1.21-.28-.49-.81-.79-1.38-.79h0Z"/>
          </g>
        </g>
        <g id="_Répétition_radiale_-24" data-name="&amp;lt;Répétition radiale&amp;gt;">
          <g>
            <path class="cls-4" d="M62.36,98c-.66,0-1.24-.45-1.42-1.09-.21-.78.26-1.58,1.04-1.79.12-.03.25-.05.38-.05.66,0,1.24.45,1.41,1.08.21.78-.26,1.59-1.04,1.79-.12.03-.25.05-.38.05Z"/>
            <path class="cls-1" d="M62.36,95.2c.59,0,1.13.39,1.29.99.19.71-.23,1.45-.95,1.64-.12.03-.23.05-.35.05-.59,0-1.13-.39-1.29-.99-.19-.71.23-1.45.95-1.64.12-.03.23-.05.35-.05M62.36,94.95h0c-.14,0-.28.02-.41.05-.85.23-1.35,1.1-1.12,1.95.19.69.82,1.18,1.53,1.18.14,0,.28-.02.41-.05.85-.23,1.35-1.1,1.12-1.95-.19-.69-.82-1.18-1.53-1.18h0Z"/>
          </g>
        </g>
      </g>
    </g>
  </g>
</svg>