<?xml version="1.0" encoding="UTF-8"?>
<svg id="Calque_2" data-name="Calque 2" xmlns="http://www.w3.org/2000/svg" viewBox="0 0 100 102">
  <defs>
    <style>
      .cls-1 {
        fill: #f4dc99;
      }

      .cls-2 {
        fill: #f0cd6e;
      }

      .cls-3 {
        fill: #9c8548;
      }

      .cls-4 {
        fill: #1d1513;
      }

      .cls-5 {
        fill: #6e4623;
      }
    </style>
  </defs>
  <g id="Bitcoin_final">
    <g>
      <g>
        <circle class="cls-3" cx="50" cy="52" r="50"/>
        <circle class="cls-1" cx="50" cy="50" r="50"/>
        <circle class="cls-2" cx="50" cy="51" r="50"/>
      </g>
      <g>
        <circle class="cls-1" cx="50" cy="52" r="46.95"/>
        <circle class="cls-3" cx="50" cy="50" r="46.95"/>
        <circle class="cls-5" cx="50" cy="51" r="47"/>
      </g>
      <g>
        <circle class="cls-1" cx="50" cy="50" r="42"/>
        <circle class="cls-3" cx="50" cy="52" r="42"/>
        <circle class="cls-2" cx="50" cy="51" r="42"/>
      </g>
      <g>
        <circle class="cls-1" cx="50" cy="52" r="40.5"/>
        <circle class="cls-3" cx="50" cy="50" r="40.5"/>
        <circle class="cls-5" cx="50" cy="51" r="40.5"/>
      </g>
      <g>
        <circle class="cls-1" cx="50" cy="50.13" r="36.5"/>
        <circle class="cls-3" cx="50" cy="51.87" r="36.5"/>
        <circle class="cls-2" cx="50" cy="51" r="36.5"/>
      </g>
      <g>
        <circle class="cls-1" cx="50" cy="51.5" r="35"/>
        <circle class="cls-3" cx="50" cy="50.5" r="35"/>
        <circle class="cls-5" cx="50" cy="51" r="35"/>
      </g>
      <g>
        <g id="_Répétition_radiale_" data-name="&amp;lt;Répétition radiale&amp;gt;">
          <circle class="cls-2" cx="50.01" cy="12" r="1"/>
        </g>
        <g id="_Répétition_radiale_-2" data-name="&amp;lt;Répétition radiale&amp;gt;">
          <circle class="cls-2" cx="62.06" cy="13.91" r="1"/>
        </g>
        <g id="_Répétition_radiale_-3" data-name="&amp;lt;Répétition radiale&amp;gt;">
          <circle class="cls-2" cx="72.93" cy="19.45" r="1"/>
        </g>
        <g id="_Répétition_radiale_-4" data-name="&amp;lt;Répétition radiale&amp;gt;">
          <circle class="cls-2" cx="81.56" cy="28.08" r="1"/>
        </g>
        <g id="_Répétition_radiale_-5" data-name="&amp;lt;Répétition radiale&amp;gt;">
          <circle class="cls-2" cx="87.09" cy="38.96" r="1"/>
        </g>
        <g id="_Répétition_radiale_-6" data-name="&amp;lt;Répétition radiale&amp;gt;">
          <circle class="cls-2" cx="89" cy="51.01" r="1"/>
        </g>
        <g id="_Répétition_radiale_-7" data-name="&amp;lt;Répétition radiale&amp;gt;">
          <circle class="cls-2" cx="87.09" cy="63.06" r="1"/>
        </g>
        <g id="_Répétition_radiale_-8" data-name="&amp;lt;Répétition radiale&amp;gt;">
          <circle class="cls-2" cx="81.55" cy="73.93" r="1"/>
        </g>
        <g id="_Répétition_radiale_-9" data-name="&amp;lt;Répétition radiale&amp;gt;">
          <circle class="cls-2" cx="72.92" cy="82.56" r="1"/>
        </g>
        <g id="_Répétition_radiale_-10" data-name="&amp;lt;Répétition radiale&amp;gt;">
          <circle class="cls-2" cx="62.04" cy="88.09" r="1"/>
        </g>
        <g id="_Répétition_radiale_-11" data-name="&amp;lt;Répétition radiale&amp;gt;">
          <circle class="cls-2" cx="49.99" cy="90" r="1"/>
        </g>
        <g id="_Répétition_radiale_-12" data-name="&amp;lt;Répétition radiale&amp;gt;">
          <circle class="cls-2" cx="37.94" cy="88.09" r="1"/>
        </g>
        <g id="_Répétition_radiale_-13" data-name="&amp;lt;Répétition radiale&amp;gt;">
          <circle class="cls-2" cx="27.07" cy="82.55" r="1"/>
        </g>
        <g id="_Répétition_radiale_-14" data-name="&amp;lt;Répétition radiale&amp;gt;">
          <circle class="cls-2" cx="18.44" cy="73.92" r="1"/>
        </g>
        <g id="_Répétition_radiale_-15" data-name="&amp;lt;Répétition radiale&amp;gt;">
          <circle class="cls-2" cx="12.91" cy="63.04" r="1"/>
        </g>
        <g id="_Répétition_radiale_-16" data-name="&amp;lt;Répétition radiale&amp;gt;">
          <circle class="cls-2" cx="11" cy="50.99" r="1"/>
        </g>
        <g id="_Répétition_radiale_-17" data-name="&amp;lt;Répétition radiale&amp;gt;">
          <circle class="cls-2" cx="12.91" cy="38.94" r="1"/>
        </g>
        <g id="_Répétition_radiale_-18" data-name="&amp;lt;Répétition radiale&amp;gt;">
          <circle class="cls-2" cx="18.45" cy="28.07" r="1"/>
        </g>
        <g id="_Répétition_radiale_-19" data-name="&amp;lt;Répétition radiale&amp;gt;">
          <circle class="cls-2" cx="27.08" cy="19.44" r="1"/>
        </g>
        <g id="_Répétition_radiale_-20" data-name="&amp;lt;Répétition radiale&amp;gt;">
          <circle class="cls-2" cx="37.96" cy="13.91" r="1"/>
        </g>
      </g>
      <g>
        <g id="_Répétition_radiale_-21" data-name="&amp;lt;Répétition radiale&amp;gt;">
          <circle class="cls-2" cx="95.1" cy="50.21" r="1"/>
        </g>
        <g id="_Répétition_radiale_-22" data-name="&amp;lt;Répétition radiale&amp;gt;">
          <circle class="cls-2" cx="94.78" cy="56.25" r="1"/>
        </g>
        <g id="_Répétition_radiale_-23" data-name="&amp;lt;Répétition radiale&amp;gt;">
          <circle class="cls-2" cx="93.65" cy="62.2" r="1"/>
        </g>
        <g id="_Répétition_radiale_-24" data-name="&amp;lt;Répétition radiale&amp;gt;">
          <circle class="cls-2" cx="91.74" cy="67.95" r="1"/>
        </g>
        <g id="_Répétition_radiale_-25" data-name="&amp;lt;Répétition radiale&amp;gt;">
          <circle class="cls-2" cx="89.07" cy="73.38" r="1"/>
        </g>
        <g id="_Répétition_radiale_-26" data-name="&amp;lt;Répétition radiale&amp;gt;">
          <circle class="cls-2" cx="85.7" cy="78.41" r="1"/>
        </g>
        <g id="_Répétition_radiale_-27" data-name="&amp;lt;Répétition radiale&amp;gt;">
          <circle class="cls-2" cx="81.68" cy="82.94" r="1"/>
        </g>
        <g id="_Répétition_radiale_-28" data-name="&amp;lt;Répétition radiale&amp;gt;">
          <circle class="cls-2" cx="77.09" cy="86.89" r="1"/>
        </g>
        <g id="_Répétition_radiale_-29" data-name="&amp;lt;Répétition radiale&amp;gt;">
          <circle class="cls-2" cx="72.02" cy="90.18" r="1"/>
        </g>
        <g id="_Répétition_radiale_-30" data-name="&amp;lt;Répétition radiale&amp;gt;">
          <circle class="cls-2" cx="66.54" cy="92.77" r="1"/>
        </g>
        <g id="_Répétition_radiale_-31" data-name="&amp;lt;Répétition radiale&amp;gt;">
          <circle class="cls-2" cx="60.77" cy="94.6" r="1"/>
        </g>
        <g id="_Répétition_radiale_-32" data-name="&amp;lt;Répétition radiale&amp;gt;">
          <circle class="cls-2" cx="54.81" cy="95.63" r="1"/>
        </g>
        <g id="_Répétition_radiale_-33" data-name="&amp;lt;Répétition radiale&amp;gt;">
          <circle class="cls-2" cx="48.75" cy="95.86" r="1"/>
        </g>
        <g id="_Répétition_radiale_-34" data-name="&amp;lt;Répétition radiale&amp;gt;">
          <circle class="cls-2" cx="42.73" cy="95.27" r="1"/>
        </g>
        <g id="_Répétition_radiale_-35" data-name="&amp;lt;Répétition radiale&amp;gt;">
          <circle class="cls-2" cx="36.84" cy="93.88" r="1"/>
        </g>
        <g id="_Répétition_radiale_-36" data-name="&amp;lt;Répétition radiale&amp;gt;">
          <circle class="cls-2" cx="31.19" cy="91.71" r="1"/>
        </g>
        <g id="_Répétition_radiale_-37" data-name="&amp;lt;Répétition radiale&amp;gt;">
          <circle class="cls-2" cx="25.88" cy="88.8" r="1"/>
        </g>
        <g id="_Répétition_radiale_-38" data-name="&amp;lt;Répétition radiale&amp;gt;">
          <circle class="cls-2" cx="21" cy="85.21" r="1"/>
        </g>
        <g id="_Répétition_radiale_-39" data-name="&amp;lt;Répétition radiale&amp;gt;">
          <circle class="cls-2" cx="16.66" cy="80.99" r="1"/>
        </g>
        <g id="_Répétition_radiale_-40" data-name="&amp;lt;Répétition radiale&amp;gt;">
          <circle class="cls-2" cx="12.92" cy="76.23" r="1"/>
        </g>
        <g id="_Répétition_radiale_-41" data-name="&amp;lt;Répétition radiale&amp;gt;">
          <circle class="cls-2" cx="9.85" cy="71.01" r="1"/>
        </g>
        <g id="_Répétition_radiale_-42" data-name="&amp;lt;Répétition radiale&amp;gt;">
          <circle class="cls-2" cx="7.52" cy="65.42" r="1"/>
        </g>
        <g id="_Répétition_radiale_-43" data-name="&amp;lt;Répétition radiale&amp;gt;">
          <circle class="cls-2" cx="5.95" cy="59.57" r="1"/>
        </g>
        <g id="_Répétition_radiale_-44" data-name="&amp;lt;Répétition radiale&amp;gt;">
          <circle class="cls-2" cx="5.18" cy="53.57" r="1"/>
        </g>
        <g id="_Répétition_radiale_-45" data-name="&amp;lt;Répétition radiale&amp;gt;">
          <circle class="cls-2" cx="5.23" cy="47.51" r="1"/>
        </g>
        <g id="_Répétition_radiale_-46" data-name="&amp;lt;Répétition radiale&amp;gt;">
          <circle class="cls-2" cx="6.09" cy="41.52" r="1"/>
        </g>
        <g id="_Répétition_radiale_-47" data-name="&amp;lt;Répétition radiale&amp;gt;">
          <circle class="cls-2" cx="7.74" cy="35.7" r="1"/>
        </g>
        <g id="_Répétition_radiale_-48" data-name="&amp;lt;Répétition radiale&amp;gt;">
          <circle class="cls-2" cx="10.16" cy="30.15" r="1"/>
        </g>
        <g id="_Répétition_radiale_-49" data-name="&amp;lt;Répétition radiale&amp;gt;">
          <circle class="cls-2" cx="13.31" cy="24.97" r="1"/>
        </g>
        <g id="_Répétition_radiale_-50" data-name="&amp;lt;Répétition radiale&amp;gt;">
          <circle class="cls-2" cx="17.12" cy="20.27" r="1"/>
        </g>
        <g id="_Répétition_radiale_-51" data-name="&amp;lt;Répétition radiale&amp;gt;">
          <circle class="cls-2" cx="21.52" cy="16.12" r="1"/>
        </g>
        <g id="_Répétition_radiale_-52" data-name="&amp;lt;Répétition radiale&amp;gt;">
          <circle class="cls-2" cx="26.45" cy="12.6" r="1"/>
        </g>
        <g id="_Répétition_radiale_-53" data-name="&amp;lt;Répétition radiale&amp;gt;">
          <circle class="cls-2" cx="31.8" cy="9.77" r="1"/>
        </g>
        <g id="_Répétition_radiale_-54" data-name="&amp;lt;Répétition radiale&amp;gt;">
          <circle class="cls-2" cx="37.49" cy="7.68" r="1"/>
        </g>
        <g id="_Répétition_radiale_-55" data-name="&amp;lt;Répétition radiale&amp;gt;">
          <circle class="cls-2" cx="43.4" cy="6.38" r="1"/>
        </g>
        <g id="_Répétition_radiale_-56" data-name="&amp;lt;Répétition radiale&amp;gt;">
          <circle class="cls-2" cx="49.43" cy="5.88" r="1"/>
        </g>
      </g>
      <g>
        <rect class="cls-3" x="91.9" y="50" width="5.2" height="2"/>
        <rect class="cls-1" x="91.9" y="48" width="5.2" height="2"/>
        <rect class="cls-2" x="91.9" y="49" width="5.2" height="2"/>
      </g>
      <g>
        <path class="cls-3" d="M67,55h-2v-2h-4v-2h-2v-2h4v-4h2v-8h-2s0-4,0-4h-2v-2h-4v-2h-26v4h4v36h-4v4h24v-2h6v-2h4v-2h2v-12ZM59,65h-2v2h-4v2h-12v-16h12v2h4v2h2v2h2v4h-2v2ZM59,45h-2v2h-4v2h-12v-16h12v2h4v2h2v8ZM45,29h-4v-6h4v6ZM53,29h-4v-6h4v6ZM45,79h-4v-6h4v6ZM53,79h-4v-6h4v6Z"/>
        <path class="cls-3" d="M68,56h-2v-2h-4v-2h-2v-2h4v-4h2v-8h-2s0-4,0-4h-2v-2h-4v-2h-26v4h4v36h-4v4h24v-2h6v-2h4v-2h2v-12ZM60,66h-2v2h-4v2h-12v-16h12v2h4v2h2v2h2v4h-2v2ZM60,46h-2v2h-4v2h-12v-16h12v2h4v2h2v8ZM46,30h-4v-6h4v6ZM54,30h-4v-6h4v6ZM46,80h-4v-6h4v6ZM54,80h-4v-6h4v6Z"/>
        <path class="cls-1" d="M69,55h-2v-2h-4v-2h-2v-2h4v-4h2v-8h-2s0-4,0-4h-2v-2h-4v-2h-26v4h4v36h-4v4h24v-2h6v-2h4v-2h2v-12ZM61,65h-2v2h-4v2h-12v-16h12v2h4v2h2v2h2v4h-2v2ZM61,45h-2v2h-4v2h-12v-16h12v2h4v2h2v8ZM47,29h-4v-6h4v6ZM55,29h-4v-6h4v6ZM47,79h-4v-6h4v6ZM55,79h-4v-6h4v6Z"/>
        <path class="cls-1" d="M68,54h-2v-2h-4v-2h-2v-2h4v-4h2v-8h-2s0-4,0-4h-2v-2h-4v-2h-26v4h4v36h-4v4h24v-2h6v-2h4v-2h2v-12ZM60,64h-2v2h-4v2h-12v-16h12v2h4v2h2v2h2v4h-2v2ZM60,44h-2v2h-4v2h-12v-16h12v2h4v2h2v8ZM46,28h-4v-6h4v6ZM54,28h-4v-6h4v6ZM46,78h-4v-6h4v6ZM54,78h-4v-6h4v6Z"/>
        <path class="cls-4" d="M68,55h-2v-2h-4v-2h-2v-2h4v-4h2v-8h-2s0-4,0-4h-2v-2h-4v-2h-26v4h4v36h-4v4h24v-2h6v-2h4v-2h2v-12ZM60,65h-2v2h-4v2h-12v-16h12v2h4v2h2v2h2v4h-2v2ZM60,45h-2v2h-4v2h-12v-16h12v2h4v2h2v8ZM46,29h-4v-6h4v6ZM54,29h-4v-6h4v6ZM46,79h-4v-6h4v6ZM54,79h-4v-6h4v6Z"/>
      </g>
      <rect class="cls-2" x="48" y="3" width="4" height="6"/>
    </g>
  </g>
</svg>