<?xml version="1.0" encoding="UTF-8"?>
<svg id="Calque_2" data-name="Calque 2" xmlns="http://www.w3.org/2000/svg" viewBox="0 0 100 101">
  <defs>
    <style>
      .cls-1, .cls-2 {
        fill: #ffda5f;
      }

      .cls-3, .cls-4 {
        fill: #a68e3e;
      }

      .cls-2, .cls-4, .cls-5 {
        font-family: MyriadPro-Regular, 'Myriad Pro';
        font-size: 11.32px;
      }

      .cls-6 {
        fill: #eab831;
      }

      .cls-7, .cls-5 {
        fill: #ffe58f;
      }
    </style>
  </defs>
  <g id="USD_final">
    <g>
      <circle class="cls-3" cx="50" cy="51" r="50"/>
      <circle class="cls-7" cx="50" cy="50" r="50"/>
      <ellipse class="cls-1" cx="50" cy="51" rx="50" ry="49"/>
      <circle class="cls-7" cx="50" cy="53" r="41"/>
      <circle class="cls-3" cx="50" cy="50" r="41"/>
      <circle class="cls-6" cx="50" cy="51.5" r="40.5"/>
      <g id="Symbole">
        <g>
          <g>
            <rect class="cls-3" x="47" y="20.5" width="6" height="53"/>
            <path class="cls-3" d="M50,24.5c-8.78,0-16,5.87-16,13s7.22,13,16,13v-7c-4.94,0-9-2.71-9-6s4.06-6,9-6,9,2.71,9,6h7c0-7.13-7.22-13-16-13Z"/>
            <path class="cls-3" d="M50,69.5c9.33,0,17-5.87,17-13s-7.67-13-17-13v7c5.25,0,9.56,2.71,9.56,6s-4.32,6-9.56,6-9.56-2.71-9.56-6h-7.44c0,7.13,7.67,13,17,13Z"/>
          </g>
          <g>
            <rect class="cls-7" x="47" y="18.5" width="6" height="53"/>
            <path class="cls-7" d="M50,22.5c-8.78,0-16,5.87-16,13s7.22,13,16,13v-7c-4.94,0-9-2.71-9-6s4.06-6,9-6,9,2.71,9,6h7c0-7.13-7.22-13-16-13Z"/>
            <path class="cls-7" d="M50,67.5c9.33,0,17-5.87,17-13s-7.67-13-17-13v7c5.25,0,9.56,2.71,9.56,6s-4.32,6-9.56,6-9.56-2.71-9.56-6h-7.44c0,7.13,7.67,13,17,13Z"/>
          </g>
          <g>
            <rect class="cls-1" x="47" y="19.5" width="6" height="53"/>
            <path class="cls-1" d="M50,23.5c-8.78,0-16,5.87-16,13s7.22,13,16,13v-7c-4.94,0-9-2.71-9-6s4.06-6,9-6,9,2.71,9,6h7c0-7.13-7.22-13-16-13Z"/>
            <path class="cls-1" d="M50,68.5c9.33,0,17-5.87,17-13s-7.67-13-17-13v7c5.25,0,9.56,2.71,9.56,6s-4.32,6-9.56,6-9.56-2.71-9.56-6h-7.44c0,7.13,7.67,13,17,13Z"/>
          </g>
        </g>
      </g>
      <g>
        <g id="_Répétition_radiale_" data-name="&amp;lt;Répétition radiale&amp;gt;">
          <circle class="cls-6" cx="50.01" cy="97.34" r="1.3"/>
        </g>
        <g id="_Répétition_radiale_-2" data-name="&amp;lt;Répétition radiale&amp;gt;">
          <circle class="cls-6" cx="45.16" cy="97.09" r="1.3"/>
        </g>
        <g id="_Répétition_radiale_-3" data-name="&amp;lt;Répétition radiale&amp;gt;">
          <circle class="cls-6" cx="40.37" cy="96.33" r="1.3"/>
        </g>
        <g id="_Répétition_radiale_-4" data-name="&amp;lt;Répétition radiale&amp;gt;">
          <circle class="cls-6" cx="35.69" cy="95.07" r="1.3"/>
        </g>
        <g id="_Répétition_radiale_-5" data-name="&amp;lt;Répétition radiale&amp;gt;">
          <circle class="cls-6" cx="31.16" cy="93.34" r="1.3"/>
        </g>
        <g id="_Répétition_radiale_-6" data-name="&amp;lt;Répétition radiale&amp;gt;">
          <circle class="cls-6" cx="26.84" cy="91.13" r="1.3"/>
        </g>
        <g id="_Répétition_radiale_-7" data-name="&amp;lt;Répétition radiale&amp;gt;">
          <circle class="cls-6" cx="22.77" cy="88.49" r="1.3"/>
        </g>
        <g id="_Répétition_radiale_-8" data-name="&amp;lt;Répétition radiale&amp;gt;">
          <circle class="cls-6" cx="19" cy="85.44" r="1.3"/>
        </g>
        <g id="_Répétition_radiale_-9" data-name="&amp;lt;Répétition radiale&amp;gt;">
          <circle class="cls-6" cx="15.57" cy="82.01" r="1.3"/>
        </g>
        <g id="_Répétition_radiale_-10" data-name="&amp;lt;Répétition radiale&amp;gt;">
          <circle class="cls-6" cx="12.52" cy="78.24" r="1.3"/>
        </g>
        <g id="_Répétition_radiale_-11" data-name="&amp;lt;Répétition radiale&amp;gt;">
          <circle class="cls-6" cx="9.87" cy="74.18" r="1.3"/>
        </g>
        <g id="_Répétition_radiale_-12" data-name="&amp;lt;Répétition radiale&amp;gt;">
          <circle class="cls-6" cx="7.67" cy="69.85" r="1.3"/>
        </g>
        <g id="_Répétition_radiale_-13" data-name="&amp;lt;Répétition radiale&amp;gt;">
          <circle class="cls-6" cx="5.93" cy="65.33" r="1.3"/>
        </g>
        <g id="_Répétition_radiale_-14" data-name="&amp;lt;Répétition radiale&amp;gt;">
          <circle class="cls-6" cx="4.68" cy="60.64" r="1.3"/>
        </g>
        <g id="_Répétition_radiale_-15" data-name="&amp;lt;Répétition radiale&amp;gt;">
          <circle class="cls-6" cx="3.92" cy="55.85" r="1.3"/>
        </g>
        <g id="_Répétition_radiale_-16" data-name="&amp;lt;Répétition radiale&amp;gt;">
          <circle class="cls-6" cx="3.66" cy="51.01" r="1.3"/>
        </g>
        <g id="_Répétition_radiale_-17" data-name="&amp;lt;Répétition radiale&amp;gt;">
          <circle class="cls-6" cx="3.91" cy="46.16" r="1.3"/>
        </g>
        <g id="_Répétition_radiale_-18" data-name="&amp;lt;Répétition radiale&amp;gt;">
          <circle class="cls-6" cx="4.67" cy="41.37" r="1.3"/>
        </g>
        <g id="_Répétition_radiale_-19" data-name="&amp;lt;Répétition radiale&amp;gt;">
          <circle class="cls-6" cx="5.93" cy="36.69" r="1.3"/>
        </g>
        <g id="_Répétition_radiale_-20" data-name="&amp;lt;Répétition radiale&amp;gt;">
          <circle class="cls-6" cx="7.66" cy="32.16" r="1.3"/>
        </g>
        <g id="_Répétition_radiale_-21" data-name="&amp;lt;Répétition radiale&amp;gt;">
          <circle class="cls-6" cx="9.87" cy="27.84" r="1.3"/>
        </g>
        <g id="_Répétition_radiale_-22" data-name="&amp;lt;Répétition radiale&amp;gt;">
          <circle class="cls-6" cx="12.51" cy="23.77" r="1.3"/>
        </g>
        <g id="_Répétition_radiale_-23" data-name="&amp;lt;Répétition radiale&amp;gt;">
          <circle class="cls-6" cx="15.56" cy="20" r="1.3"/>
        </g>
        <g id="_Répétition_radiale_-24" data-name="&amp;lt;Répétition radiale&amp;gt;">
          <circle class="cls-6" cx="18.99" cy="16.57" r="1.3"/>
        </g>
        <g id="_Répétition_radiale_-25" data-name="&amp;lt;Répétition radiale&amp;gt;">
          <circle class="cls-6" cx="22.76" cy="13.52" r="1.3"/>
        </g>
        <g id="_Répétition_radiale_-26" data-name="&amp;lt;Répétition radiale&amp;gt;">
          <circle class="cls-6" cx="26.82" cy="10.87" r="1.3"/>
        </g>
        <g id="_Répétition_radiale_-27" data-name="&amp;lt;Répétition radiale&amp;gt;">
          <circle class="cls-6" cx="31.15" cy="8.67" r="1.3"/>
        </g>
        <g id="_Répétition_radiale_-28" data-name="&amp;lt;Répétition radiale&amp;gt;">
          <circle class="cls-6" cx="35.67" cy="6.93" r="1.3"/>
        </g>
        <g id="_Répétition_radiale_-29" data-name="&amp;lt;Répétition radiale&amp;gt;">
          <circle class="cls-6" cx="40.36" cy="5.68" r="1.3"/>
        </g>
        <g id="_Répétition_radiale_-30" data-name="&amp;lt;Répétition radiale&amp;gt;">
          <circle class="cls-6" cx="45.15" cy="4.92" r="1.3"/>
        </g>
        <g id="_Répétition_radiale_-31" data-name="&amp;lt;Répétition radiale&amp;gt;">
          <circle class="cls-6" cx="49.99" cy="4.66" r="1.3"/>
        </g>
        <g id="_Répétition_radiale_-32" data-name="&amp;lt;Répétition radiale&amp;gt;">
          <circle class="cls-6" cx="54.84" cy="4.91" r="1.3"/>
        </g>
        <g id="_Répétition_radiale_-33" data-name="&amp;lt;Répétition radiale&amp;gt;">
          <circle class="cls-6" cx="59.63" cy="5.67" r="1.3"/>
        </g>
        <g id="_Répétition_radiale_-34" data-name="&amp;lt;Répétition radiale&amp;gt;">
          <circle class="cls-6" cx="64.31" cy="6.93" r="1.3"/>
        </g>
        <g id="_Répétition_radiale_-35" data-name="&amp;lt;Répétition radiale&amp;gt;">
          <circle class="cls-6" cx="68.84" cy="8.66" r="1.3"/>
        </g>
        <g id="_Répétition_radiale_-36" data-name="&amp;lt;Répétition radiale&amp;gt;">
          <circle class="cls-6" cx="73.16" cy="10.87" r="1.3"/>
        </g>
        <g id="_Répétition_radiale_-37" data-name="&amp;lt;Répétition radiale&amp;gt;">
          <circle class="cls-6" cx="77.23" cy="13.51" r="1.3"/>
        </g>
        <g id="_Répétition_radiale_-38" data-name="&amp;lt;Répétition radiale&amp;gt;">
          <circle class="cls-6" cx="81" cy="16.56" r="1.3"/>
        </g>
        <g id="_Répétition_radiale_-39" data-name="&amp;lt;Répétition radiale&amp;gt;">
          <circle class="cls-6" cx="84.43" cy="19.99" r="1.3"/>
        </g>
        <g id="_Répétition_radiale_-40" data-name="&amp;lt;Répétition radiale&amp;gt;">
          <circle class="cls-6" cx="87.48" cy="23.76" r="1.3"/>
        </g>
        <g id="_Répétition_radiale_-41" data-name="&amp;lt;Répétition radiale&amp;gt;">
          <circle class="cls-6" cx="90.13" cy="27.82" r="1.3"/>
        </g>
        <g id="_Répétition_radiale_-42" data-name="&amp;lt;Répétition radiale&amp;gt;">
          <circle class="cls-6" cx="92.33" cy="32.15" r="1.3"/>
        </g>
        <g id="_Répétition_radiale_-43" data-name="&amp;lt;Répétition radiale&amp;gt;">
          <circle class="cls-6" cx="94.07" cy="36.67" r="1.3"/>
        </g>
        <g id="_Répétition_radiale_-44" data-name="&amp;lt;Répétition radiale&amp;gt;">
          <circle class="cls-6" cx="95.32" cy="41.36" r="1.3"/>
        </g>
        <g id="_Répétition_radiale_-45" data-name="&amp;lt;Répétition radiale&amp;gt;">
          <circle class="cls-6" cx="96.08" cy="46.15" r="1.3"/>
        </g>
        <g id="_Répétition_radiale_-46" data-name="&amp;lt;Répétition radiale&amp;gt;">
          <circle class="cls-6" cx="96.34" cy="50.99" r="1.3"/>
        </g>
        <g id="_Répétition_radiale_-47" data-name="&amp;lt;Répétition radiale&amp;gt;">
          <circle class="cls-6" cx="96.09" cy="55.84" r="1.3"/>
        </g>
        <g id="_Répétition_radiale_-48" data-name="&amp;lt;Répétition radiale&amp;gt;">
          <circle class="cls-6" cx="95.33" cy="60.63" r="1.3"/>
        </g>
        <g id="_Répétition_radiale_-49" data-name="&amp;lt;Répétition radiale&amp;gt;">
          <circle class="cls-6" cx="94.07" cy="65.31" r="1.3"/>
        </g>
        <g id="_Répétition_radiale_-50" data-name="&amp;lt;Répétition radiale&amp;gt;">
          <circle class="cls-6" cx="92.34" cy="69.84" r="1.3"/>
        </g>
        <g id="_Répétition_radiale_-51" data-name="&amp;lt;Répétition radiale&amp;gt;">
          <circle class="cls-6" cx="90.13" cy="74.16" r="1.3"/>
        </g>
        <g id="_Répétition_radiale_-52" data-name="&amp;lt;Répétition radiale&amp;gt;">
          <circle class="cls-6" cx="87.49" cy="78.23" r="1.3"/>
        </g>
        <g id="_Répétition_radiale_-53" data-name="&amp;lt;Répétition radiale&amp;gt;">
          <circle class="cls-6" cx="84.44" cy="82" r="1.3"/>
        </g>
        <g id="_Répétition_radiale_-54" data-name="&amp;lt;Répétition radiale&amp;gt;">
          <circle class="cls-6" cx="81.01" cy="85.43" r="1.3"/>
        </g>
        <g id="_Répétition_radiale_-55" data-name="&amp;lt;Répétition radiale&amp;gt;">
          <circle class="cls-6" cx="77.24" cy="88.48" r="1.3"/>
        </g>
        <g id="_Répétition_radiale_-56" data-name="&amp;lt;Répétition radiale&amp;gt;">
          <circle class="cls-6" cx="73.18" cy="91.13" r="1.3"/>
        </g>
        <g id="_Répétition_radiale_-57" data-name="&amp;lt;Répétition radiale&amp;gt;">
          <circle class="cls-6" cx="68.85" cy="93.33" r="1.3"/>
        </g>
        <g id="_Répétition_radiale_-58" data-name="&amp;lt;Répétition radiale&amp;gt;">
          <circle class="cls-6" cx="64.33" cy="95.07" r="1.3"/>
        </g>
        <g id="_Répétition_radiale_-59" data-name="&amp;lt;Répétition radiale&amp;gt;">
          <circle class="cls-6" cx="59.64" cy="96.32" r="1.3"/>
        </g>
        <g id="_Répétition_radiale_-60" data-name="&amp;lt;Répétition radiale&amp;gt;">
          <circle class="cls-6" cx="54.85" cy="97.08" r="1.3"/>
        </g>
      </g>
      <g>
        <text class="cls-4" transform="translate(24.82 78.67) rotate(36.3)"><tspan x="0" y="0">O</tspan></text>
        <text class="cls-4" transform="translate(32.05 83.78) rotate(23.15)"><tspan x="0" y="0">N</tspan></text>
        <text class="cls-4" transform="translate(39.73 86.89) rotate(12.7)"><tspan x="0" y="0">E</tspan></text>
        <text class="cls-4" transform="translate(45.69 88.11) rotate(6.42)"><tspan x="0" y="0"> </tspan></text>
        <text class="cls-4" transform="translate(48.05 88.46) rotate(.81)"><tspan x="0" y="0">T</tspan></text>
        <text class="cls-4" transform="translate(54.21 88.43) rotate(-5.97)"><tspan x="0" y="0">I</tspan></text>
        <text class="cls-4" transform="translate(57.6 88.2) rotate(-14.56)"><tspan x="0" y="0">G</tspan></text>
        <text class="cls-4" transform="translate(65.59 85.93) rotate(-26.77)"><tspan x="0" y="0">E</tspan></text>
        <text class="cls-4" transform="translate(71.41 82.92) rotate(-38.94)"><tspan x="0" y="0">R</tspan></text>
        <g>
          <text class="cls-5" transform="translate(24.82 77.67) rotate(36.3)"><tspan x="0" y="0">O</tspan></text>
          <text class="cls-5" transform="translate(32.05 82.78) rotate(23.15)"><tspan x="0" y="0">N</tspan></text>
          <text class="cls-5" transform="translate(39.73 85.89) rotate(12.7)"><tspan x="0" y="0">E</tspan></text>
          <text class="cls-5" transform="translate(45.69 87.11) rotate(6.42)"><tspan x="0" y="0"> </tspan></text>
          <text class="cls-5" transform="translate(48.05 87.46) rotate(.81)"><tspan x="0" y="0">T</tspan></text>
          <text class="cls-5" transform="translate(54.21 87.43) rotate(-5.97)"><tspan x="0" y="0">I</tspan></text>
          <text class="cls-5" transform="translate(57.6 87.2) rotate(-14.56)"><tspan x="0" y="0">G</tspan></text>
          <text class="cls-5" transform="translate(65.59 84.93) rotate(-26.77)"><tspan x="0" y="0">E</tspan></text>
          <text class="cls-5" transform="translate(71.41 81.92) rotate(-38.94)"><tspan x="0" y="0">R</tspan></text>
        </g>
        <text class="cls-2" transform="translate(24.82 78.17) rotate(36.3)"><tspan x="0" y="0">O</tspan></text>
        <text class="cls-2" transform="translate(32.05 83.28) rotate(23.15)"><tspan x="0" y="0">N</tspan></text>
        <text class="cls-2" transform="translate(39.73 86.39) rotate(12.7)"><tspan x="0" y="0">E</tspan></text>
        <text class="cls-2" transform="translate(45.69 87.61) rotate(6.42)"><tspan x="0" y="0"> </tspan></text>
        <text class="cls-2" transform="translate(48.05 87.96) rotate(.81)"><tspan x="0" y="0">T</tspan></text>
        <text class="cls-2" transform="translate(54.21 87.93) rotate(-5.97)"><tspan x="0" y="0">I</tspan></text>
        <text class="cls-2" transform="translate(57.6 87.7) rotate(-14.56)"><tspan x="0" y="0">G</tspan></text>
        <text class="cls-2" transform="translate(65.59 85.43) rotate(-26.77)"><tspan x="0" y="0">E</tspan></text>
        <text class="cls-2" transform="translate(71.41 82.42) rotate(-38.94)"><tspan x="0" y="0">R</tspan></text>
      </g>
    </g>
  </g>
</svg>