<?xml version="1.0" encoding="UTF-8"?>
<svg id="Calque_2" data-name="Calque 2" xmlns="http://www.w3.org/2000/svg" viewBox="0 0 100.5 100.5">
  <defs>
    <style>
      .cls-1 {
        fill: #dedddb;
      }

      .cls-2 {
        fill: #646464;
      }

      .cls-3 {
        fill: #575652;
      }

      .cls-4 {
        fill: #999;
      }
    </style>
  </defs>
  <g id="Yen_final">
    <g>
      <g>
        <path class="cls-4" d="M50.25,100c-.86,0-1.72-.02-2.59-.07C22.53,98.66,1.84,77.97.57,52.84-.13,39.04,4.7,25.95,14.19,15.98,23.67,6,36.48.5,50.25.5c.86,0,1.72.02,2.59.07,25.13,1.27,45.82,21.96,47.09,47.1.7,13.8-4.14,26.89-13.62,36.86-9.49,9.98-22.29,15.48-36.06,15.48h0ZM50.25,37c-7.31,0-13.25,5.94-13.25,13.25s5.94,13.25,13.25,13.25,13.25-5.94,13.25-13.25-5.94-13.25-13.25-13.25Z"/>
        <path class="cls-2" d="M50.25.75c.85,0,1.72.02,2.58.07,12.16.62,23.66,5.76,32.38,14.48,8.72,8.72,13.86,20.22,14.48,32.38.7,13.73-4.12,26.75-13.55,36.68-9.44,9.93-22.18,15.4-35.88,15.4-.85,0-1.72-.02-2.58-.07-12.16-.62-23.66-5.76-32.38-14.48C6.57,76.49,1.43,64.99.82,52.83.12,39.1,4.93,26.08,14.37,16.15,23.81,6.22,36.55.75,50.25.75M50.25,63.75c7.44,0,13.5-6.06,13.5-13.5s-6.06-13.5-13.5-13.5-13.5,6.06-13.5,13.5,6.06,13.5,13.5,13.5M50.25.25C21.77.25-1.14,24.05.32,52.85c1.29,25.4,21.93,46.04,47.33,47.33.87.04,1.74.07,2.6.07,28.48,0,51.39-23.8,49.93-52.6C98.9,22.24,78.26,1.6,52.85.32c-.87-.04-1.74-.07-2.6-.07h0ZM50.25,63.25c-7.18,0-13-5.82-13-13s5.82-13,13-13,13,5.82,13,13-5.82,13-13,13h0Z"/>
      </g>
      <g>
        <g id="_Répétition_radiale_" data-name="&amp;lt;Répétition radiale&amp;gt;">
          <g>
            <circle class="cls-1" cx="49.05" cy="96.56" r="1.36"/>
            <path class="cls-3" d="M49.05,95.26c.72,0,1.3.58,1.3,1.3s-.58,1.3-1.3,1.3-1.3-.58-1.3-1.3.58-1.3,1.3-1.3M49.05,95.15c-.78,0-1.41.63-1.41,1.41s.63,1.41,1.41,1.41,1.41-.63,1.41-1.41-.63-1.41-1.41-1.41h0Z"/>
          </g>
        </g>
        <g id="_Répétition_radiale_-2" data-name="&amp;lt;Répétition radiale&amp;gt;">
          <g>
            <path class="cls-1" d="M44.07,97.64c-.36-.04-.69-.21-.91-.5-.23-.28-.33-.64-.3-1,.07-.69.65-1.22,1.35-1.22.05,0,.09,0,.14,0,.36.04.69.21.91.5.23.28.33.64.29,1-.07.69-.65,1.22-1.35,1.22-.05,0-.1,0-.14,0Z"/>
            <path class="cls-3" d="M44.21,94.98s.09,0,.14,0c.72.08,1.24.72,1.16,1.43-.07.67-.64,1.17-1.3,1.17-.05,0-.09,0-.14,0-.72-.08-1.24-.72-1.16-1.43.07-.67.64-1.17,1.3-1.17M44.21,94.87c-.72,0-1.33.54-1.4,1.27-.08.78.48,1.47,1.26,1.55.05,0,.1,0,.15,0,.72,0,1.33-.54,1.4-1.27.04-.38-.07-.74-.31-1.04-.24-.29-.58-.48-.95-.52-.05,0-.1,0-.15,0h0Z"/>
          </g>
        </g>
        <g id="_Répétition_radiale_-3" data-name="&amp;lt;Répétition radiale&amp;gt;">
          <g>
            <path class="cls-1" d="M39.43,96.87c-.09,0-.19,0-.28-.03-.73-.16-1.2-.88-1.05-1.61.13-.62.69-1.08,1.33-1.08.09,0,.19,0,.28.03.35.08.66.28.86.59.2.3.26.67.19,1.02-.13.62-.69,1.08-1.33,1.08Z"/>
            <path class="cls-3" d="M39.42,94.2c.09,0,.18,0,.27.03.7.15,1.15.84,1.01,1.55-.13.61-.67,1.03-1.28,1.03-.09,0-.18,0-.27-.03-.7-.15-1.15-.84-1.01-1.55.13-.61.67-1.03,1.28-1.03M39.42,94.09c-.66,0-1.24.47-1.38,1.12-.16.76.33,1.51,1.09,1.68.1.02.2.03.3.03.66,0,1.24-.47,1.38-1.12.16-.76-.33-1.51-1.09-1.68-.1-.02-.2-.03-.3-.03h0Z"/>
          </g>
        </g>
        <g id="_Répétition_radiale_-4" data-name="&amp;lt;Répétition radiale&amp;gt;">
          <g>
            <path class="cls-1" d="M34.75,95.59c-.14,0-.28-.02-.42-.07-.35-.11-.63-.35-.79-.68-.17-.32-.19-.69-.08-1.04.18-.56.7-.94,1.29-.94.14,0,.28.02.42.07.35.11.63.35.79.68.17.32.19.69.08,1.04-.18.56-.7.94-1.29.94Z"/>
            <path class="cls-3" d="M34.75,92.93c.13,0,.27.02.4.06.69.22,1.06.96.84,1.64-.18.55-.69.9-1.24.9-.13,0-.27-.02-.4-.06-.69-.22-1.06-.96-.84-1.64.18-.55.69-.9,1.24-.9M34.75,92.82h0c-.61,0-1.15.39-1.34.98-.12.36-.09.74.08,1.08.17.34.46.59.82.7.14.05.29.07.44.07.61,0,1.15-.39,1.34-.98.24-.74-.17-1.54-.91-1.78-.14-.05-.29-.07-.44-.07h0Z"/>
          </g>
        </g>
        <g id="_Répétition_radiale_-5" data-name="&amp;lt;Répétition radiale&amp;gt;">
          <g>
            <path class="cls-1" d="M30.23,93.84c-.19,0-.38-.04-.55-.12-.68-.31-.99-1.11-.69-1.79.22-.49.71-.81,1.24-.81.19,0,.38.04.55.12.68.3.99,1.11.69,1.79-.22.49-.71.81-1.24.81Z"/>
            <path class="cls-3" d="M30.23,91.17c.18,0,.36.04.53.11.66.29.95,1.06.66,1.72-.22.49-.69.77-1.19.77-.18,0-.36-.04-.53-.11-.66-.29-.95-1.06-.66-1.72.22-.49.69-.77,1.19-.77M30.23,91.06c-.56,0-1.07.33-1.29.84-.32.71,0,1.55.72,1.87.18.08.38.12.57.12.56,0,1.07-.33,1.29-.84.32-.71,0-1.55-.72-1.87-.18-.08-.38-.12-.57-.12h0Z"/>
          </g>
        </g>
        <g id="_Répétition_radiale_-6" data-name="&amp;lt;Répétition radiale&amp;gt;">
          <g>
            <path class="cls-1" d="M25.92,91.62c-.24,0-.47-.06-.68-.18-.65-.37-.87-1.21-.5-1.86.24-.42.69-.68,1.18-.68.24,0,.47.06.68.18.31.18.54.47.63.83.09.35.05.72-.14,1.03-.24.42-.69.68-1.18.68Z"/>
            <path class="cls-3" d="M25.92,88.95c.22,0,.45.06.65.18.62.36.84,1.16.48,1.78-.24.42-.68.65-1.13.65-.22,0-.45-.06-.65-.18-.62-.36-.84-1.16-.48-1.78.24-.42.68-.65,1.13-.65M25.92,88.84h0c-.5,0-.97.27-1.23.71-.19.33-.24.71-.14,1.07.1.36.33.67.66.86.21.12.46.19.71.19.5,0,.97-.27,1.23-.71.39-.68.16-1.54-.52-1.93-.21-.12-.46-.19-.71-.19h0Z"/>
          </g>
        </g>
        <g id="_Répétition_radiale_-7" data-name="&amp;lt;Répétition radiale&amp;gt;">
          <g>
            <path class="cls-1" d="M21.87,88.96c-.29,0-.56-.09-.8-.26-.29-.21-.49-.53-.54-.89-.06-.36.03-.72.24-1.01.25-.35.67-.56,1.1-.56.29,0,.56.09.8.26.61.44.74,1.29.3,1.9-.25.35-.67.56-1.1.56Z"/>
            <path class="cls-3" d="M21.87,86.29c.27,0,.53.08.77.25.58.42.71,1.24.29,1.82-.26.35-.65.54-1.06.54-.27,0-.53-.08-.77-.25-.58-.42-.71-1.24-.29-1.82.26-.35.65-.54,1.06-.54M21.87,86.19h0c-.45,0-.88.22-1.14.58-.22.31-.31.68-.25,1.05s.26.7.57.92c.24.18.53.27.83.27.45,0,.88-.22,1.14-.58.46-.63.32-1.52-.31-1.97-.24-.18-.53-.27-.83-.27h0Z"/>
          </g>
        </g>
        <g id="_Répétition_radiale_-8" data-name="&amp;lt;Répétition radiale&amp;gt;">
          <g>
            <path class="cls-1" d="M18.11,85.89c-.34,0-.66-.12-.91-.35-.56-.5-.6-1.36-.1-1.92.26-.29.63-.45,1.01-.45.34,0,.66.12.91.35.27.24.43.58.45.94.02.36-.1.71-.35.98-.26.29-.62.45-1.01.45Z"/>
            <path class="cls-3" d="M18.11,83.23c.31,0,.62.11.87.34.54.48.58,1.31.1,1.84-.26.29-.61.43-.97.43-.31,0-.62-.11-.87-.34-.54-.48-.58-1.31-.1-1.84.26-.29.61-.43.97-.43M18.11,83.12c-.4,0-.78.17-1.05.47-.52.58-.47,1.47.1,2,.26.23.6.36.95.36.4,0,.78-.17,1.05-.47.25-.28.38-.64.36-1.02-.02-.38-.19-.72-.47-.98-.26-.23-.6-.36-.95-.36h0Z"/>
          </g>
        </g>
        <g id="_Répétition_radiale_-9" data-name="&amp;lt;Répétition radiale&amp;gt;">
          <g>
            <path class="cls-1" d="M14.7,82.45c-.39,0-.75-.16-1.01-.45-.5-.56-.46-1.42.1-1.92.25-.23.57-.35.91-.35.38,0,.75.16,1.01.45.24.27.37.62.35.98-.02.36-.18.7-.45.94-.25.23-.57.35-.91.35Z"/>
            <path class="cls-3" d="M14.7,79.79c.36,0,.71.15.97.43.48.54.44,1.36-.1,1.84-.25.22-.56.34-.87.34-.36,0-.71-.15-.97-.43-.48-.54-.44-1.36.1-1.84.25-.22.56-.34.87-.34M14.7,79.68h0c-.35,0-.69.13-.95.36-.58.52-.63,1.42-.1,2,.27.3.65.47,1.05.47.35,0,.69-.13.95-.36.58-.52.63-1.42.1-2-.27-.3-.65-.47-1.05-.47h0Z"/>
          </g>
        </g>
        <g id="_Répétition_radiale_-10" data-name="&amp;lt;Répétition radiale&amp;gt;">
          <g>
            <path class="cls-1" d="M11.67,78.67c-.43,0-.85-.21-1.1-.56-.44-.61-.31-1.46.3-1.9.23-.17.51-.26.8-.26.43,0,.85.21,1.1.56.44.61.3,1.46-.3,1.9-.23.17-.51.26-.8.26Z"/>
            <path class="cls-3" d="M11.66,76c.4,0,.8.19,1.06.54.42.58.29,1.4-.29,1.82-.23.17-.5.25-.77.25-.4,0-.8-.19-1.06-.54-.42-.58-.29-1.4.29-1.82.23-.17.5-.25.77-.25M11.66,75.9c-.3,0-.59.09-.83.27-.63.46-.77,1.34-.31,1.97.27.36.69.58,1.14.58.3,0,.59-.09.83-.27.63-.46.77-1.34.31-1.97-.27-.36-.69-.58-1.14-.58h0Z"/>
          </g>
        </g>
        <g id="_Répétition_radiale_-11" data-name="&amp;lt;Répétition radiale&amp;gt;">
          <g>
            <path class="cls-1" d="M9.04,74.59c-.48,0-.94-.26-1.18-.68-.18-.31-.23-.68-.14-1.03.09-.35.32-.64.63-.83.21-.12.44-.18.68-.18.48,0,.94.26,1.18.68.18.31.23.68.14,1.03s-.32.64-.63.83c-.21.12-.44.18-.68.18Z"/>
            <path class="cls-3" d="M9.04,71.93c.45,0,.89.23,1.13.65.36.62.15,1.42-.48,1.78-.21.12-.43.18-.65.18-.45,0-.89-.23-1.13-.65-.36-.62-.15-1.42.48-1.78.21-.12.43-.18.65-.18M9.04,71.82h0c-.25,0-.49.07-.71.19-.68.39-.91,1.26-.52,1.93.25.44.72.71,1.23.71.25,0,.49-.07.71-.19.67-.39.91-1.26.52-1.93-.25-.44-.72-.71-1.23-.71h0Z"/>
          </g>
        </g>
        <g id="_Répétition_radiale_-12" data-name="&amp;lt;Répétition radiale&amp;gt;">
          <g>
            <path class="cls-1" d="M6.86,70.26c-.54,0-1.02-.32-1.24-.81-.3-.68,0-1.49.69-1.79.18-.08.36-.12.55-.12.54,0,1.02.32,1.24.81.15.33.16.7.03,1.04-.13.34-.38.61-.72.75-.18.08-.36.12-.55.12Z"/>
            <path class="cls-3" d="M6.86,67.6c.5,0,.98.29,1.19.77.29.66,0,1.43-.66,1.72-.17.08-.35.11-.53.11-.5,0-.98-.29-1.19-.77-.29-.66,0-1.43.66-1.72.17-.08.35-.11.53-.11M6.86,67.49c-.2,0-.39.04-.57.12-.71.32-1.03,1.15-.72,1.87.23.51.73.84,1.29.84.2,0,.39-.04.57-.12.34-.15.61-.43.74-.78s.13-.74-.03-1.08c-.23-.51-.73-.84-1.29-.84h0Z"/>
          </g>
        </g>
        <g id="_Répétition_radiale_-13" data-name="&amp;lt;Répétition radiale&amp;gt;">
          <g>
            <path class="cls-1" d="M5.14,65.73c-.59,0-1.11-.38-1.29-.94-.11-.35-.08-.71.08-1.04.16-.32.45-.56.79-.68.14-.04.28-.07.42-.07.59,0,1.11.38,1.29.94.23.71-.16,1.48-.87,1.71-.14.04-.28.07-.42.07Z"/>
            <path class="cls-3" d="M5.14,63.07c.55,0,1.06.35,1.24.9.22.69-.15,1.42-.84,1.64-.13.04-.27.06-.4.06-.55,0-1.06-.35-1.24-.9-.22-.69.15-1.42.84-1.64.13-.04.27-.06.4-.06M5.14,62.96c-.15,0-.3.02-.44.07-.74.24-1.15,1.04-.91,1.78.19.58.73.98,1.34.98.15,0,.3-.02.44-.07.36-.12.65-.37.82-.7.17-.34.2-.72.08-1.08-.19-.58-.73-.98-1.34-.98h0Z"/>
          </g>
        </g>
        <g id="_Répétition_radiale_-14" data-name="&amp;lt;Répétition radiale&amp;gt;">
          <g>
            <path class="cls-1" d="M3.91,61.04c-.64,0-1.2-.45-1.33-1.08-.16-.73.31-1.46,1.05-1.61.09-.02.19-.03.28-.03.64,0,1.2.45,1.33,1.08.16.73-.31,1.46-1.05,1.61-.09.02-.19.03-.28.03Z"/>
            <path class="cls-3" d="M3.91,58.38c.6,0,1.14.42,1.28,1.03.15.7-.3,1.4-1.01,1.55-.09.02-.18.03-.27.03-.6,0-1.14-.42-1.28-1.03-.15-.7.3-1.4,1.01-1.55.09-.02.18-.03.27-.03M3.91,58.27c-.1,0-.2.01-.3.03-.37.08-.69.3-.89.61-.21.32-.28.69-.2,1.06.14.65.72,1.12,1.38,1.12.1,0,.2-.01.3-.03.37-.08.69-.3.89-.61.21-.32.28-.69.2-1.06-.14-.65-.72-1.12-1.38-1.12h0Z"/>
          </g>
        </g>
        <g id="_Répétition_radiale_-15" data-name="&amp;lt;Répétition radiale&amp;gt;">
          <g>
            <path class="cls-1" d="M3.17,56.25c-.7,0-1.28-.52-1.35-1.22-.04-.36.07-.71.29-1,.23-.28.55-.46.92-.5.05,0,.1,0,.14,0,.7,0,1.28.52,1.35,1.22.04.36-.07.72-.29,1-.23.28-.55.46-.91.5-.05,0-.1,0-.14,0Z"/>
            <path class="cls-3" d="M3.17,53.59c.66,0,1.23.5,1.3,1.17.08.72-.44,1.36-1.16,1.43-.05,0-.09,0-.14,0-.66,0-1.23-.5-1.3-1.17-.08-.72.44-1.36,1.16-1.43.05,0,.09,0,.14,0M3.17,53.48s-.1,0-.15,0c-.78.08-1.34.78-1.26,1.55.08.72.68,1.27,1.4,1.27.05,0,.1,0,.15,0,.38-.04.71-.22.95-.52.24-.29.35-.66.31-1.04-.08-.72-.68-1.27-1.4-1.27h0Z"/>
          </g>
        </g>
        <g id="_Répétition_radiale_-16" data-name="&amp;lt;Répétition radiale&amp;gt;">
          <g>
            <circle class="cls-1" cx="2.94" cy="50.05" r="1.36"/>
            <path class="cls-3" d="M2.94,48.74c.72,0,1.3.58,1.3,1.3s-.58,1.3-1.3,1.3-1.3-.58-1.3-1.3.58-1.3,1.3-1.3M2.94,48.64c-.78,0-1.41.63-1.41,1.41s.63,1.41,1.41,1.41,1.41-.63,1.41-1.41-.63-1.41-1.41-1.41h0Z"/>
          </g>
        </g>
        <g id="_Répétition_radiale_-17" data-name="&amp;lt;Répétition radiale&amp;gt;">
          <g>
            <path class="cls-1" d="M3.07,46.56c-.36-.04-.69-.21-.92-.5-.23-.28-.33-.64-.29-1,.07-.69.65-1.22,1.35-1.22.05,0,.1,0,.14,0,.36.04.69.21.91.5.23.28.33.64.29,1-.07.69-.65,1.22-1.35,1.22-.05,0-.09,0-.14,0Z"/>
            <path class="cls-3" d="M3.21,43.91s.09,0,.14,0c.72.08,1.24.72,1.16,1.43-.07.67-.64,1.17-1.3,1.17-.05,0-.09,0-.14,0-.72-.08-1.24-.72-1.16-1.43.07-.67.64-1.17,1.3-1.17M3.21,43.8h0c-.72,0-1.33.54-1.4,1.27-.04.38.07.74.31,1.04.24.29.58.48.95.52.05,0,.1,0,.15,0,.72,0,1.33-.54,1.4-1.27.08-.78-.48-1.47-1.26-1.55-.05,0-.1,0-.15,0h0Z"/>
          </g>
        </g>
        <g id="_Répétition_radiale_-18" data-name="&amp;lt;Répétition radiale&amp;gt;">
          <g>
            <path class="cls-1" d="M3.99,41.78c-.09,0-.19,0-.28-.03-.73-.16-1.2-.88-1.05-1.61.13-.62.69-1.08,1.33-1.08.09,0,.19,0,.28.03.35.08.66.28.86.59.2.3.26.67.19,1.02-.13.62-.69,1.08-1.33,1.08Z"/>
            <path class="cls-3" d="M3.99,39.12c.09,0,.18,0,.27.03.7.15,1.15.84,1.01,1.55-.13.61-.67,1.03-1.28,1.03-.09,0-.18,0-.27-.03-.7-.15-1.15-.84-1.01-1.55.13-.61.67-1.03,1.28-1.03M3.99,39.01c-.66,0-1.24.47-1.38,1.12-.16.76.33,1.51,1.09,1.68.1.02.2.03.3.03.66,0,1.24-.47,1.38-1.12.16-.76-.33-1.51-1.09-1.68-.1-.02-.2-.03-.3-.03h0Z"/>
          </g>
        </g>
        <g id="_Répétition_radiale_-19" data-name="&amp;lt;Répétition radiale&amp;gt;">
          <g>
            <path class="cls-1" d="M5.27,37.11c-.14,0-.28-.02-.42-.07-.71-.23-1.1-1-.87-1.71.18-.56.7-.94,1.29-.94.14,0,.28.02.42.07.35.11.63.35.79.68.17.32.19.69.08,1.04-.18.56-.7.94-1.29.94Z"/>
            <path class="cls-3" d="M5.27,34.44c.13,0,.27.02.4.06.69.22,1.06.96.84,1.64-.18.55-.69.9-1.24.9-.13,0-.27-.02-.4-.06-.69-.22-1.06-.96-.84-1.64.18-.55.69-.9,1.24-.9M5.27,34.33h0c-.61,0-1.15.39-1.34.98-.12.36-.09.74.08,1.08.17.34.46.59.82.7.14.05.29.07.44.07.61,0,1.15-.39,1.34-.98.24-.74-.17-1.54-.91-1.78-.14-.05-.29-.07-.44-.07h0Z"/>
          </g>
        </g>
        <g id="_Répétition_radiale_-20" data-name="&amp;lt;Répétition radiale&amp;gt;">
          <g>
            <path class="cls-1" d="M7.02,32.59c-.19,0-.38-.04-.55-.12-.33-.15-.59-.42-.72-.75-.13-.34-.12-.71.03-1.04.22-.49.71-.81,1.24-.81.19,0,.38.04.55.12.68.3.99,1.11.69,1.79-.22.49-.71.81-1.24.81Z"/>
            <path class="cls-3" d="M7.02,29.92c.18,0,.36.04.53.11.66.29.95,1.06.66,1.72-.22.49-.69.77-1.19.77-.18,0-.36-.04-.53-.11-.66-.29-.95-1.06-.66-1.72.22-.49.69-.77,1.19-.77M7.02,29.82c-.56,0-1.07.33-1.29.84-.32.71,0,1.55.72,1.87.18.08.38.12.57.12.56,0,1.07-.33,1.29-.84.32-.71,0-1.55-.72-1.87-.18-.08-.38-.12-.57-.12h0Z"/>
          </g>
        </g>
        <g id="_Répétition_radiale_-21" data-name="&amp;lt;Répétition radiale&amp;gt;">
          <g>
            <path class="cls-1" d="M9.24,28.28c-.24,0-.47-.06-.68-.18-.65-.37-.87-1.21-.5-1.86.24-.42.69-.68,1.18-.68.24,0,.47.06.68.18.31.18.54.47.63.83.09.35.05.72-.14,1.03-.24.42-.69.68-1.18.68Z"/>
            <path class="cls-3" d="M9.24,25.62c.22,0,.45.06.65.18.62.36.84,1.16.48,1.78-.24.42-.68.65-1.13.65-.22,0-.45-.06-.65-.18-.62-.36-.84-1.16-.48-1.78.24-.42.68-.65,1.13-.65M9.24,25.51c-.5,0-.97.27-1.23.71-.39.68-.16,1.54.52,1.93.21.12.46.19.71.19.5,0,.97-.27,1.23-.71.19-.33.24-.71.14-1.07-.1-.36-.33-.67-.66-.86-.21-.12-.46-.19-.71-.19h0Z"/>
          </g>
        </g>
        <g id="_Répétition_radiale_-22" data-name="&amp;lt;Répétition radiale&amp;gt;">
          <g>
            <path class="cls-1" d="M11.9,24.23c-.29,0-.56-.09-.8-.26-.29-.21-.49-.53-.54-.89-.06-.36.03-.72.24-1.01.25-.35.67-.56,1.1-.56.29,0,.56.09.8.26.61.44.74,1.29.3,1.9-.25.35-.67.56-1.1.56Z"/>
            <path class="cls-3" d="M11.9,21.56c.27,0,.53.08.77.25.58.42.71,1.24.29,1.82-.26.35-.65.54-1.06.54-.27,0-.53-.08-.77-.25-.58-.42-.71-1.24-.29-1.82.26-.35.65-.54,1.06-.54M11.9,21.45h0c-.45,0-.88.22-1.14.58-.22.31-.31.68-.25,1.05.06.37.26.7.57.92.24.18.53.27.83.27.45,0,.88-.22,1.14-.58.46-.63.32-1.52-.31-1.97-.24-.18-.53-.27-.83-.27h0Z"/>
          </g>
        </g>
        <g id="_Répétition_radiale_-23" data-name="&amp;lt;Répétition radiale&amp;gt;">
          <g>
            <path class="cls-1" d="M14.97,20.47c-.34,0-.66-.12-.91-.35-.56-.5-.6-1.36-.1-1.92.26-.29.62-.45,1.01-.45.34,0,.66.12.91.35.27.24.43.58.45.94.02.36-.1.71-.35.98-.26.29-.62.45-1.01.45Z"/>
            <path class="cls-3" d="M14.97,17.81c.31,0,.62.11.87.34.54.48.58,1.31.1,1.84-.26.29-.61.43-.97.43-.31,0-.62-.11-.87-.34-.54-.48-.58-1.31-.1-1.84.26-.29.61-.43.97-.43M14.97,17.7c-.4,0-.78.17-1.05.47-.52.58-.47,1.47.1,2,.26.23.6.36.95.36.4,0,.78-.17,1.05-.47.52-.58.47-1.47-.1-2-.26-.23-.6-.36-.95-.36h0Z"/>
          </g>
        </g>
        <g id="_Répétition_radiale_-24" data-name="&amp;lt;Répétition radiale&amp;gt;">
          <g>
            <path class="cls-1" d="M18.41,17.06c-.39,0-.75-.16-1.01-.45-.5-.56-.46-1.42.1-1.92.25-.23.57-.35.91-.35.38,0,.75.16,1.01.45.24.27.37.62.35.98-.02.36-.18.7-.45.94-.25.23-.57.35-.91.35Z"/>
            <path class="cls-3" d="M18.41,14.39c.36,0,.71.15.97.43.48.54.44,1.36-.1,1.84-.25.22-.56.34-.87.34-.36,0-.71-.15-.97-.43-.48-.54-.44-1.36.1-1.84.25-.22.56-.34.87-.34M18.41,14.29h0c-.35,0-.69.13-.95.36-.58.52-.63,1.42-.1,2,.27.3.65.47,1.05.47.35,0,.69-.13.95-.36.28-.25.45-.6.47-.98.02-.38-.11-.74-.36-1.02-.27-.3-.65-.47-1.05-.47h0Z"/>
          </g>
        </g>
        <g id="_Répétition_radiale_-25" data-name="&amp;lt;Répétition radiale&amp;gt;">
          <g>
            <path class="cls-1" d="M22.19,14.02c-.43,0-.85-.21-1.1-.56-.44-.61-.31-1.46.3-1.9.23-.17.51-.26.8-.26.43,0,.85.21,1.1.56.21.29.3.65.24,1.01-.06.36-.25.67-.54.89-.23.17-.51.26-.8.26Z"/>
            <path class="cls-3" d="M22.19,11.36c.4,0,.8.19,1.06.54.42.58.29,1.4-.29,1.82-.23.17-.5.25-.77.25-.4,0-.8-.19-1.06-.54-.42-.58-.29-1.4.29-1.82.23-.17.5-.25.77-.25M22.19,11.25c-.3,0-.59.09-.83.27-.63.46-.77,1.34-.31,1.97.27.36.69.58,1.14.58.3,0,.59-.09.83-.27.63-.46.77-1.34.31-1.97-.27-.36-.69-.58-1.14-.58h0Z"/>
          </g>
        </g>
        <g id="_Répétition_radiale_-26" data-name="&amp;lt;Répétition radiale&amp;gt;">
          <g>
            <path class="cls-1" d="M26.27,11.4c-.48,0-.94-.26-1.18-.68-.18-.31-.23-.68-.14-1.03.09-.35.32-.64.63-.83.21-.12.44-.18.68-.18.49,0,.94.26,1.18.68.18.31.23.68.14,1.03s-.32.64-.63.83c-.21.12-.44.18-.68.18Z"/>
            <path class="cls-3" d="M26.27,8.74c.45,0,.89.23,1.13.65.36.62.15,1.42-.48,1.78-.21.12-.43.18-.65.18-.45,0-.89-.23-1.13-.65-.36-.62-.15-1.42.48-1.78.21-.12.43-.18.65-.18M26.27,8.63h0c-.25,0-.49.07-.71.19-.33.19-.56.49-.66.86-.1.36-.05.75.14,1.07.25.44.72.71,1.23.71.25,0,.49-.07.71-.19.33-.19.56-.49.66-.86s.05-.75-.14-1.07c-.25-.44-.72-.71-1.23-.71h0Z"/>
          </g>
        </g>
        <g id="_Répétition_radiale_-27" data-name="&amp;lt;Répétition radiale&amp;gt;">
          <g>
            <path class="cls-1" d="M30.6,9.22c-.54,0-1.02-.32-1.24-.81-.15-.33-.16-.7-.03-1.04.13-.34.38-.61.72-.75.18-.08.36-.12.55-.12.54,0,1.02.32,1.24.81.15.33.16.7.03,1.04-.13.34-.38.61-.72.75-.18.08-.36.12-.55.12Z"/>
            <path class="cls-3" d="M30.59,6.55c.5,0,.98.29,1.19.77.29.66,0,1.43-.66,1.72-.17.08-.35.11-.53.11-.5,0-.98-.29-1.19-.77-.29-.66,0-1.43.66-1.72.17-.08.35-.11.53-.11M30.59,6.45h0c-.2,0-.39.04-.57.12-.34.15-.61.43-.74.78-.14.35-.13.74.03,1.08.23.51.73.84,1.29.84.2,0,.39-.04.57-.12.71-.32,1.03-1.15.72-1.87-.23-.51-.73-.84-1.29-.84h0Z"/>
          </g>
        </g>
        <g id="_Répétition_radiale_-28" data-name="&amp;lt;Répétition radiale&amp;gt;">
          <g>
            <path class="cls-1" d="M35.13,7.5c-.59,0-1.11-.38-1.29-.94-.23-.71.16-1.48.87-1.71.14-.04.28-.07.42-.07.59,0,1.11.38,1.29.94.11.35.08.71-.08,1.04-.16.32-.45.56-.79.68-.14.04-.28.07-.42.07Z"/>
            <path class="cls-3" d="M35.13,4.84c.55,0,1.06.35,1.24.9.22.69-.15,1.42-.84,1.64-.13.04-.27.06-.4.06-.55,0-1.06-.35-1.24-.9-.22-.69.15-1.42.84-1.64.13-.04.27-.06.4-.06M35.13,4.73h0c-.15,0-.3.02-.44.07-.74.24-1.15,1.04-.91,1.78.19.58.73.98,1.34.98.15,0,.3-.02.44-.07.36-.12.65-.37.82-.7.17-.34.2-.72.08-1.08-.19-.58-.73-.98-1.34-.98h0Z"/>
          </g>
        </g>
        <g id="_Répétition_radiale_-29" data-name="&amp;lt;Répétition radiale&amp;gt;">
          <g>
            <path class="cls-1" d="M39.82,6.27c-.64,0-1.2-.45-1.33-1.08-.08-.35,0-.72.19-1.02.2-.3.5-.51.86-.59.09-.02.19-.03.28-.03.64,0,1.2.45,1.33,1.08.16.73-.31,1.46-1.05,1.61-.09.02-.19.03-.28.03Z"/>
            <path class="cls-3" d="M39.82,3.6c.6,0,1.14.42,1.28,1.03.15.7-.3,1.4-1.01,1.55-.09.02-.18.03-.27.03-.6,0-1.14-.42-1.28-1.03-.15-.7.3-1.4,1.01-1.55.09-.02.18-.03.27-.03M39.82,3.49c-.1,0-.2.01-.3.03-.76.16-1.25.91-1.09,1.68.14.65.72,1.12,1.38,1.12.1,0,.2-.01.3-.03.76-.16,1.25-.91,1.09-1.68-.14-.65-.72-1.12-1.38-1.12h0Z"/>
          </g>
        </g>
        <g id="_Répétition_radiale_-30" data-name="&amp;lt;Répétition radiale&amp;gt;">
          <g>
            <path class="cls-1" d="M44.61,5.53c-.7,0-1.28-.52-1.35-1.22-.08-.75.46-1.42,1.21-1.49.05,0,.1,0,.14,0,.7,0,1.28.52,1.35,1.22.08.75-.46,1.42-1.21,1.49-.05,0-.1,0-.14,0Z"/>
            <path class="cls-3" d="M44.61,2.87c.66,0,1.23.5,1.3,1.17.08.72-.44,1.36-1.16,1.43-.05,0-.09,0-.14,0-.66,0-1.23-.5-1.3-1.17-.08-.72.44-1.36,1.16-1.43.05,0,.09,0,.14,0M44.61,2.76s-.1,0-.15,0c-.78.08-1.34.78-1.26,1.55.08.72.68,1.27,1.4,1.27.05,0,.1,0,.15,0,.78-.08,1.34-.78,1.26-1.55-.08-.72-.68-1.27-1.4-1.27h0Z"/>
          </g>
        </g>
        <g id="_Répétition_radiale_-31" data-name="&amp;lt;Répétition radiale&amp;gt;">
          <g>
            <circle class="cls-1" cx="49.45" cy="3.94" r="1.36"/>
            <path class="cls-3" d="M49.45,2.63c.72,0,1.3.58,1.3,1.3s-.58,1.3-1.3,1.3-1.3-.58-1.3-1.3.58-1.3,1.3-1.3M49.45,2.52c-.78,0-1.41.63-1.41,1.41s.63,1.41,1.41,1.41,1.41-.63,1.41-1.41-.63-1.41-1.41-1.41h0Z"/>
          </g>
        </g>
        <g id="_Répétition_radiale_-32" data-name="&amp;lt;Répétition radiale&amp;gt;">
          <g>
            <path class="cls-1" d="M54.15,5.56c-.36-.04-.69-.21-.91-.5-.23-.28-.33-.64-.3-1,.07-.69.65-1.22,1.35-1.22.05,0,.09,0,.14,0,.36.04.69.21.91.5.23.28.33.64.29,1-.07.69-.65,1.22-1.35,1.22-.05,0-.1,0-.14,0Z"/>
            <path class="cls-3" d="M54.29,2.91s.09,0,.14,0c.72.08,1.24.72,1.16,1.43-.07.67-.64,1.17-1.3,1.17-.05,0-.09,0-.14,0-.72-.08-1.24-.72-1.16-1.43.07-.67.64-1.17,1.3-1.17M54.29,2.8h0c-.72,0-1.33.54-1.4,1.27-.04.38.07.74.31,1.04.24.29.58.48.95.52.05,0,.1,0,.15,0,.72,0,1.33-.54,1.4-1.27.08-.78-.48-1.47-1.26-1.55-.05,0-.1,0-.15,0h0Z"/>
          </g>
        </g>
        <g id="_Répétition_radiale_-33" data-name="&amp;lt;Répétition radiale&amp;gt;">
          <g>
            <path class="cls-1" d="M59.08,6.35c-.09,0-.19,0-.28-.03-.35-.08-.66-.28-.86-.59-.2-.3-.26-.67-.19-1.02.13-.62.69-1.08,1.33-1.08.09,0,.19,0,.28.03.73.16,1.2.88,1.05,1.61-.13.62-.69,1.08-1.33,1.08Z"/>
            <path class="cls-3" d="M59.07,3.69c.09,0,.18,0,.27.03.7.15,1.15.84,1.01,1.55-.13.61-.67,1.03-1.28,1.03-.09,0-.18,0-.27-.03-.7-.15-1.15-.84-1.01-1.55.13-.61.67-1.03,1.28-1.03M59.07,3.58c-.66,0-1.24.47-1.38,1.12-.16.76.33,1.51,1.09,1.68.1.02.2.03.3.03.66,0,1.24-.47,1.38-1.12.16-.76-.33-1.51-1.09-1.68-.1-.02-.2-.03-.3-.03h0Z"/>
          </g>
        </g>
        <g id="_Répétition_radiale_-34" data-name="&amp;lt;Répétition radiale&amp;gt;">
          <g>
            <path class="cls-1" d="M63.75,7.63c-.14,0-.28-.02-.42-.07-.35-.11-.63-.35-.79-.68-.17-.32-.19-.69-.08-1.04.18-.56.7-.94,1.29-.94.14,0,.28.02.42.07.35.11.63.35.79.68.17.32.19.69.08,1.04-.18.56-.7.94-1.29.94Z"/>
            <path class="cls-3" d="M63.75,4.96c.13,0,.27.02.4.06.69.22,1.06.96.84,1.64-.18.55-.69.9-1.24.9-.13,0-.27-.02-.4-.06-.69-.22-1.06-.96-.84-1.64.18-.55.69-.9,1.24-.9M63.75,4.85h0c-.61,0-1.15.39-1.34.98-.24.74.17,1.54.91,1.78.14.05.29.07.44.07.61,0,1.15-.39,1.34-.98.12-.36.09-.74-.08-1.08-.17-.34-.46-.59-.82-.7-.14-.05-.29-.07-.44-.07h0Z"/>
          </g>
        </g>
        <g id="_Répétition_radiale_-35" data-name="&amp;lt;Répétition radiale&amp;gt;">
          <g>
            <path class="cls-1" d="M68.27,9.38c-.19,0-.38-.04-.55-.12-.33-.15-.59-.42-.72-.75-.13-.34-.12-.71.03-1.04.22-.49.71-.81,1.24-.81.19,0,.38.04.55.12.33.15.59.42.72.75.13.34.12.71-.03,1.04-.22.49-.71.81-1.24.81Z"/>
            <path class="cls-3" d="M68.27,6.72c.18,0,.36.04.53.11.66.29.95,1.06.66,1.72-.22.49-.69.77-1.19.77-.18,0-.36-.04-.53-.11-.66-.29-.95-1.06-.66-1.72.22-.49.69-.77,1.19-.77M68.27,6.61c-.56,0-1.07.33-1.29.84-.32.71,0,1.55.72,1.87.18.08.38.12.57.12.56,0,1.07-.33,1.29-.84.32-.71,0-1.55-.72-1.87-.18-.08-.38-.12-.57-.12h0Z"/>
          </g>
        </g>
        <g id="_Répétition_radiale_-36" data-name="&amp;lt;Répétition radiale&amp;gt;">
          <g>
            <path class="cls-1" d="M72.58,11.6c-.24,0-.47-.06-.68-.18-.31-.18-.54-.47-.63-.83s-.05-.72.14-1.03c.24-.42.69-.68,1.18-.68.24,0,.47.06.68.18.31.18.54.47.63.83s.05.72-.14,1.03c-.24.42-.69.68-1.18.68Z"/>
            <path class="cls-3" d="M72.58,8.94c.22,0,.45.06.65.18.62.36.84,1.16.48,1.78-.24.42-.68.65-1.13.65-.22,0-.45-.06-.65-.18-.62-.36-.84-1.16-.48-1.78.24-.42.68-.65,1.13-.65M72.58,8.83h0c-.5,0-.97.27-1.23.71-.39.68-.16,1.54.52,1.93.21.12.46.19.71.19.5,0,.97-.27,1.23-.71.19-.33.24-.71.14-1.07-.1-.36-.33-.67-.66-.86-.21-.12-.46-.19-.71-.19h0Z"/>
          </g>
        </g>
        <g id="_Répétition_radiale_-37" data-name="&amp;lt;Répétition radiale&amp;gt;">
          <g>
            <path class="cls-1" d="M76.63,14.26c-.29,0-.56-.09-.8-.26-.29-.21-.49-.53-.54-.89-.06-.36.03-.72.24-1.01.25-.35.67-.56,1.1-.56.29,0,.56.09.8.26.61.44.74,1.29.3,1.9-.25.35-.67.56-1.1.56Z"/>
            <path class="cls-3" d="M76.63,11.59c.27,0,.53.08.77.25.58.42.71,1.24.29,1.82-.26.35-.65.54-1.06.54-.27,0-.53-.08-.77-.25-.58-.42-.71-1.24-.29-1.82.26-.35.65-.54,1.06-.54M76.63,11.49h0c-.45,0-.88.22-1.14.58-.46.63-.32,1.52.31,1.97.24.18.53.27.83.27.45,0,.88-.22,1.14-.58.46-.63.32-1.52-.31-1.97-.24-.18-.53-.27-.83-.27h0Z"/>
          </g>
        </g>
        <g id="_Répétition_radiale_-38" data-name="&amp;lt;Répétition radiale&amp;gt;">
          <g>
            <path class="cls-1" d="M80.39,17.33c-.34,0-.66-.12-.91-.35-.27-.24-.43-.58-.45-.94-.02-.36.1-.71.35-.98.26-.29.63-.45,1.01-.45.34,0,.66.12.91.35.27.24.43.58.45.94.02.36-.1.71-.35.98-.26.29-.62.45-1.01.45Z"/>
            <path class="cls-3" d="M80.39,14.66c.31,0,.62.11.87.34.54.48.58,1.31.1,1.84-.26.29-.61.43-.97.43-.31,0-.62-.11-.87-.34-.54-.48-.58-1.31-.1-1.84.26-.29.61-.43.97-.43M80.39,14.55c-.4,0-.78.17-1.05.47-.52.58-.47,1.47.1,2,.26.23.6.36.95.36.4,0,.78-.17,1.05-.47.52-.58.47-1.47-.1-2-.26-.23-.6-.36-.95-.36h0Z"/>
          </g>
        </g>
        <g id="_Répétition_radiale_-39" data-name="&amp;lt;Répétition radiale&amp;gt;">
          <g>
            <path class="cls-1" d="M83.8,20.77c-.38,0-.75-.16-1.01-.45-.24-.27-.37-.62-.35-.98.02-.36.18-.7.45-.94.25-.23.57-.35.91-.35.38,0,.75.16,1.01.45.5.56.46,1.42-.1,1.92-.25.23-.57.35-.91.35Z"/>
            <path class="cls-3" d="M83.8,18.1c.36,0,.71.15.97.43.48.54.44,1.36-.1,1.84-.25.22-.56.34-.87.34-.36,0-.71-.15-.97-.43-.48-.54-.44-1.36.1-1.84.25-.22.56-.34.87-.34M83.8,18h0c-.35,0-.69.13-.95.36-.58.52-.63,1.42-.1,2,.27.3.65.47,1.05.47.35,0,.69-.13.95-.36.58-.52.63-1.42.1-2-.27-.3-.65-.47-1.05-.47h0Z"/>
          </g>
        </g>
        <g id="_Répétition_radiale_-40" data-name="&amp;lt;Répétition radiale&amp;gt;">
          <g>
            <path class="cls-1" d="M86.84,24.55c-.43,0-.85-.21-1.1-.56-.44-.61-.3-1.46.3-1.9.23-.17.51-.26.8-.26.43,0,.85.21,1.1.56.21.29.3.65.24,1.01-.06.36-.25.67-.54.89-.23.17-.51.26-.8.26Z"/>
            <path class="cls-3" d="M86.83,21.89c.4,0,.8.19,1.06.54.42.58.29,1.4-.29,1.82-.23.17-.5.25-.77.25-.4,0-.8-.19-1.06-.54-.42-.58-.29-1.4.29-1.82.23-.17.5-.25.77-.25M86.83,21.78c-.3,0-.59.09-.83.27-.63.46-.77,1.34-.31,1.97.27.36.69.58,1.14.58.3,0,.59-.09.83-.27.63-.46.77-1.34.31-1.97-.27-.36-.69-.58-1.14-.58h0Z"/>
          </g>
        </g>
        <g id="_Répétition_radiale_-41" data-name="&amp;lt;Répétition radiale&amp;gt;">
          <g>
            <path class="cls-1" d="M89.46,28.63c-.48,0-.94-.26-1.18-.68-.18-.31-.23-.68-.14-1.03.09-.35.32-.64.63-.83.21-.12.44-.18.68-.18.48,0,.94.26,1.18.68.18.31.23.68.14,1.03s-.32.64-.63.83c-.21.12-.44.18-.68.18Z"/>
            <path class="cls-3" d="M89.46,25.96c.45,0,.89.23,1.13.65.36.62.15,1.42-.48,1.78-.21.12-.43.18-.65.18-.45,0-.89-.23-1.13-.65-.36-.62-.15-1.42.48-1.78.21-.12.43-.18.65-.18M89.46,25.85h0c-.25,0-.49.07-.71.19-.67.39-.91,1.26-.52,1.93.25.44.72.71,1.23.71.25,0,.49-.07.71-.19.68-.39.91-1.26.52-1.93-.25-.44-.72-.71-1.23-.71h0Z"/>
          </g>
        </g>
        <g id="_Répétition_radiale_-42" data-name="&amp;lt;Répétition radiale&amp;gt;">
          <g>
            <path class="cls-1" d="M91.64,32.96c-.54,0-1.02-.32-1.24-.81-.3-.68,0-1.49.69-1.79.18-.08.36-.12.55-.12.54,0,1.02.32,1.24.81.15.33.16.7.03,1.04-.13.34-.38.61-.72.75-.18.08-.36.12-.55.12Z"/>
            <path class="cls-3" d="M91.64,30.29c.5,0,.98.29,1.19.77.29.66,0,1.43-.66,1.72-.17.08-.35.11-.53.11-.5,0-.98-.29-1.19-.77-.29-.66,0-1.43.66-1.72.17-.08.35-.11.53-.11M91.64,30.18c-.2,0-.39.04-.57.12-.34.15-.61.43-.74.78s-.13.74.03,1.08c.23.51.73.84,1.29.84.2,0,.39-.04.57-.12.71-.32,1.03-1.15.72-1.87-.23-.51-.73-.84-1.29-.84h0Z"/>
          </g>
        </g>
        <g id="_Répétition_radiale_-43" data-name="&amp;lt;Répétition radiale&amp;gt;">
          <g>
            <path class="cls-1" d="M93.36,37.49c-.59,0-1.11-.38-1.29-.94-.11-.35-.08-.71.08-1.04.16-.32.45-.56.79-.68.14-.04.28-.07.42-.07.59,0,1.11.38,1.29.94.11.34.08.71-.08,1.04-.17.32-.45.56-.79.68-.14.04-.28.07-.42.07Z"/>
            <path class="cls-3" d="M93.36,34.82c.55,0,1.06.35,1.24.9.22.69-.15,1.42-.84,1.64-.13.04-.27.06-.4.06-.55,0-1.06-.35-1.24-.9-.22-.69.15-1.42.84-1.64.13-.04.27-.06.4-.06M93.36,34.72c-.15,0-.3.02-.44.07-.36.12-.65.37-.82.7-.17.34-.2.72-.08,1.08.19.58.73.98,1.34.98.15,0,.3-.02.44-.07.74-.24,1.15-1.04.91-1.78-.19-.58-.73-.98-1.34-.98h0Z"/>
          </g>
        </g>
        <g id="_Répétition_radiale_-44" data-name="&amp;lt;Répétition radiale&amp;gt;">
          <g>
            <path class="cls-1" d="M94.59,42.18c-.64,0-1.2-.45-1.33-1.08-.16-.73.31-1.46,1.05-1.61.09-.02.19-.03.28-.03.64,0,1.2.45,1.33,1.08.16.73-.31,1.46-1.05,1.61-.09.02-.19.03-.28.03Z"/>
            <path class="cls-3" d="M94.59,39.51c.6,0,1.14.42,1.28,1.03.15.7-.3,1.4-1.01,1.55-.09.02-.18.03-.27.03-.6,0-1.14-.42-1.28-1.03-.15-.7.3-1.4,1.01-1.55.09-.02.18-.03.27-.03M94.59,39.4c-.1,0-.2.01-.3.03-.37.08-.69.3-.89.61-.21.32-.28.69-.2,1.06.14.65.72,1.12,1.38,1.12.1,0,.2-.01.3-.03.37-.08.69-.3.89-.61.21-.32.28-.69.2-1.06-.14-.65-.72-1.12-1.38-1.12h0Z"/>
          </g>
        </g>
        <g id="_Répétition_radiale_-45" data-name="&amp;lt;Répétition radiale&amp;gt;">
          <g>
            <path class="cls-1" d="M95.33,46.97c-.7,0-1.28-.52-1.35-1.22-.04-.36.07-.71.29-1,.23-.28.55-.46.92-.5.05,0,.1,0,.14,0,.7,0,1.28.52,1.35,1.22.08.75-.46,1.42-1.21,1.49-.05,0-.1,0-.14,0Z"/>
            <path class="cls-3" d="M95.33,44.3c.66,0,1.23.5,1.3,1.17.08.72-.44,1.36-1.16,1.43-.05,0-.09,0-.14,0-.66,0-1.23-.5-1.3-1.17-.08-.72.44-1.36,1.16-1.43.05,0,.09,0,.14,0M95.33,44.19s-.1,0-.15,0c-.38.04-.71.22-.95.52-.24.29-.35.66-.31,1.04.08.72.68,1.27,1.4,1.27.05,0,.1,0,.15,0,.78-.08,1.34-.78,1.26-1.55-.08-.72-.68-1.27-1.4-1.27h0Z"/>
          </g>
        </g>
        <g id="_Répétition_radiale_-46" data-name="&amp;lt;Répétition radiale&amp;gt;">
          <g>
            <circle class="cls-1" cx="95.56" cy="50.45" r="1.36"/>
            <path class="cls-3" d="M95.56,49.15c.72,0,1.3.58,1.3,1.3s-.58,1.3-1.3,1.3-1.3-.58-1.3-1.3.58-1.3,1.3-1.3M95.56,49.04c-.78,0-1.41.63-1.41,1.41s.63,1.41,1.41,1.41,1.41-.63,1.41-1.41-.63-1.41-1.41-1.41h0Z"/>
          </g>
        </g>
        <g id="_Répétition_radiale_-47" data-name="&amp;lt;Répétition radiale&amp;gt;">
          <g>
            <path class="cls-1" d="M95.14,56.64c-.36-.04-.69-.21-.91-.5-.23-.28-.33-.64-.29-1,.07-.69.65-1.22,1.35-1.22.05,0,.1,0,.14,0,.36.04.69.21.91.5.23.28.33.64.3,1-.07.69-.65,1.22-1.35,1.22-.05,0-.09,0-.14,0Z"/>
            <path class="cls-3" d="M95.29,53.99s.09,0,.14,0c.72.08,1.24.72,1.16,1.43-.07.67-.64,1.17-1.3,1.17-.05,0-.09,0-.14,0-.72-.08-1.24-.72-1.16-1.43.07-.67.64-1.17,1.3-1.17M95.29,53.88c-.72,0-1.33.54-1.4,1.27-.08.78.48,1.47,1.26,1.55.05,0,.1,0,.15,0,.72,0,1.33-.54,1.4-1.27.04-.38-.07-.74-.31-1.04-.24-.29-.58-.48-.95-.52-.05,0-.1,0-.15,0h0Z"/>
          </g>
        </g>
        <g id="_Répétition_radiale_-48" data-name="&amp;lt;Répétition radiale&amp;gt;">
          <g>
            <path class="cls-1" d="M94.51,61.43c-.09,0-.19,0-.28-.03-.35-.08-.66-.28-.86-.59-.2-.3-.27-.67-.19-1.02.13-.62.69-1.08,1.33-1.08.09,0,.19,0,.28.03.35.08.66.28.86.59.2.3.26.67.19,1.02-.13.62-.69,1.08-1.33,1.08Z"/>
            <path class="cls-3" d="M94.51,58.77c.09,0,.18,0,.27.03.7.15,1.15.84,1.01,1.55-.13.61-.67,1.03-1.28,1.03-.09,0-.18,0-.27-.03-.7-.15-1.15-.84-1.01-1.55.13-.61.67-1.03,1.28-1.03M94.51,58.66c-.66,0-1.24.47-1.38,1.12-.16.76.33,1.51,1.09,1.68.1.02.2.03.3.03.66,0,1.24-.47,1.38-1.12.16-.76-.33-1.51-1.09-1.68-.1-.02-.2-.03-.3-.03h0Z"/>
          </g>
        </g>
        <g id="_Répétition_radiale_-49" data-name="&amp;lt;Répétition radiale&amp;gt;">
          <g>
            <path class="cls-1" d="M93.23,66.11c-.14,0-.28-.02-.42-.07-.71-.23-1.1-1-.87-1.71.18-.56.7-.94,1.29-.94.14,0,.28.02.42.07.71.23,1.1,1,.87,1.71-.18.56-.7.94-1.29.94Z"/>
            <path class="cls-3" d="M93.23,63.45c.13,0,.27.02.4.06.69.22,1.06.96.84,1.64-.18.55-.69.9-1.24.9-.13,0-.27-.02-.4-.06-.69-.22-1.06-.96-.84-1.64.18-.55.69-.9,1.24-.9M93.23,63.34h0c-.61,0-1.15.39-1.34.98-.24.74.17,1.54.91,1.78.14.05.29.07.44.07.61,0,1.15-.39,1.34-.98.12-.36.09-.74-.08-1.08-.17-.34-.46-.59-.82-.7-.14-.05-.29-.07-.44-.07h0Z"/>
          </g>
        </g>
        <g id="_Répétition_radiale_-50" data-name="&amp;lt;Répétition radiale&amp;gt;">
          <g>
            <path class="cls-1" d="M91.48,70.63c-.19,0-.38-.04-.55-.12-.68-.3-.99-1.11-.69-1.79.22-.49.71-.81,1.24-.81.19,0,.38.04.55.12.33.15.59.42.72.75.13.34.12.71-.03,1.04-.22.49-.71.81-1.24.81Z"/>
            <path class="cls-3" d="M91.48,67.96c.18,0,.36.04.53.11.66.29.95,1.06.66,1.72-.22.49-.69.77-1.19.77-.18,0-.36-.04-.53-.11-.66-.29-.95-1.06-.66-1.72.22-.49.69-.77,1.19-.77M91.48,67.86c-.56,0-1.07.33-1.29.84-.32.71,0,1.55.72,1.87.18.08.38.12.57.12.56,0,1.07-.33,1.29-.84.32-.71,0-1.55-.72-1.87-.18-.08-.38-.12-.57-.12h0Z"/>
          </g>
        </g>
        <g id="_Répétition_radiale_-51" data-name="&amp;lt;Répétition radiale&amp;gt;">
          <g>
            <path class="cls-1" d="M89.26,74.94c-.24,0-.47-.06-.68-.18-.31-.18-.54-.47-.63-.83-.09-.35-.05-.72.14-1.03.24-.42.69-.68,1.18-.68.24,0,.47.06.68.18.65.37.87,1.21.5,1.86-.24.42-.69.68-1.18.68Z"/>
            <path class="cls-3" d="M89.26,72.27c.22,0,.45.06.65.18.62.36.84,1.16.48,1.78-.24.42-.68.65-1.13.65-.22,0-.45-.06-.65-.18-.62-.36-.84-1.16-.48-1.78.24-.42.68-.65,1.13-.65M89.26,72.17h0c-.5,0-.97.27-1.23.71-.19.33-.24.71-.14,1.07.1.36.33.67.66.86.21.12.46.19.71.19.5,0,.97-.27,1.23-.71.39-.68.16-1.54-.52-1.93-.21-.12-.46-.19-.71-.19h0Z"/>
          </g>
        </g>
        <g id="_Répétition_radiale_-52" data-name="&amp;lt;Répétition radiale&amp;gt;">
          <g>
            <path class="cls-1" d="M86.6,78.99c-.29,0-.56-.09-.8-.26-.29-.21-.49-.53-.54-.89-.06-.36.03-.72.24-1.01.25-.35.67-.56,1.1-.56.29,0,.56.09.8.26.61.44.74,1.29.3,1.9-.25.35-.67.56-1.1.56Z"/>
            <path class="cls-3" d="M86.6,76.33c.27,0,.53.08.77.25.58.42.71,1.24.29,1.82-.26.35-.65.54-1.06.54-.27,0-.53-.08-.77-.25-.58-.42-.71-1.24-.29-1.82.26-.35.65-.54,1.06-.54M86.6,76.22h0c-.45,0-.88.22-1.14.58-.46.63-.32,1.52.31,1.97.24.18.53.27.83.27.45,0,.88-.22,1.14-.58.22-.31.31-.68.25-1.05-.06-.37-.26-.7-.57-.92-.24-.18-.53-.27-.83-.27h0Z"/>
          </g>
        </g>
        <g id="_Répétition_radiale_-53" data-name="&amp;lt;Répétition radiale&amp;gt;">
          <g>
            <path class="cls-1" d="M83.53,82.75c-.34,0-.66-.12-.91-.35-.56-.5-.6-1.36-.1-1.92.26-.29.63-.45,1.01-.45.34,0,.66.12.91.35.27.24.43.58.45.94.02.36-.1.71-.35.98-.26.29-.62.45-1.01.45Z"/>
            <path class="cls-3" d="M83.53,80.08c.31,0,.62.11.87.34.54.48.58,1.31.1,1.84-.26.29-.61.43-.97.43-.31,0-.62-.11-.87-.34-.54-.48-.58-1.31-.1-1.84.26-.29.61-.43.97-.43M83.53,79.97c-.4,0-.78.17-1.05.47-.52.58-.47,1.47.1,2,.26.23.6.36.95.36.4,0,.78-.17,1.05-.47.52-.58.47-1.47-.1-2-.26-.23-.6-.36-.95-.36h0Z"/>
          </g>
        </g>
        <g id="_Répétition_radiale_-54" data-name="&amp;lt;Répétition radiale&amp;gt;">
          <g>
            <path class="cls-1" d="M80.09,86.16c-.38,0-.75-.16-1.01-.45-.5-.56-.46-1.42.1-1.92.25-.23.57-.35.91-.35.38,0,.75.16,1.01.45.24.27.37.62.35.98-.02.36-.18.7-.45.94-.25.23-.57.35-.91.35Z"/>
            <path class="cls-3" d="M80.09,83.5c.36,0,.71.15.97.43.48.54.44,1.36-.1,1.84-.25.22-.56.34-.87.34-.36,0-.71-.15-.97-.43-.48-.54-.44-1.36.1-1.84.25-.22.56-.34.87-.34M80.09,83.39h0c-.35,0-.69.13-.95.36-.28.25-.45.6-.47.98-.02.38.11.74.36,1.02.27.3.65.47,1.05.47.35,0,.69-.13.95-.36.58-.52.63-1.42.1-2-.27-.3-.65-.47-1.05-.47h0Z"/>
          </g>
        </g>
        <g id="_Répétition_radiale_-55" data-name="&amp;lt;Répétition radiale&amp;gt;">
          <g>
            <path class="cls-1" d="M76.31,89.19c-.43,0-.85-.21-1.1-.56-.21-.29-.3-.65-.24-1.01.06-.36.25-.67.54-.89.23-.17.51-.26.8-.26.43,0,.85.21,1.1.56.44.61.3,1.46-.3,1.9-.23.17-.51.26-.8.26Z"/>
            <path class="cls-3" d="M76.31,86.53c.4,0,.8.19,1.06.54.42.58.29,1.4-.29,1.82-.23.17-.5.25-.77.25-.4,0-.8-.19-1.06-.54-.42-.58-.29-1.4.29-1.82.23-.17.5-.25.77-.25M76.31,86.42c-.3,0-.59.09-.83.27-.63.46-.77,1.34-.31,1.97.27.36.69.58,1.14.58.3,0,.59-.09.83-.27.63-.46.77-1.34.31-1.97-.27-.36-.69-.58-1.14-.58h0Z"/>
          </g>
        </g>
        <g id="_Répétition_radiale_-56" data-name="&amp;lt;Répétition radiale&amp;gt;">
          <g>
            <path class="cls-1" d="M72.23,91.82c-.48,0-.94-.26-1.18-.68-.18-.31-.23-.68-.14-1.03.09-.35.32-.64.63-.83.21-.12.44-.18.68-.18.48,0,.94.26,1.18.68.18.31.23.68.14,1.03-.09.35-.32.64-.63.83-.21.12-.44.18-.68.18Z"/>
            <path class="cls-3" d="M72.23,89.15c.45,0,.89.23,1.13.65.36.62.15,1.42-.48,1.78-.21.12-.43.18-.65.18-.45,0-.89-.23-1.13-.65-.36-.62-.15-1.42.48-1.78.21-.12.43-.18.65-.18M72.23,89.04h0c-.25,0-.49.07-.71.19-.68.39-.91,1.26-.52,1.93.25.44.72.71,1.23.71.25,0,.49-.07.71-.19.33-.19.56-.49.66-.86.1-.36.05-.75-.14-1.07-.25-.44-.72-.71-1.23-.71h0Z"/>
          </g>
        </g>
        <g id="_Répétition_radiale_-57" data-name="&amp;lt;Répétition radiale&amp;gt;">
          <g>
            <path class="cls-1" d="M67.91,94c-.54,0-1.02-.32-1.24-.81-.15-.33-.16-.7-.03-1.04.13-.34.38-.61.72-.75.18-.08.36-.12.55-.12.54,0,1.02.32,1.24.81.15.33.16.7.03,1.04-.13.34-.38.61-.72.75-.18.08-.36.12-.55.12Z"/>
            <path class="cls-3" d="M67.9,91.33c.5,0,.98.29,1.19.77.29.66,0,1.43-.66,1.72-.17.08-.35.11-.53.11-.5,0-.98-.29-1.19-.77-.29-.66,0-1.43.66-1.72.17-.08.35-.11.53-.11M67.9,91.23c-.2,0-.39.04-.57.12-.71.32-1.03,1.15-.72,1.87.23.51.73.84,1.29.84.2,0,.39-.04.57-.12.34-.15.61-.43.74-.78s.13-.74-.03-1.08c-.23-.51-.73-.84-1.29-.84h0Z"/>
          </g>
        </g>
        <g id="_Répétition_radiale_-58" data-name="&amp;lt;Répétition radiale&amp;gt;">
          <g>
            <path class="cls-1" d="M63.37,95.72c-.59,0-1.11-.38-1.29-.94-.11-.35-.08-.71.08-1.04.16-.32.45-.56.79-.68.14-.04.28-.07.42-.07.59,0,1.11.38,1.29.94.11.35.08.71-.08,1.04-.16.32-.45.56-.79.68-.14.04-.28.07-.42.07Z"/>
            <path class="cls-3" d="M63.37,93.05c.55,0,1.06.35,1.24.9.22.69-.15,1.42-.84,1.64-.13.04-.27.06-.4.06-.55,0-1.06-.35-1.24-.9-.22-.69.15-1.42.84-1.64.13-.04.27-.06.4-.06M63.37,92.94c-.15,0-.3.02-.44.07-.36.12-.65.37-.82.7-.17.34-.2.72-.08,1.08.19.58.73.98,1.34.98.15,0,.3-.02.44-.07.74-.24,1.15-1.04.91-1.78-.19-.58-.73-.98-1.34-.98h0Z"/>
          </g>
        </g>
        <g id="_Répétition_radiale_-59" data-name="&amp;lt;Répétition radiale&amp;gt;">
          <g>
            <path class="cls-1" d="M58.68,96.95c-.64,0-1.2-.45-1.33-1.08-.16-.73.31-1.46,1.05-1.61.09-.02.19-.03.28-.03.64,0,1.2.45,1.33,1.08.08.35,0,.72-.19,1.02-.2.3-.5.51-.86.59-.09.02-.19.03-.28.03Z"/>
            <path class="cls-3" d="M58.68,94.29c.6,0,1.14.42,1.28,1.03.15.7-.3,1.4-1.01,1.55-.09.02-.18.03-.27.03-.6,0-1.14-.42-1.28-1.03-.15-.7.3-1.4,1.01-1.55.09-.02.18-.03.27-.03M58.69,94.18c-.1,0-.2.01-.3.03-.76.16-1.25.91-1.09,1.68.14.65.72,1.12,1.38,1.12.1,0,.2-.01.3-.03.76-.16,1.25-.91,1.09-1.68-.14-.65-.72-1.12-1.38-1.12h0Z"/>
          </g>
        </g>
        <g id="_Répétition_radiale_-60" data-name="&amp;lt;Répétition radiale&amp;gt;">
          <g>
            <path class="cls-1" d="M53.89,97.69c-.7,0-1.28-.52-1.35-1.22-.04-.36.07-.72.29-1,.23-.28.55-.46.91-.5.05,0,.1,0,.14,0,.7,0,1.28.52,1.35,1.22.04.36-.07.72-.3,1-.23.28-.55.46-.91.5-.05,0-.1,0-.14,0Z"/>
            <path class="cls-3" d="M53.89,95.02c.66,0,1.23.5,1.3,1.17.08.72-.44,1.36-1.16,1.43-.05,0-.09,0-.14,0-.66,0-1.23-.5-1.3-1.17-.08-.72.44-1.36,1.16-1.43.05,0,.09,0,.14,0M53.89,94.92h0s-.1,0-.15,0c-.38.04-.71.22-.95.52s-.35.66-.31,1.04c.08.72.68,1.27,1.4,1.27.05,0,.1,0,.15,0,.78-.08,1.34-.78,1.26-1.55-.08-.72-.68-1.27-1.4-1.27h0Z"/>
          </g>
        </g>
      </g>
      <g>
        <path class="cls-1" d="M39.12,33.37V11.12h22.25v19.72c0,2.38-1.25,2.48-6.05,2.48h-.1l-.02-.1c-.11-.49-.43-1.25-.67-1.71l-.1-.19h.22c.95.03,1.85.06,2.59.06,2.12,0,2.12-.02,2.12-.54v-8.22h-18.21v10.74h-2.02ZM59.36,20.67v-7.6h-8.24v7.6h8.24ZM49.1,20.67v-7.6h-7.95v7.6h7.95Z"/>
        <path class="cls-3" d="M61.25,11.25v19.6c0,2.22-1,2.35-5.92,2.35-.11-.49-.42-1.25-.69-1.74.95.03,1.85.05,2.59.05,2.09,0,2.25,0,2.25-.66v-8.34h-18.46v10.74h-1.77V11.25h22M50.99,20.79h8.49v-7.85h-8.49v7.85M41.02,20.79h8.2v-7.85h-8.2v7.85M61.5,11h-22.5v22.5h2.27v-10.74h17.96v8.09q0,.41-2,.41c-.72,0-1.6-.02-2.53-.05h-.05s-.43-.01-.43-.01l.21.38c.24.45.56,1.2.66,1.67l.04.2h.2c4.89,0,6.17-.1,6.17-2.6V11h0ZM51.24,13.19h7.99v7.35h-7.99v-7.35h0ZM41.27,13.19h7.7v7.35h-7.7v-7.35h0Z"/>
      </g>
      <g>
        <path class="cls-1" d="M40.54,89.32c-.32-.29-.98-.7-1.33-.83l-.15-.05.08-.13c1.86-2.95,2.1-7.05,2.1-10.29v-5.85h7.93v-5.05l2.36.13-.02.13c-.03.27-.26.37-.48.42v1.28h8.43v1.6h-8.43v1.48h9.01l1.14.05v.12c0,.34-.79,2.71-1.51,3.97l-.05.09-1.65-.6.06-.12c.25-.51.52-1.18.74-1.85h-7.56s-.1.09-.24.12v1.58l6.23-.59.17,1.48-6.4.62v.95c0,.5.07.66,1.61.66h5.4c.99,0,1.17-.13,1.27-1.75v-.21s.19.11.19.11c.3.19.88.38,1.33.48l.11.02v.11c-.21,2.21-.78,2.79-2.76,2.79h-5.59c-2.63,0-3.35-.47-3.35-2.18v-.81l-4.95.47-.2-1.48,5.15-.5v-1.87h-6.09v4.2c0,4.97-.79,8.76-2.36,11.28l-.08.13-.11-.1ZM43.21,89.3c-.16-.36-.56-.92-.86-1.19l-.17-.15.21-.06c3.85-1.13,4.63-3.21,4.85-7.15v-.13s2.23.19,2.23.19v.11c0,.11-.05.35-.47.42-.31,4.15-1.32,6.66-5.65,8.03l-.11.03-.05-.1ZM55.32,88.88c-2.06,0-2.65-.52-2.65-2.3v-5.93l2.29.13-.02.13c-.03.22-.18.35-.46.42v5.22c0,.51.04.63.98.63h3.25c.73,0,.89-.24.98-3v-.27s.21.18.21.18c.28.25.89.48,1.37.61l.1.03v.1c-.19,2.98-.59,4.04-2.51,4.04h-3.54Z"/>
        <path class="cls-3" d="M49.3,67.25l2.1.12c-.02.19-.17.28-.48.33v1.51h8.43v1.35h-8.43v1.73h9.13l1.01.05c0,.31-.77,2.65-1.49,3.9l-1.42-.52c.26-.54.56-1.28.79-2.04h-7.73c-.07.07-.19.12-.36.14v1.82l6.24-.59.14,1.23-6.38.62v1.06c0,.64.24.78,1.73.78h5.4c1.11,0,1.3-.26,1.4-1.87.34.21.96.4,1.37.5-.19,2.15-.7,2.67-2.63,2.67h-5.59c-2.55,0-3.23-.4-3.23-2.06v-.95l-4.96.47-.17-1.23,5.13-.5v-2.11h-6.34v4.33c0,3.31-.34,8-2.34,11.21-.31-.28-.99-.71-1.37-.85,1.93-3.05,2.12-7.29,2.12-10.36v-5.72h7.93v-5.04M47.37,80.76l1.98.17c0,.17-.15.28-.46.31-.29,4.04-1.16,6.62-5.57,8.02-.17-.38-.58-.95-.89-1.23,3.95-1.16,4.72-3.31,4.94-7.26M52.79,80.78l2.02.12c-.02.17-.14.28-.46.33v5.32c0,.64.17.76,1.11.76h3.25c.87,0,1.01-.38,1.11-3.12.31.28.99.52,1.42.64-.19,3.15-.65,3.93-2.38,3.93h-3.54c-2,0-2.53-.47-2.53-2.18v-5.8M49.05,66.99v5.05h-7.93v5.97c0,3.23-.24,7.31-2.08,10.23l-.16.26.29.11c.34.12.99.53,1.29.8l.22.2.16-.25c1.58-2.54,2.37-6.35,2.37-11.35v-4.08h5.84v1.63l-4.91.48-.26.03.04.26.17,1.23.03.24.24-.02,4.69-.45v.67c0,1.97,1.07,2.31,3.48,2.31h5.59c2.05,0,2.67-.62,2.88-2.9l.02-.22-.21-.05c-.44-.1-1.01-.28-1.3-.46l-.36-.23-.03.42c-.1,1.58-.27,1.63-1.15,1.63h-5.4c-1.48,0-1.48-.14-1.48-.53v-.84l6.16-.59.25-.02-.03-.25-.14-1.23-.03-.24-.24.02-5.97.57v-1.35c.08-.02.14-.05.2-.09h7.3c-.21.61-.45,1.21-.67,1.68l-.12.25.26.1,1.42.52.2.07.1-.18c.71-1.24,1.53-3.63,1.53-4.03v-.24h-.24s-1.01-.06-1.01-.06h-8.89v-1.23h8.43v-1.85h-8.43v-1.06c.2-.06.44-.19.48-.5l.03-.27-.27-.02-2.1-.12h-.26ZM47.13,80.49v.26c-.23,3.88-.99,5.93-4.77,7.04l-.43.13.33.3c.29.26.67.8.83,1.15l.09.2.21-.07c4.36-1.38,5.4-3.9,5.73-8.04.44-.11.47-.42.47-.52v-.23l-.23-.02-1.98-.17-.26-.02h0ZM52.54,80.52v6.06c0,1.86.65,2.43,2.78,2.43h3.54c2.02,0,2.45-1.09,2.63-4.16v-.2s-.18-.05-.18-.05c-.45-.12-1.06-.35-1.32-.58l-.4-.36-.02.54c-.1,2.88-.29,2.88-.86,2.88h-3.25c-.86,0-.86-.06-.86-.51v-5.12c.27-.09.42-.25.45-.49l.04-.27-.27-.02-2.02-.12-.26-.02h0Z"/>
      </g>
      <g>
        <path class="cls-1" d="M18.86,61.3c-.15-.37-.57-1.05-.87-1.35l-.16-.16.21-.05c4.1-1.05,5.17-3.09,5.57-6.04l.02-.12,2.21.26-.04.14c-.03.1-.14.33-.48.4-.62,3.34-1.9,5.67-6.31,7l-.11.03-.04-.1ZM29.97,61.18c-1.64,0-2.11-.51-2.11-2.29v-5.65h-6.19v-14.11h11.18v14.11h-3.24v5.65c0,.52.04.6.59.6h1.99c.41,0,.54-.22.59-2.89v-.26s.21.17.21.17c.32.27.91.53,1.29.62l.1.02v.1c-.15,3.12-.56,3.93-2.02,3.93h-2.38ZM31.07,51.54v-2.51h-7.68v2.51h7.68ZM31.07,47.39v-2.49h-7.68v2.49h7.68ZM31.07,43.28v-2.46h-7.68v2.46h7.68ZM12.08,55.49l.33-.09c.96-.26,2.15-.58,3.45-.96v-6.2h-3.05v-1.79h3.05v-5.32h-3.35v-1.82h8.27v1.82h-3.17v5.32h2.98v1.79h-2.98v5.68l3.31-.99.22,1.69-.1.03c-2.8.93-5.81,1.9-7.69,2.47-.05.2-.18.36-.35.42l-.11.04-.81-2.08Z"/>
        <path class="cls-3" d="M32.73,39.25v13.86h-3.24v5.77c0,.6.09.72.72.72h1.99c.56,0,.67-.4.72-3.01.32.27.92.55,1.34.65-.14,3.06-.53,3.81-1.89,3.81h-2.38c-1.59,0-1.99-.47-1.99-2.17v-5.77h-6.19v-13.86h10.93M23.27,43.41h7.93v-2.71h-7.93v2.71M23.27,47.51h7.93v-2.74h-7.93v2.74M23.27,51.67h7.93v-2.76h-7.93v2.76M20.66,39.42v1.57h-3.17v5.57h2.98v1.54h-2.98v5.97l3.33-1,.18,1.44c-2.84.95-5.87,1.92-7.76,2.49-.02.2-.14.35-.28.4l-.72-1.84c1.02-.27,2.31-.62,3.74-1.05v-6.42h-3.05v-1.54h3.05v-5.57h-3.35v-1.57h8.02M23.73,53.71l1.94.22c-.05.15-.18.3-.46.32-.58,3.21-1.78,5.65-6.24,6.99-.16-.4-.6-1.1-.9-1.39,4.09-1.04,5.25-3.09,5.66-6.15M32.98,39h-11.43v14.36h6.19v5.52c0,1.85.52,2.42,2.24,2.42h2.38c1.69,0,2.02-1.19,2.14-4.05v-.21s-.19-.05-.19-.05c-.41-.1-.96-.36-1.24-.59l-.4-.34v.53c-.05,2.52-.18,2.77-.48,2.77h-1.99q-.47,0-.47-.47v-5.52h3.24v-14.36h0ZM23.52,40.94h7.43v2.21h-7.43v-2.21h0ZM23.52,45.02h7.43v2.24h-7.43v-2.24h0ZM23.52,49.16h7.43v2.26h-7.43v-2.26h0ZM20.91,39.17h-8.52v2.07h3.35v5.07h-3.05v2.04h3.05v5.98c-1.28.38-2.44.69-3.39.95l-.17.05-.27.07.1.26.72,1.84.09.23.23-.08c.19-.07.34-.23.41-.44,1.89-.57,4.86-1.53,7.63-2.45l.2-.06-.03-.2-.18-1.44-.04-.29-.28.08-3.01.9v-5.39h2.98v-2.04h-2.98v-5.07h3.17v-2.07h0ZM23.52,53.43l-.03.24c-.39,2.9-1.45,4.91-5.48,5.94l-.43.11.31.31c.28.28.7.96.85,1.31l.09.21.22-.07c4.42-1.33,5.77-3.77,6.38-7.02.24-.07.42-.24.49-.46l.09-.29-.3-.03-1.94-.22-.24-.03h0Z"/>
      </g>
      <g>
        <path class="cls-1" d="M66.9,61.37v-1.72h9.26v-6.01h-8.2v-1.72h8.2v-3.17h-5.05v-1.26c-1.23.98-2.51,1.87-3.81,2.63l-.1.06-.06-.1c-.25-.39-.66-.96-.97-1.28l-.11-.12.14-.08c3.98-2.2,8.07-6.08,9.96-9.44l.04-.07,2.53.16-.04.15c-.04.18-.18.32-.39.41,2.25,3.16,6.34,6.62,10.01,8.47l.15.07-.11.12c-.38.42-.77.95-1.04,1.42l-.06.11-.11-.06c-1.29-.74-2.59-1.62-3.83-2.58v1.37h-5.24v3.17h8.39v1.72h-8.39v6.01h9.5v1.72h-20.65ZM82.83,47.02c-2.31-1.84-4.37-3.93-5.71-5.83-1.2,1.86-3.11,3.91-5.42,5.83h11.13ZM79.88,58.85l.08-.12c.91-1.27,2.03-3.26,2.62-4.62l.05-.12,2,.91-.06.11c-.08.17-.28.27-.54.27h-.02c-.64,1.18-1.75,2.98-2.67,4.2l-.06.08-1.4-.73ZM72.26,59.4c-.29-1.19-1.21-3.11-2.19-4.58l-.09-.13,1.52-.61.06.08c1.02,1.42,2,3.34,2.32,4.56l.03.1-1.62.71-.04-.14Z"/>
        <path class="cls-3" d="M76.26,39.25l2.3.15c-.05.2-.24.32-.47.37,2.28,3.28,6.51,6.82,10.16,8.65-.38.42-.78.95-1.06,1.44-3.67-2.1-7.87-5.67-10.08-8.9-1.25,1.98-3.34,4.2-5.76,6.18h11.82v1.49h-5.24v3.42h8.39v1.47h-8.39v6.26h9.5v1.47h-20.4v-1.47h9.26v-6.26h-8.2v-1.47h8.2v-3.42h-5.05v-1.39c-1.27,1.03-2.63,1.98-4,2.79-.23-.37-.66-.95-.99-1.3,4.11-2.27,8.16-6.18,10.01-9.48M82.7,54.16l1.76.81c-.06.13-.21.2-.43.2-.03,0-.06,0-.09,0-.68,1.27-1.81,3.08-2.7,4.25l-1.18-.61c.87-1.22,2.02-3.23,2.63-4.64M71.47,54.23c.99,1.37,1.98,3.28,2.3,4.52l-1.39.61c-.31-1.25-1.25-3.18-2.21-4.62l1.29-.51M76.12,38.99l-.08.14c-1.88,3.34-5.96,7.2-9.91,9.39l-.28.16.23.23c.3.31.71.87.95,1.26l.13.2.21-.12c1.23-.73,2.44-1.56,3.62-2.48v1.12h5.05v2.92h-8.2v1.97h8.2v5.76h-3.41l1.24-.55.2-.09-.05-.21c-.33-1.24-1.31-3.18-2.34-4.6l-.11-.16-.18.07-1.29.51-.29.11.17.26c.97,1.45,1.88,3.36,2.17,4.54l.03.11h-5.39v1.97h20.9v-1.97h-6.21c.9-1.2,1.98-2.94,2.62-4.12.28-.01.5-.14.6-.34l.11-.23-.23-.11-1.76-.81-.23-.11-.1.23c-.58,1.35-1.7,3.33-2.61,4.6l-.17.23.25.13.97.51h-2.75v-5.76h8.39v-1.97h-8.39v-2.92h5.24v-1.24c1.19.9,2.42,1.73,3.64,2.43l.22.12.12-.22c.27-.46.65-.99,1.03-1.4l.22-.24-.29-.15c-3.61-1.82-7.62-5.2-9.88-8.31.17-.1.28-.25.32-.42l.07-.29-.3-.02-2.3-.15h-.16ZM72.04,46.9c2.13-1.81,3.91-3.73,5.08-5.49,1.29,1.8,3.21,3.74,5.35,5.49h-10.43Z"/>
      </g>
    </g>
  </g>
</svg>