<?xml version="1.0" encoding="UTF-8"?>
<svg id="Calque_2" data-name="Calque 2" xmlns="http://www.w3.org/2000/svg" viewBox="0 0 100 102">
  <defs>
    <style>
      .cls-1 {
        fill: #6d6956;
      }

      .cls-2 {
        fill: #a8a284;
      }

      .cls-3 {
        fill: #737b64;
      }

      .cls-4 {
        fill: #c2bea9;
      }
    </style>
  </defs>
  <g id="Yen_final">
    <g>
      <g>
        <path class="cls-1" d="M52.6,2.07C22.93.56-1.44,24.93.07,54.6c1.29,25.4,21.93,46.04,47.33,47.33,29.67,1.5,54.04-22.87,52.54-52.54-1.29-25.4-21.93-46.04-47.33-47.33ZM82,52c0,17.67-14.33,32-32,32s-32-14.33-32-32,14.33-32,32-32,32,14.33,32,32Z"/>
        <path class="cls-4" d="M52.6.07C22.93-1.44-1.44,22.93.07,52.6c1.29,25.4,21.93,46.04,47.33,47.33,29.67,1.5,54.04-22.87,52.54-52.54C98.65,21.99,78,1.35,52.6.07ZM82,50c0,17.67-14.33,32-32,32s-32-14.33-32-32,14.33-32,32-32,32,14.33,32,32Z"/>
        <path class="cls-2" d="M52.6,1.07C22.93-.44-1.44,23.93.07,53.6c1.29,25.4,21.93,46.04,47.33,47.33,29.67,1.5,54.04-22.87,52.54-52.54C98.65,22.99,78.01,2.35,52.6,1.07ZM82,51c0,17.67-14.33,32-32,32s-32-14.33-32-32,14.33-32,32-32,32,14.33,32,32Z"/>
      </g>
      <g>
        <path class="cls-4" d="M52.45,5.06C24.56,3.65,1.65,26.56,3.06,54.45c1.21,23.88,20.61,43.28,44.49,44.49,27.89,1.41,50.8-21.5,49.38-49.38-1.21-23.88-20.61-43.28-44.49-44.49ZM62.22,50c0,6.75-5.47,12.22-12.22,12.22s-12.22-5.47-12.22-12.22,5.47-12.22,12.22-12.22,12.22,5.47,12.22,12.22Z"/>
        <path class="cls-1" d="M52.45,3.06C24.56,1.65,1.65,24.56,3.06,52.45c1.21,23.88,20.61,43.28,44.49,44.49,27.89,1.41,50.8-21.5,49.38-49.38-1.21-23.88-20.61-43.28-44.49-44.49ZM62.22,52c0,6.75-5.47,12.22-12.22,12.22s-12.22-5.47-12.22-12.22,5.47-12.22,12.22-12.22,12.22,5.47,12.22,12.22Z"/>
        <path class="cls-3" d="M52.45,4.06C24.56,2.65,1.65,25.56,3.06,53.45c1.21,23.88,20.61,43.28,44.49,44.49,27.89,1.41,50.8-21.5,49.38-49.38-1.21-23.88-20.61-43.28-44.49-44.49ZM62.22,51c0,6.75-5.47,12.22-12.22,12.22s-12.22-5.47-12.22-12.22,5.47-12.22,12.22-12.22,12.22,5.47,12.22,12.22Z"/>
      </g>
      <g>
        <g id="_Répétition_radiale_" data-name="&amp;lt;Répétition radiale&amp;gt;">
          <path class="cls-1" d="M48.81,96.5c0-.55.45-1,1-1,.55,0,1,.45,1,1,0,.55-.45,1-1,1-.55,0-1-.45-1-1Z"/>
        </g>
        <g id="_Répétition_radiale_-2" data-name="&amp;lt;Répétition radiale&amp;gt;">
          <circle class="cls-1" cx="45.11" cy="96.23" r="1"/>
        </g>
        <g id="_Répétition_radiale_-3" data-name="&amp;lt;Répétition radiale&amp;gt;">
          <circle class="cls-1" cx="40.46" cy="95.48" r="1"/>
        </g>
        <g id="_Répétition_radiale_-4" data-name="&amp;lt;Répétition radiale&amp;gt;">
          <circle class="cls-1" cx="35.91" cy="94.24" r="1"/>
        </g>
        <g id="_Répétition_radiale_-5" data-name="&amp;lt;Répétition radiale&amp;gt;">
          <circle class="cls-1" cx="31.52" cy="92.53" r="1"/>
        </g>
        <g id="_Répétition_radiale_-6" data-name="&amp;lt;Répétition radiale&amp;gt;">
          <circle class="cls-1" cx="27.34" cy="90.38" r="1"/>
        </g>
        <g id="_Répétition_radiale_-7" data-name="&amp;lt;Répétition radiale&amp;gt;">
          <circle class="cls-1" cx="23.4" cy="87.79" r="1"/>
        </g>
        <g id="_Répétition_radiale_-8" data-name="&amp;lt;Répétition radiale&amp;gt;">
          <circle class="cls-1" cx="19.75" cy="84.81" r="1"/>
        </g>
        <g id="_Répétition_radiale_-9" data-name="&amp;lt;Répétition radiale&amp;gt;">
          <circle class="cls-1" cx="16.43" cy="81.47" r="1"/>
        </g>
        <g id="_Répétition_radiale_-10" data-name="&amp;lt;Répétition radiale&amp;gt;">
          <circle class="cls-1" cx="13.48" cy="77.8" r="1"/>
        </g>
        <g id="_Répétition_radiale_-11" data-name="&amp;lt;Répétition radiale&amp;gt;">
          <circle class="cls-1" cx="10.93" cy="73.83" r="1"/>
        </g>
        <g id="_Répétition_radiale_-12" data-name="&amp;lt;Répétition radiale&amp;gt;">
          <circle class="cls-1" cx="8.81" cy="69.63" r="1"/>
        </g>
        <g id="_Répétition_radiale_-13" data-name="&amp;lt;Répétition radiale&amp;gt;">
          <circle class="cls-1" cx="7.14" cy="65.22" r="1"/>
        </g>
        <g id="_Répétition_radiale_-14" data-name="&amp;lt;Répétition radiale&amp;gt;">
          <circle class="cls-1" cx="5.94" cy="60.67" r="1"/>
        </g>
        <g id="_Répétition_radiale_-15" data-name="&amp;lt;Répétition radiale&amp;gt;">
          <circle class="cls-1" cx="5.23" cy="56.01" r="1"/>
        </g>
        <g id="_Répétition_radiale_-16" data-name="&amp;lt;Répétition radiale&amp;gt;">
          <path class="cls-1" d="M5,50.31c.55,0,1,.45,1,1,0,.55-.45,1-1,1-.55,0-1-.45-1-1,0-.55.45-1,1-1Z"/>
        </g>
        <g id="_Répétition_radiale_-17" data-name="&amp;lt;Répétition radiale&amp;gt;">
          <circle class="cls-1" cx="5.27" cy="46.61" r="1"/>
        </g>
        <g id="_Répétition_radiale_-18" data-name="&amp;lt;Répétition radiale&amp;gt;">
          <circle class="cls-1" cx="6.02" cy="41.96" r="1"/>
        </g>
        <g id="_Répétition_radiale_-19" data-name="&amp;lt;Répétition radiale&amp;gt;">
          <circle class="cls-1" cx="7.26" cy="37.41" r="1"/>
        </g>
        <g id="_Répétition_radiale_-20" data-name="&amp;lt;Répétition radiale&amp;gt;">
          <circle class="cls-1" cx="8.97" cy="33.02" r="1"/>
        </g>
        <g id="_Répétition_radiale_-21" data-name="&amp;lt;Répétition radiale&amp;gt;">
          <circle class="cls-1" cx="11.12" cy="28.84" r="1"/>
        </g>
        <g id="_Répétition_radiale_-22" data-name="&amp;lt;Répétition radiale&amp;gt;">
          <circle class="cls-1" cx="13.71" cy="24.9" r="1"/>
        </g>
        <g id="_Répétition_radiale_-23" data-name="&amp;lt;Répétition radiale&amp;gt;">
          <circle class="cls-1" cx="16.69" cy="21.25" r="1"/>
        </g>
        <g id="_Répétition_radiale_-24" data-name="&amp;lt;Répétition radiale&amp;gt;">
          <circle class="cls-1" cx="20.03" cy="17.93" r="1"/>
        </g>
        <g id="_Répétition_radiale_-25" data-name="&amp;lt;Répétition radiale&amp;gt;">
          <circle class="cls-1" cx="23.7" cy="14.98" r="1"/>
        </g>
        <g id="_Répétition_radiale_-26" data-name="&amp;lt;Répétition radiale&amp;gt;">
          <circle class="cls-1" cx="27.66" cy="12.43" r="1"/>
        </g>
        <g id="_Répétition_radiale_-27" data-name="&amp;lt;Répétition radiale&amp;gt;">
          <circle class="cls-1" cx="31.87" cy="10.31" r="1"/>
        </g>
        <g id="_Répétition_radiale_-28" data-name="&amp;lt;Répétition radiale&amp;gt;">
          <circle class="cls-1" cx="36.28" cy="8.64" r="1"/>
        </g>
        <g id="_Répétition_radiale_-29" data-name="&amp;lt;Répétition radiale&amp;gt;">
          <circle class="cls-1" cx="40.83" cy="7.44" r="1"/>
        </g>
        <g id="_Répétition_radiale_-30" data-name="&amp;lt;Répétition radiale&amp;gt;">
          <circle class="cls-1" cx="45.49" cy="6.73" r="1"/>
        </g>
        <g id="_Répétition_radiale_-31" data-name="&amp;lt;Répétition radiale&amp;gt;">
          <path class="cls-1" d="M51.19,6.5c0,.55-.45,1-1,1-.55,0-1-.45-1-1,0-.55.45-1,1-1,.55,0,1,.45,1,1Z"/>
        </g>
        <g id="_Répétition_radiale_-32" data-name="&amp;lt;Répétition radiale&amp;gt;">
          <circle class="cls-1" cx="54.89" cy="6.77" r="1"/>
        </g>
        <g id="_Répétition_radiale_-33" data-name="&amp;lt;Répétition radiale&amp;gt;">
          <circle class="cls-1" cx="59.54" cy="7.52" r="1"/>
        </g>
        <g id="_Répétition_radiale_-34" data-name="&amp;lt;Répétition radiale&amp;gt;">
          <circle class="cls-1" cx="64.09" cy="8.76" r="1"/>
        </g>
        <g id="_Répétition_radiale_-35" data-name="&amp;lt;Répétition radiale&amp;gt;">
          <circle class="cls-1" cx="68.48" cy="10.47" r="1"/>
        </g>
        <g id="_Répétition_radiale_-36" data-name="&amp;lt;Répétition radiale&amp;gt;">
          <circle class="cls-1" cx="72.66" cy="12.62" r="1"/>
        </g>
        <g id="_Répétition_radiale_-37" data-name="&amp;lt;Répétition radiale&amp;gt;">
          <circle class="cls-1" cx="76.6" cy="15.21" r="1"/>
        </g>
        <g id="_Répétition_radiale_-38" data-name="&amp;lt;Répétition radiale&amp;gt;">
          <circle class="cls-1" cx="80.25" cy="18.19" r="1"/>
        </g>
        <g id="_Répétition_radiale_-39" data-name="&amp;lt;Répétition radiale&amp;gt;">
          <circle class="cls-1" cx="83.57" cy="21.53" r="1"/>
        </g>
        <g id="_Répétition_radiale_-40" data-name="&amp;lt;Répétition radiale&amp;gt;">
          <circle class="cls-1" cx="86.52" cy="25.2" r="1"/>
        </g>
        <g id="_Répétition_radiale_-41" data-name="&amp;lt;Répétition radiale&amp;gt;">
          <circle class="cls-1" cx="89.07" cy="29.16" r="1"/>
        </g>
        <g id="_Répétition_radiale_-42" data-name="&amp;lt;Répétition radiale&amp;gt;">
          <circle class="cls-1" cx="91.19" cy="33.37" r="1"/>
        </g>
        <g id="_Répétition_radiale_-43" data-name="&amp;lt;Répétition radiale&amp;gt;">
          <circle class="cls-1" cx="92.86" cy="37.78" r="1"/>
        </g>
        <g id="_Répétition_radiale_-44" data-name="&amp;lt;Répétition radiale&amp;gt;">
          <circle class="cls-1" cx="94.06" cy="42.33" r="1"/>
        </g>
        <g id="_Répétition_radiale_-45" data-name="&amp;lt;Répétition radiale&amp;gt;">
          <circle class="cls-1" cx="94.77" cy="46.99" r="1"/>
        </g>
        <g id="_Répétition_radiale_-46" data-name="&amp;lt;Répétition radiale&amp;gt;">
          <path class="cls-1" d="M95,52.69c-.55,0-1-.45-1-1,0-.55.45-1,1-1,.55,0,1,.45,1,1,0,.55-.45,1-1,1Z"/>
        </g>
        <g id="_Répétition_radiale_-47" data-name="&amp;lt;Répétition radiale&amp;gt;">
          <circle class="cls-1" cx="94.73" cy="56.39" r="1"/>
        </g>
        <g id="_Répétition_radiale_-48" data-name="&amp;lt;Répétition radiale&amp;gt;">
          <circle class="cls-1" cx="93.98" cy="61.04" r="1"/>
        </g>
        <g id="_Répétition_radiale_-49" data-name="&amp;lt;Répétition radiale&amp;gt;">
          <circle class="cls-1" cx="92.74" cy="65.59" r="1"/>
        </g>
        <g id="_Répétition_radiale_-50" data-name="&amp;lt;Répétition radiale&amp;gt;">
          <circle class="cls-1" cx="91.03" cy="69.98" r="1"/>
        </g>
        <g id="_Répétition_radiale_-51" data-name="&amp;lt;Répétition radiale&amp;gt;">
          <circle class="cls-1" cx="88.88" cy="74.16" r="1"/>
        </g>
        <g id="_Répétition_radiale_-52" data-name="&amp;lt;Répétition radiale&amp;gt;">
          <circle class="cls-1" cx="86.29" cy="78.1" r="1"/>
        </g>
        <g id="_Répétition_radiale_-53" data-name="&amp;lt;Répétition radiale&amp;gt;">
          <circle class="cls-1" cx="83.31" cy="81.75" r="1"/>
        </g>
        <g id="_Répétition_radiale_-54" data-name="&amp;lt;Répétition radiale&amp;gt;">
          <circle class="cls-1" cx="79.97" cy="85.07" r="1"/>
        </g>
        <g id="_Répétition_radiale_-55" data-name="&amp;lt;Répétition radiale&amp;gt;">
          <circle class="cls-1" cx="76.3" cy="88.02" r="1"/>
        </g>
        <g id="_Répétition_radiale_-56" data-name="&amp;lt;Répétition radiale&amp;gt;">
          <circle class="cls-1" cx="72.33" cy="90.57" r="1"/>
        </g>
        <g id="_Répétition_radiale_-57" data-name="&amp;lt;Répétition radiale&amp;gt;">
          <circle class="cls-1" cx="68.13" cy="92.69" r="1"/>
        </g>
        <g id="_Répétition_radiale_-58" data-name="&amp;lt;Répétition radiale&amp;gt;">
          <circle class="cls-1" cx="63.72" cy="94.36" r="1"/>
        </g>
        <g id="_Répétition_radiale_-59" data-name="&amp;lt;Répétition radiale&amp;gt;">
          <circle class="cls-1" cx="59.17" cy="95.56" r="1"/>
        </g>
        <g id="_Répétition_radiale_-60" data-name="&amp;lt;Répétition radiale&amp;gt;">
          <circle class="cls-1" cx="54.51" cy="96.27" r="1"/>
        </g>
      </g>
      <g>
        <g id="_Répétition_radiale_-61" data-name="&amp;lt;Répétition radiale&amp;gt;">
          <path class="cls-2" d="M48.81,96c0-.55.45-1,1-1,.55,0,1,.45,1,1,0,.55-.45,1-1,1-.55,0-1-.45-1-1Z"/>
        </g>
        <g id="_Répétition_radiale_-62" data-name="&amp;lt;Répétition radiale&amp;gt;">
          <circle class="cls-2" cx="45.11" cy="95.73" r="1"/>
        </g>
        <g id="_Répétition_radiale_-63" data-name="&amp;lt;Répétition radiale&amp;gt;">
          <circle class="cls-2" cx="40.46" cy="94.98" r="1"/>
        </g>
        <g id="_Répétition_radiale_-64" data-name="&amp;lt;Répétition radiale&amp;gt;">
          <circle class="cls-2" cx="35.91" cy="93.74" r="1"/>
        </g>
        <g id="_Répétition_radiale_-65" data-name="&amp;lt;Répétition radiale&amp;gt;">
          <circle class="cls-2" cx="31.52" cy="92.03" r="1"/>
        </g>
        <g id="_Répétition_radiale_-66" data-name="&amp;lt;Répétition radiale&amp;gt;">
          <circle class="cls-2" cx="27.34" cy="89.88" r="1"/>
        </g>
        <g id="_Répétition_radiale_-67" data-name="&amp;lt;Répétition radiale&amp;gt;">
          <circle class="cls-2" cx="23.4" cy="87.29" r="1"/>
        </g>
        <g id="_Répétition_radiale_-68" data-name="&amp;lt;Répétition radiale&amp;gt;">
          <circle class="cls-2" cx="19.75" cy="84.31" r="1"/>
        </g>
        <g id="_Répétition_radiale_-69" data-name="&amp;lt;Répétition radiale&amp;gt;">
          <circle class="cls-2" cx="16.43" cy="80.97" r="1"/>
        </g>
        <g id="_Répétition_radiale_-70" data-name="&amp;lt;Répétition radiale&amp;gt;">
          <circle class="cls-2" cx="13.48" cy="77.3" r="1"/>
        </g>
        <g id="_Répétition_radiale_-71" data-name="&amp;lt;Répétition radiale&amp;gt;">
          <circle class="cls-2" cx="10.93" cy="73.33" r="1"/>
        </g>
        <g id="_Répétition_radiale_-72" data-name="&amp;lt;Répétition radiale&amp;gt;">
          <circle class="cls-2" cx="8.81" cy="69.13" r="1"/>
        </g>
        <g id="_Répétition_radiale_-73" data-name="&amp;lt;Répétition radiale&amp;gt;">
          <circle class="cls-2" cx="7.14" cy="64.72" r="1"/>
        </g>
        <g id="_Répétition_radiale_-74" data-name="&amp;lt;Répétition radiale&amp;gt;">
          <circle class="cls-2" cx="5.94" cy="60.17" r="1"/>
        </g>
        <g id="_Répétition_radiale_-75" data-name="&amp;lt;Répétition radiale&amp;gt;">
          <circle class="cls-2" cx="5.23" cy="55.51" r="1"/>
        </g>
        <g id="_Répétition_radiale_-76" data-name="&amp;lt;Répétition radiale&amp;gt;">
          <path class="cls-2" d="M5,49.81c.55,0,1,.45,1,1,0,.55-.45,1-1,1-.55,0-1-.45-1-1,0-.55.45-1,1-1Z"/>
        </g>
        <g id="_Répétition_radiale_-77" data-name="&amp;lt;Répétition radiale&amp;gt;">
          <circle class="cls-2" cx="5.27" cy="46.11" r="1"/>
        </g>
        <g id="_Répétition_radiale_-78" data-name="&amp;lt;Répétition radiale&amp;gt;">
          <circle class="cls-2" cx="6.02" cy="41.46" r="1"/>
        </g>
        <g id="_Répétition_radiale_-79" data-name="&amp;lt;Répétition radiale&amp;gt;">
          <circle class="cls-2" cx="7.26" cy="36.91" r="1"/>
        </g>
        <g id="_Répétition_radiale_-80" data-name="&amp;lt;Répétition radiale&amp;gt;">
          <circle class="cls-2" cx="8.97" cy="32.52" r="1"/>
        </g>
        <g id="_Répétition_radiale_-81" data-name="&amp;lt;Répétition radiale&amp;gt;">
          <circle class="cls-2" cx="11.12" cy="28.34" r="1"/>
        </g>
        <g id="_Répétition_radiale_-82" data-name="&amp;lt;Répétition radiale&amp;gt;">
          <circle class="cls-2" cx="13.71" cy="24.4" r="1"/>
        </g>
        <g id="_Répétition_radiale_-83" data-name="&amp;lt;Répétition radiale&amp;gt;">
          <circle class="cls-2" cx="16.69" cy="20.75" r="1"/>
        </g>
        <g id="_Répétition_radiale_-84" data-name="&amp;lt;Répétition radiale&amp;gt;">
          <circle class="cls-2" cx="20.03" cy="17.43" r="1"/>
        </g>
        <g id="_Répétition_radiale_-85" data-name="&amp;lt;Répétition radiale&amp;gt;">
          <circle class="cls-2" cx="23.7" cy="14.48" r="1"/>
        </g>
        <g id="_Répétition_radiale_-86" data-name="&amp;lt;Répétition radiale&amp;gt;">
          <circle class="cls-2" cx="27.66" cy="11.93" r="1"/>
        </g>
        <g id="_Répétition_radiale_-87" data-name="&amp;lt;Répétition radiale&amp;gt;">
          <circle class="cls-2" cx="31.87" cy="9.81" r="1"/>
        </g>
        <g id="_Répétition_radiale_-88" data-name="&amp;lt;Répétition radiale&amp;gt;">
          <circle class="cls-2" cx="36.28" cy="8.14" r="1"/>
        </g>
        <g id="_Répétition_radiale_-89" data-name="&amp;lt;Répétition radiale&amp;gt;">
          <circle class="cls-2" cx="40.83" cy="6.94" r="1"/>
        </g>
        <g id="_Répétition_radiale_-90" data-name="&amp;lt;Répétition radiale&amp;gt;">
          <circle class="cls-2" cx="45.49" cy="6.23" r="1"/>
        </g>
        <g id="_Répétition_radiale_-91" data-name="&amp;lt;Répétition radiale&amp;gt;">
          <path class="cls-2" d="M51.19,6c0,.55-.45,1-1,1-.55,0-1-.45-1-1,0-.55.45-1,1-1,.55,0,1,.45,1,1Z"/>
        </g>
        <g id="_Répétition_radiale_-92" data-name="&amp;lt;Répétition radiale&amp;gt;">
          <circle class="cls-2" cx="54.89" cy="6.27" r="1"/>
        </g>
        <g id="_Répétition_radiale_-93" data-name="&amp;lt;Répétition radiale&amp;gt;">
          <circle class="cls-2" cx="59.54" cy="7.02" r="1"/>
        </g>
        <g id="_Répétition_radiale_-94" data-name="&amp;lt;Répétition radiale&amp;gt;">
          <circle class="cls-2" cx="64.09" cy="8.26" r="1"/>
        </g>
        <g id="_Répétition_radiale_-95" data-name="&amp;lt;Répétition radiale&amp;gt;">
          <circle class="cls-2" cx="68.48" cy="9.97" r="1"/>
        </g>
        <g id="_Répétition_radiale_-96" data-name="&amp;lt;Répétition radiale&amp;gt;">
          <circle class="cls-2" cx="72.66" cy="12.12" r="1"/>
        </g>
        <g id="_Répétition_radiale_-97" data-name="&amp;lt;Répétition radiale&amp;gt;">
          <circle class="cls-2" cx="76.6" cy="14.71" r="1"/>
        </g>
        <g id="_Répétition_radiale_-98" data-name="&amp;lt;Répétition radiale&amp;gt;">
          <circle class="cls-2" cx="80.25" cy="17.69" r="1"/>
        </g>
        <g id="_Répétition_radiale_-99" data-name="&amp;lt;Répétition radiale&amp;gt;">
          <circle class="cls-2" cx="83.57" cy="21.03" r="1"/>
        </g>
        <g id="_Répétition_radiale_-100" data-name="&amp;lt;Répétition radiale&amp;gt;">
          <circle class="cls-2" cx="86.52" cy="24.7" r="1"/>
        </g>
        <g id="_Répétition_radiale_-101" data-name="&amp;lt;Répétition radiale&amp;gt;">
          <circle class="cls-2" cx="89.07" cy="28.66" r="1"/>
        </g>
        <g id="_Répétition_radiale_-102" data-name="&amp;lt;Répétition radiale&amp;gt;">
          <circle class="cls-2" cx="91.19" cy="32.87" r="1"/>
        </g>
        <g id="_Répétition_radiale_-103" data-name="&amp;lt;Répétition radiale&amp;gt;">
          <circle class="cls-2" cx="92.86" cy="37.28" r="1"/>
        </g>
        <g id="_Répétition_radiale_-104" data-name="&amp;lt;Répétition radiale&amp;gt;">
          <circle class="cls-2" cx="94.06" cy="41.83" r="1"/>
        </g>
        <g id="_Répétition_radiale_-105" data-name="&amp;lt;Répétition radiale&amp;gt;">
          <circle class="cls-2" cx="94.77" cy="46.49" r="1"/>
        </g>
        <g id="_Répétition_radiale_-106" data-name="&amp;lt;Répétition radiale&amp;gt;">
          <path class="cls-2" d="M95,52.19c-.55,0-1-.45-1-1,0-.55.45-1,1-1,.55,0,1,.45,1,1,0,.55-.45,1-1,1Z"/>
        </g>
        <g id="_Répétition_radiale_-107" data-name="&amp;lt;Répétition radiale&amp;gt;">
          <circle class="cls-2" cx="94.73" cy="55.89" r="1"/>
        </g>
        <g id="_Répétition_radiale_-108" data-name="&amp;lt;Répétition radiale&amp;gt;">
          <circle class="cls-2" cx="93.98" cy="60.54" r="1"/>
        </g>
        <g id="_Répétition_radiale_-109" data-name="&amp;lt;Répétition radiale&amp;gt;">
          <circle class="cls-2" cx="92.74" cy="65.09" r="1"/>
        </g>
        <g id="_Répétition_radiale_-110" data-name="&amp;lt;Répétition radiale&amp;gt;">
          <circle class="cls-2" cx="91.03" cy="69.48" r="1"/>
        </g>
        <g id="_Répétition_radiale_-111" data-name="&amp;lt;Répétition radiale&amp;gt;">
          <circle class="cls-2" cx="88.88" cy="73.66" r="1"/>
        </g>
        <g id="_Répétition_radiale_-112" data-name="&amp;lt;Répétition radiale&amp;gt;">
          <circle class="cls-2" cx="86.29" cy="77.6" r="1"/>
        </g>
        <g id="_Répétition_radiale_-113" data-name="&amp;lt;Répétition radiale&amp;gt;">
          <circle class="cls-2" cx="83.31" cy="81.25" r="1"/>
        </g>
        <g id="_Répétition_radiale_-114" data-name="&amp;lt;Répétition radiale&amp;gt;">
          <circle class="cls-2" cx="79.97" cy="84.57" r="1"/>
        </g>
        <g id="_Répétition_radiale_-115" data-name="&amp;lt;Répétition radiale&amp;gt;">
          <circle class="cls-2" cx="76.3" cy="87.52" r="1"/>
        </g>
        <g id="_Répétition_radiale_-116" data-name="&amp;lt;Répétition radiale&amp;gt;">
          <circle class="cls-2" cx="72.33" cy="90.07" r="1"/>
        </g>
        <g id="_Répétition_radiale_-117" data-name="&amp;lt;Répétition radiale&amp;gt;">
          <circle class="cls-2" cx="68.13" cy="92.19" r="1"/>
        </g>
        <g id="_Répétition_radiale_-118" data-name="&amp;lt;Répétition radiale&amp;gt;">
          <circle class="cls-2" cx="63.72" cy="93.86" r="1"/>
        </g>
        <g id="_Répétition_radiale_-119" data-name="&amp;lt;Répétition radiale&amp;gt;">
          <circle class="cls-2" cx="59.17" cy="95.06" r="1"/>
        </g>
        <g id="_Répétition_radiale_-120" data-name="&amp;lt;Répétition radiale&amp;gt;">
          <circle class="cls-2" cx="54.52" cy="95.77" r="1"/>
        </g>
      </g>
      <g>
        <path class="cls-1" d="M20.13,54.77l.22,1.63c-3.36,1.07-6.94,2.17-9.18,2.81-.03.23-.16.39-.33.45l-.85-2.08c1.2-.31,2.73-.7,4.42-1.18v-7.26h-3.6v-1.74h3.6v-6.3h-3.96v-1.77h9.48v1.77h-3.74v6.3h3.52v1.74h-3.52v6.75l3.93-1.13ZM25.87,55.73c-.06.17-.22.34-.55.37-.68,3.63-2.1,6.39-7.37,7.91-.19-.45-.71-1.24-1.07-1.58,4.83-1.18,6.2-3.49,6.69-6.95l2.3.25ZM30.37,61.33c0,.68.11.82.85.82h2.35c.66,0,.79-.45.85-3.4.38.31,1.09.62,1.58.73-.16,3.46-.63,4.3-2.24,4.3h-2.81c-1.88,0-2.35-.53-2.35-2.45v-6.53h-7.32v-15.67h12.92v15.67h-3.83v6.53ZM23.03,40.76v3.07h9.37v-3.07h-9.37ZM23.03,45.38v3.09h9.37v-3.09h-9.37ZM23.03,50.05v3.12h9.37v-3.12h-9.37Z"/>
        <path class="cls-4" d="M20.13,53.64l.22,1.63c-3.36,1.07-6.94,2.17-9.18,2.81-.03.23-.16.39-.33.45l-.85-2.08c1.2-.31,2.73-.7,4.42-1.18v-7.26h-3.6v-1.74h3.6v-6.3h-3.96v-1.77h9.48v1.77h-3.74v6.3h3.52v1.74h-3.52v6.75l3.93-1.13ZM25.87,54.6c-.06.17-.22.34-.55.37-.68,3.63-2.1,6.39-7.37,7.91-.19-.45-.71-1.24-1.07-1.58,4.83-1.18,6.2-3.49,6.69-6.95l2.3.25ZM30.37,60.2c0,.68.11.82.85.82h2.35c.66,0,.79-.45.85-3.4.38.31,1.09.62,1.58.73-.16,3.46-.63,4.3-2.24,4.3h-2.81c-1.88,0-2.35-.53-2.35-2.45v-6.53h-7.32v-15.67h12.92v15.67h-3.83v6.53ZM23.03,39.63v3.07h9.37v-3.07h-9.37ZM23.03,44.24v3.09h9.37v-3.09h-9.37ZM23.03,48.92v3.12h9.37v-3.12h-9.37Z"/>
        <path class="cls-2" d="M20.13,54.21l.22,1.63c-3.36,1.07-6.94,2.17-9.18,2.81-.03.23-.16.39-.33.45l-.85-2.08c1.2-.31,2.73-.7,4.42-1.18v-7.26h-3.6v-1.74h3.6v-6.3h-3.96v-1.77h9.48v1.77h-3.74v6.3h3.52v1.74h-3.52v6.75l3.93-1.13ZM25.87,55.16c-.06.17-.22.34-.55.37-.68,3.63-2.1,6.39-7.37,7.91-.19-.45-.71-1.24-1.07-1.58,4.83-1.18,6.2-3.49,6.69-6.95l2.3.25ZM30.37,60.76c0,.68.11.82.85.82h2.35c.66,0,.79-.45.85-3.4.38.31,1.09.62,1.58.73-.16,3.46-.63,4.3-2.24,4.3h-2.81c-1.88,0-2.35-.53-2.35-2.45v-6.53h-7.32v-15.67h12.92v15.67h-3.83v6.53ZM23.03,40.2v3.07h9.37v-3.07h-9.37ZM23.03,44.81v3.09h9.37v-3.09h-9.37ZM23.03,49.48v3.12h9.37v-3.12h-9.37Z"/>
      </g>
      <g>
        <path class="cls-1" d="M78.83,55.6v7.62h11.62v1.79h-24.97v-1.79h11.33v-7.62h-10.04v-1.79h10.04v-4.17h-6.19v-1.7c-1.55,1.25-3.22,2.41-4.89,3.39-.29-.45-.8-1.16-1.21-1.58,5.03-2.77,9.98-7.53,12.25-11.55l2.82.18c-.06.24-.29.39-.58.45,2.79,3.99,7.97,8.3,12.43,10.53-.46.51-.95,1.16-1.3,1.76-4.49-2.56-9.64-6.9-12.34-10.83-1.52,2.41-4.08,5.12-7.05,7.53h14.47v1.81h-6.42v4.17h10.27v1.79h-10.27ZM72.05,62.71c-.37-1.52-1.52-3.87-2.7-5.62l1.58-.63c1.21,1.67,2.42,3.99,2.82,5.51l-1.7.74ZM86.83,57.35c-.09.18-.32.27-.63.24-.83,1.55-2.21,3.75-3.31,5.18l-1.44-.75c1.06-1.49,2.47-3.93,3.22-5.65l2.16.98Z"/>
        <path class="cls-4" d="M78.83,54.38v7.62h11.62v1.79h-24.97v-1.79h11.33v-7.62h-10.04v-1.79h10.04v-4.17h-6.19v-1.7c-1.55,1.25-3.22,2.41-4.89,3.39-.29-.45-.8-1.16-1.21-1.58,5.03-2.77,9.98-7.53,12.25-11.55l2.82.18c-.06.24-.29.39-.58.45,2.79,3.99,7.97,8.3,12.43,10.53-.46.51-.95,1.16-1.3,1.76-4.49-2.56-9.64-6.9-12.34-10.83-1.52,2.41-4.08,5.12-7.05,7.53h14.47v1.81h-6.42v4.17h10.27v1.79h-10.27ZM72.05,61.49c-.37-1.52-1.52-3.87-2.7-5.62l1.58-.63c1.21,1.67,2.42,3.99,2.82,5.51l-1.7.74ZM86.83,56.13c-.09.18-.32.27-.63.24-.83,1.55-2.21,3.75-3.31,5.18l-1.44-.75c1.06-1.49,2.47-3.93,3.22-5.65l2.16.98Z"/>
        <path class="cls-2" d="M78.83,54.99v7.62h11.62v1.79h-24.97v-1.79h11.33v-7.62h-10.04v-1.79h10.04v-4.17h-6.19v-1.7c-1.55,1.25-3.22,2.41-4.89,3.39-.29-.45-.8-1.16-1.21-1.58,5.03-2.77,9.98-7.53,12.25-11.55l2.82.18c-.06.24-.29.39-.58.45,2.79,3.99,7.97,8.3,12.43,10.53-.46.51-.95,1.16-1.3,1.76-4.49-2.56-9.64-6.9-12.34-10.83-1.52,2.41-4.08,5.12-7.05,7.53h14.47v1.81h-6.42v4.17h10.27v1.79h-10.27ZM72.05,62.1c-.37-1.52-1.52-3.87-2.7-5.62l1.58-.63c1.21,1.67,2.42,3.99,2.82,5.51l-1.7.74ZM86.83,56.74c-.09.18-.32.27-.63.24-.83,1.55-2.21,3.75-3.31,5.18l-1.44-.75c1.06-1.49,2.47-3.93,3.22-5.65l2.16.98Z"/>
      </g>
      <g>
        <path class="cls-4" d="M47.93,34.5v-6.46h-6.77v-1.85h6.77v-2.66h-6.77v-1.85h5.68l-7.33-11.19h4.1l4.54,7.61c.7,1.26,1.22,2.25,1.75,3.36h.13c.44-1.03,1-2.18,1.75-3.43l4.71-7.53h4.02l-7.82,11.19h5.68v1.85h-6.81v2.66h6.81v1.85h-6.81v6.46h-3.62Z"/>
        <path class="cls-1" d="M47.93,35.5v-6.46h-6.77v-1.85h6.77v-2.66h-6.77v-1.85h5.68l-7.33-11.19h4.1l4.54,7.61c.7,1.26,1.22,2.25,1.75,3.36h.13c.44-1.03,1-2.18,1.75-3.43l4.71-7.53h4.02l-7.82,11.19h5.68v1.85h-6.81v2.66h6.81v1.85h-6.81v6.46h-3.62Z"/>
        <path class="cls-2" d="M47.93,35v-6.46h-6.77v-1.85h6.77v-2.66h-6.77v-1.85h5.68l-7.33-11.19h4.1l4.54,7.61c.7,1.26,1.22,2.25,1.75,3.36h.13c.44-1.03,1-2.18,1.75-3.43l4.71-7.53h4.02l-7.82,11.19h5.68v1.85h-6.81v2.66h6.81v1.85h-6.81v6.46h-3.62Z"/>
      </g>
      <g>
        <path class="cls-1" d="M50.64,79.24c0,.69.26.85,1.89.85h5.89c1.21,0,1.42-.28,1.53-2.03.37.23,1.05.44,1.5.54-.21,2.34-.76,2.91-2.87,2.91h-6.1c-2.79,0-3.52-.44-3.52-2.24v-1.03l-5.42.51-.18-1.34,5.6-.54v-2.29h-6.91v4.71c0,3.6-.37,8.69-2.55,12.19-.34-.31-1.08-.77-1.5-.93,2.1-3.32,2.31-7.92,2.31-11.26v-6.22h8.65v-5.48l2.29.13c-.03.21-.18.31-.52.36v1.65h9.2v1.47h-9.2v1.88h9.96l1.1.05c0,.33-.84,2.88-1.63,4.24l-1.55-.57c.29-.59.61-1.39.87-2.21h-8.44c-.08.08-.21.13-.39.15v1.98l6.81-.64.16,1.34-6.97.67v1.16ZM49.02,82.45c0,.18-.16.31-.5.33-.31,4.4-1.26,7.2-6.07,8.72-.18-.41-.63-1.03-.97-1.34,4.31-1.26,5.15-3.6,5.39-7.89l2.16.18ZM54.48,88.57c0,.69.18.82,1.21.82h3.55c.95,0,1.1-.41,1.21-3.39.34.31,1.08.57,1.55.69-.21,3.42-.71,4.27-2.6,4.27h-3.87c-2.18,0-2.76-.52-2.76-2.37v-6.3l2.21.13c-.03.18-.16.31-.5.36v5.78Z"/>
        <path class="cls-4" d="M50.64,78.15c0,.69.26.85,1.89.85h5.89c1.21,0,1.42-.28,1.53-2.03.37.23,1.05.44,1.5.54-.21,2.34-.76,2.91-2.87,2.91h-6.1c-2.79,0-3.52-.44-3.52-2.24v-1.03l-5.42.51-.18-1.34,5.6-.54v-2.29h-6.91v4.71c0,3.6-.37,8.69-2.55,12.19-.34-.31-1.08-.77-1.5-.93,2.1-3.32,2.31-7.92,2.31-11.26v-6.22h8.65v-5.48l2.29.13c-.03.21-.18.31-.52.36v1.65h9.2v1.47h-9.2v1.88h9.96l1.1.05c0,.33-.84,2.88-1.63,4.24l-1.55-.57c.29-.59.61-1.39.87-2.21h-8.44c-.08.08-.21.13-.39.15v1.98l6.81-.64.16,1.34-6.97.67v1.16ZM49.02,81.36c0,.18-.16.31-.5.33-.31,4.4-1.26,7.2-6.07,8.72-.18-.41-.63-1.03-.97-1.34,4.31-1.26,5.15-3.6,5.39-7.89l2.16.18ZM54.48,87.48c0,.69.18.82,1.21.82h3.55c.95,0,1.1-.41,1.21-3.39.34.31,1.08.57,1.55.69-.21,3.42-.71,4.27-2.6,4.27h-3.87c-2.18,0-2.76-.52-2.76-2.37v-6.3l2.21.13c-.03.18-.16.31-.5.36v5.78Z"/>
        <path class="cls-2" d="M50.64,78.69c0,.69.26.85,1.89.85h5.89c1.21,0,1.42-.28,1.53-2.03.37.23,1.05.44,1.5.54-.21,2.34-.76,2.91-2.87,2.91h-6.1c-2.79,0-3.52-.44-3.52-2.24v-1.03l-5.42.51-.18-1.34,5.6-.54v-2.29h-6.91v4.71c0,3.6-.37,8.69-2.55,12.19-.34-.31-1.08-.77-1.5-.93,2.1-3.32,2.31-7.92,2.31-11.26v-6.22h8.65v-5.48l2.29.13c-.03.21-.18.31-.52.36v1.65h9.2v1.47h-9.2v1.88h9.96l1.1.05c0,.33-.84,2.88-1.63,4.24l-1.55-.57c.29-.59.61-1.39.87-2.21h-8.44c-.08.08-.21.13-.39.15v1.98l6.81-.64.16,1.34-6.97.67v1.16ZM49.02,81.91c0,.18-.16.31-.5.33-.31,4.4-1.26,7.2-6.07,8.72-.18-.41-.63-1.03-.97-1.34,4.31-1.26,5.15-3.6,5.39-7.89l2.16.18ZM54.48,88.03c0,.69.18.82,1.21.82h3.55c.95,0,1.1-.41,1.21-3.39.34.31,1.08.57,1.55.69-.21,3.42-.71,4.27-2.6,4.27h-3.87c-2.18,0-2.76-.52-2.76-2.37v-6.3l2.21.13c-.03.18-.16.31-.5.36v5.78Z"/>
      </g>
    </g>
  </g>
</svg>