<svg width="73" height="73" viewBox="0 0 73 73" fill="none" xmlns="http://www.w3.org/2000/svg" class="node">
    <g opacity="0.5">
    <path class="line top" d="M38.9272 2.0583C38.9312 0.953734 38.0391 0.0550543 36.9345 0.0510386C35.83 0.047023 34.9313 0.939192 34.9273 2.04375L38.9272 2.0583ZM34.9273 2.04375L34.8909 12.0437L38.8909 12.0582L38.9272 2.0583L34.9273 2.04375Z" fill="#B4B4B4"/>
    <path class="line left" d="M2.79656 37.9272C1.692 37.9232 0.799831 37.0245 0.803846 35.9199C0.807862 34.8154 1.70654 33.9232 2.8111 33.9272L2.79656 37.9272ZM2.8111 33.9272L12.811 33.9636L12.7965 37.9636L2.79656 37.9272L2.8111 33.9272Z" fill="#B4B4B4"/>
    <path class="line right" d="M70.7961 38.1744C71.9007 38.1784 72.7994 37.2863 72.8034 36.1817C72.8074 35.0771 71.9152 34.1785 70.8107 34.1745L70.7961 38.1744ZM70.8107 34.1745L60.8107 34.1381L60.7962 38.1381L70.7961 38.1744L70.8107 34.1745Z" fill="#B4B4B4"/>
    <path class="line bottom" d="M34.68 70.0433C34.676 71.1479 35.5682 72.0466 36.6727 72.0506C37.7773 72.0546 38.676 71.1624 38.68 70.0579L34.68 70.0433ZM38.68 70.0579L38.7163 60.0579L34.7164 60.0434L34.68 70.0433L38.68 70.0579Z" fill="#B4B4B4"/>
    </g>
    <g opacity="0.5" class="onlyWhenEven">
    <path class="line left top" d="M14.3103 10.5547C13.5321 9.77077 12.2658 9.76617 11.4819 10.5444C10.698 11.3226 10.6934 12.5889 11.4716 13.3728L14.3103 10.5547ZM11.4716 13.3728L18.517 20.4695L21.3557 17.6514L14.3103 10.5547L11.4716 13.3728Z" fill="#B4B4B4"/>
    <path class="line right top" d="M59.4816 10.7189C60.2655 9.94066 61.5318 9.94527 62.31 10.7292C63.0882 11.513 63.0836 12.7794 62.2997 13.5576L59.4816 10.7189ZM62.2997 13.5576L55.203 20.6029L52.3849 17.7642L59.4816 10.7189L62.2997 13.5576Z" fill="#B4B4B4"/>
    <path class="line left bottom " d="M14.1256 61.3827C13.3417 62.1609 12.0754 62.1563 11.2971 61.3724C10.5189 60.5886 10.5235 59.3222 11.3074 58.544L14.1256 61.3827ZM11.3074 58.544L18.4042 51.4987L21.2223 54.3374L14.1256 61.3827L11.3074 58.544Z" fill="#B4B4B4"/>
    <path class="line right bottom" d="M59.2968 61.547C60.075 62.3309 61.3413 62.3355 62.1252 61.5573C62.9091 60.7791 62.9137 59.5128 62.1355 58.7289L59.2968 61.547ZM62.1355 58.7289L55.0902 51.6321L52.2515 54.4503L59.2968 61.547L62.1355 58.7289Z" fill="#B4B4B4"/>
    </g>
    <rect x="18.5674" y="17.4329" width="37" height="37" rx="18.5" transform="rotate(0.208296 18.5674 17.4329)" stroke="#B4B4B4" stroke-width="3" stroke-dasharray="7 7"/>
    <circle cx="37" cy="36" r="8.5" transform="rotate(0.208296 37 36)" stroke="#B4B4B4" stroke-width="3"/>
</svg>