<svg width="56" height="67" viewBox="0 0 56 67" fill="none" xmlns="http://www.w3.org/2000/svg">
<rect x="24.6473" y="13.7719" width="5" height="21" transform="rotate(-31.9687 24.6473 13.7719)" fill="#FF6F08"/>
<rect x="22" y="9.53021" width="18" height="5" transform="rotate(-31.9687 22 9.53021)" fill="#FF6F08"/>
<rect x="40" y="15" width="12" height="12" rx="6" fill="#FF6F08"/>
<rect x="41" y="16" width="10" height="10" rx="5" stroke="black" stroke-opacity="0.5" stroke-width="2"/>
<rect x="5" y="15" width="12" height="12" rx="6" fill="#FF6F08"/>
<rect x="6" y="16" width="10" height="10" rx="5" stroke="black" stroke-opacity="0.5" stroke-width="2"/>
<rect x="8" y="22" width="40" height="40" fill="#FF6F08"/>
<rect x="9" y="23" width="38" height="38" stroke="black" stroke-opacity="0.5" stroke-width="2"/>
<rect x="30" y="29" width="8" height="17" fill="white"/>
<rect x="31" y="30" width="6" height="15" stroke="black" stroke-opacity="0.5" stroke-width="2"/>
<rect x="18" y="29" width="8" height="17" fill="white"/>
<rect x="19" y="30" width="6" height="15" stroke="black" stroke-opacity="0.5" stroke-width="2"/>
<path d="M34 60C34 54.4772 38.4772 50 44 50H46C51.5228 50 56 54.4772 56 60V64H34V60Z" fill="#FF6F08"/>
<path d="M44 51H46C50.9706 51 55 55.0294 55 60V63H35V60C35 55.0294 39.0294 51 44 51Z" stroke="black" stroke-opacity="0.5" stroke-width="2"/>
<path d="M0 60C0 54.4772 4.47715 50 10 50H12C17.5228 50 22 54.4772 22 60V64H0V60Z" fill="#FF6F08"/>
<path d="M10 51H12C16.9706 51 21 55.0294 21 60V63H1V60C1 55.0294 5.02944 51 10 51Z" stroke="black" stroke-opacity="0.5" stroke-width="2"/>
</svg>
