<svg width="56" height="76" viewBox="0 0 56 76" fill="none" xmlns="http://www.w3.org/2000/svg">
<rect x="29" y="18" width="5" height="21" fill="#2D08FF"/>
<rect x="29" y="17.0078" width="18" height="5" transform="rotate(-30.0284 29 17.0078)" fill="#2D08FF"/>
<g opacity="0.8">
<rect opacity="0.8" width="5" height="21" transform="matrix(-1 0 0 1 27.3243 17.7844)" fill="#2D08FF"/>
<rect opacity="0.8" width="18" height="5" transform="matrix(-0.945921 -0.324398 -0.324398 0.945921 27.6486 15.8392)" fill="#2D08FF"/>
<rect width="18" height="5" transform="matrix(-0.262615 -0.964901 -0.964901 0.262615 30.5516 17.3682)" fill="#2D08FF"/>
</g>
<rect x="8" y="31" width="40" height="40" fill="#2D09FF"/>
<rect x="9" y="32" width="38" height="38" stroke="black" stroke-opacity="0.5" stroke-width="2"/>
<rect x="38.6078" y="37.3012" width="5.09006" height="12.8145" transform="rotate(45 38.6078 37.3012)" fill="white"/>
<rect x="13" y="41.7454" width="5.29678" height="13.012" transform="rotate(-45 13 41.7454)" fill="white"/>
<rect x="34" y="59" width="22" height="17" fill="#2D09FF"/>
<rect x="35" y="60" width="20" height="15" stroke="black" stroke-opacity="0.5" stroke-width="2"/>
<rect y="59" width="22" height="17" fill="#2D09FF"/>
<rect x="1" y="60" width="20" height="15" stroke="black" stroke-opacity="0.5" stroke-width="2"/>
</svg>
